<?xml version="1.0" encoding="UTF-8" standalone="no"?>
<!-- Created with Inkscape (http://www.inkscape.org/) -->

<svg
   width="210mm"
   height="297mm"
   viewBox="0 0 210 297"
   version="1.1"
   id="svg1"
   xml:space="preserve"
   sodipodi:docname="BuildingSignP.svg"
   inkscape:version="1.4 (e7c3feb1, 2024-10-09)"
   xmlns:inkscape="http://www.inkscape.org/namespaces/inkscape"
   xmlns:sodipodi="http://sodipodi.sourceforge.net/DTD/sodipodi-0.dtd"
   xmlns="http://www.w3.org/2000/svg"
   xmlns:svg="http://www.w3.org/2000/svg"><sodipodi:namedview
     id="namedview1"
     pagecolor="#ffffff"
     bordercolor="#000000"
     borderopacity="0.25"
     inkscape:showpageshadow="2"
     inkscape:pageopacity="0.0"
     inkscape:pagecheckerboard="0"
     inkscape:deskcolor="#d1d1d1"
     inkscape:document-units="mm"
     inkscape:zoom="1.0631251"
     inkscape:cx="232.3339"
     inkscape:cy="749.6766"
     inkscape:window-width="1336"
     inkscape:window-height="531"
     inkscape:window-x="0"
     inkscape:window-y="25"
     inkscape:window-maximized="0"
     inkscape:current-layer="layer1" /><defs
     id="defs1" /><g
     inkscape:label="Layer 1"
     inkscape:groupmode="layer"
     id="layer1"><rect
       style="fill:#008073;fill-opacity:1;stroke:#ffffff;stroke-width:0;stroke-linecap:round;stroke-linejoin:round;stroke-dasharray:none;paint-order:stroke fill markers"
       id="rect11"
       width="46.539665"
       height="35.078388"
       x="50.321148"
       y="173.3923" /><path
       id="path3"
       style="fill:#ffffff;stroke-linecap:round;stroke-linejoin:round;paint-order:stroke fill markers"
       d="M 81.078255 188.88666 A 0.60000002 0.60000002 0 0 0 80.478292 189.48611 L 80.478292 192.42753 L 78.626725 192.42753 A 0.60000002 0.60000002 0 0 0 78.027279 193.02749 A 0.60000002 0.60000002 0 0 0 78.626725 193.62694 L 80.478292 193.62694 L 80.478292 197.04534 L 77.92961 199.5935 A 0.60000002 0.60000002 0 0 0 77.92961 200.44151 A 0.60000002 0.60000002 0 0 0 78.779171 200.44151 L 80.478292 198.74394 L 80.478292 201.74789 L 79.755855 202.87134 A 0.60000002 0.60000002 0 0 0 79.937756 203.70126 A 0.60000002 0.60000002 0 0 0 80.765613 203.51936 L 81.584167 202.25019 A 0.60006002 0.60006002 0 0 0 81.677702 201.92359 L 81.677702 198.2463 L 82.908118 198.83386 A 0.60000002 0.60000002 0 0 0 83.709102 198.55274 A 0.60000002 0.60000002 0 0 0 83.425916 197.75175 L 81.677702 196.91615 L 81.677702 193.62694 L 82.984599 193.62694 A 0.60000002 0.60000002 0 0 0 83.586112 193.02749 A 0.60000002 0.60000002 0 0 0 82.984599 192.42753 L 81.677702 192.42753 L 81.677702 189.48611 A 0.60000002 0.60000002 0 0 0 81.078255 188.88666 z " /><path
       id="path6"
       style="fill:#ffffff;stroke-linecap:round;stroke-linejoin:round;paint-order:stroke fill markers"
       d="M 87.343506 188.43139 A 0.60000002 0.60000002 0 0 0 86.744059 189.03136 L 86.744059 190.88292 L 84.165922 190.88292 A 0.60000002 0.60000002 0 0 0 83.566475 191.48444 A 0.60000002 0.60000002 0 0 0 84.165922 192.08388 L 86.744059 192.08388 L 86.744059 193.42592 L 84.43774 193.42592 A 0.60006002 0.60006002 0 0 0 83.837777 194.02537 L 83.837777 198.65609 A 0.60006002 0.60006002 0 0 0 84.43774 199.25605 L 86.744059 199.25605 L 86.744059 199.69996 L 82.738102 202.42795 A 0.60000002 0.60000002 0 0 0 82.579972 203.26149 A 0.60000002 0.60000002 0 0 0 83.41403 203.42014 L 86.744059 201.15155 L 86.744059 204.0139 A 0.60000002 0.60000002 0 0 0 87.343506 204.61335 A 0.60000002 0.60000002 0 0 0 87.943469 204.0139 L 87.943469 201.20219 L 91.074028 203.49817 A 0.60000002 0.60000002 0 0 0 91.912219 203.36898 A 0.60000002 0.60000002 0 0 0 91.783028 202.53131 L 87.943469 199.71546 L 87.943469 199.25605 L 90.158321 199.25605 A 0.60006002 0.60006002 0 0 0 90.757768 198.65609 L 90.757768 194.02537 A 0.60006002 0.60006002 0 0 0 90.158321 193.42592 L 87.943469 193.42592 L 87.943469 192.08388 L 90.974809 192.08388 A 0.60000002 0.60000002 0 0 0 91.574255 191.48444 A 0.60000002 0.60000002 0 0 0 90.974809 190.88292 L 87.943469 190.88292 L 87.943469 189.03136 A 0.60000002 0.60000002 0 0 0 87.343506 188.43139 z M 85.037187 194.62481 L 86.744059 194.62481 L 86.744059 195.73999 L 85.037187 195.73999 L 85.037187 194.62481 z M 87.943469 194.62481 L 89.558358 194.62481 L 89.558358 195.73999 L 87.943469 195.73999 L 87.943469 194.62481 z M 85.037187 196.94147 L 86.744059 196.94147 L 86.744059 198.05664 L 85.037187 198.05664 L 85.037187 196.94147 z M 87.943469 196.94147 L 89.558358 196.94147 L 89.558358 198.05664 L 87.943469 198.05664 L 87.943469 196.94147 z " /><path
       d="m 75.026788,185.46284 q 0,1.91787 -0.678034,3.56452 -0.658662,1.62728 -1.859752,2.82837 -1.491676,1.49168 -3.525779,2.2472 -2.034103,0.73616 -5.13369,0.73616 h -3.835737 v 10.75168 h -3.835738 v -28.84552 h 7.826455 q 2.595903,0 4.397538,0.44557 1.801634,0.42619 3.196448,1.35607 1.646655,1.10422 2.537786,2.75088 0.910503,1.64665 0.910503,4.16507 z m -3.990717,0.0969 q 0,-1.49168 -0.523055,-2.5959 -0.523055,-1.10423 -1.588538,-1.80164 -0.929876,-0.60054 -2.130965,-0.85238 -1.181718,-0.27122 -3.002724,-0.27122 h -3.796993 v 11.52659 h 3.235193 q 2.324689,0 3.77762,-0.40682 1.452931,-0.4262 2.363435,-1.3367 0.910503,-0.92988 1.278579,-1.95661 0.387448,-1.02674 0.387448,-2.30532 z"
       id="text12"
       style="font-size:39.6747px;line-height:1.3;font-family:System-ui;-inkscape-font-specification:System-ui;text-align:center;text-anchor:middle;fill:#f9f9f9;stroke:#ffffff;stroke-width:0;stroke-linecap:round;stroke-linejoin:round;paint-order:stroke fill markers"
       transform="scale(1.0025322,0.99747421)"
       aria-label="P" /></g></svg>
