<?xml version="1.0" encoding="UTF-8" standalone="no"?>
<!-- Created with Inkscape (http://www.inkscape.org/) -->

<svg
   width="210mm"
   height="297mm"
   viewBox="0 0 210 297"
   version="1.1"
   id="svg1"
   xml:space="preserve"
   sodipodi:docname="BuildingSignALL.svg"
   inkscape:version="1.4 (e7c3feb1, 2024-10-09)"
   xmlns:inkscape="http://www.inkscape.org/namespaces/inkscape"
   xmlns:sodipodi="http://sodipodi.sourceforge.net/DTD/sodipodi-0.dtd"
   xmlns="http://www.w3.org/2000/svg"
   xmlns:svg="http://www.w3.org/2000/svg"><sodipodi:namedview
     id="namedview1"
     pagecolor="#ffffff"
     bordercolor="#000000"
     borderopacity="0.25"
     inkscape:showpageshadow="2"
     inkscape:pageopacity="0.0"
     inkscape:pagecheckerboard="0"
     inkscape:deskcolor="#d1d1d1"
     inkscape:document-units="mm"
     inkscape:zoom="1.0631251"
     inkscape:cx="266.19633"
     inkscape:cy="738.85943"
     inkscape:window-width="1488"
     inkscape:window-height="944"
     inkscape:window-x="55"
     inkscape:window-y="65"
     inkscape:window-maximized="0"
     inkscape:current-layer="layer1" /><defs
     id="defs1" /><g
     inkscape:label="Layer 1"
     inkscape:groupmode="layer"
     id="layer1"><rect
       style="fill:#008073;fill-opacity:1;stroke:#ffffff;stroke-width:0;stroke-linecap:round;stroke-linejoin:round;stroke-dasharray:none;paint-order:stroke fill markers"
       id="rect11"
       width="48.779526"
       height="35.078388"
       x="48.081287"
       y="173.3923" /><path
       id="path3"
       style="fill:#ffffff;stroke-linecap:round;stroke-linejoin:round;paint-order:stroke fill markers"
       d="M 81.078255 188.88666 A 0.60000002 0.60000002 0 0 0 80.478292 189.48611 L 80.478292 192.42753 L 78.626725 192.42753 A 0.60000002 0.60000002 0 0 0 78.027279 193.02749 A 0.60000002 0.60000002 0 0 0 78.626725 193.62694 L 80.478292 193.62694 L 80.478292 197.04534 L 77.92961 199.5935 A 0.60000002 0.60000002 0 0 0 77.92961 200.44151 A 0.60000002 0.60000002 0 0 0 78.779171 200.44151 L 80.478292 198.74394 L 80.478292 201.74789 L 79.755855 202.87134 A 0.60000002 0.60000002 0 0 0 79.937756 203.70126 A 0.60000002 0.60000002 0 0 0 80.765613 203.51936 L 81.584167 202.25019 A 0.60006002 0.60006002 0 0 0 81.677702 201.92359 L 81.677702 198.2463 L 82.908118 198.83386 A 0.60000002 0.60000002 0 0 0 83.709102 198.55274 A 0.60000002 0.60000002 0 0 0 83.425916 197.75175 L 81.677702 196.91615 L 81.677702 193.62694 L 82.984599 193.62694 A 0.60000002 0.60000002 0 0 0 83.586112 193.02749 A 0.60000002 0.60000002 0 0 0 82.984599 192.42753 L 81.677702 192.42753 L 81.677702 189.48611 A 0.60000002 0.60000002 0 0 0 81.078255 188.88666 z " /><path
       id="path6"
       style="fill:#ffffff;stroke-linecap:round;stroke-linejoin:round;paint-order:stroke fill markers"
       d="M 87.343506 188.43139 A 0.60000002 0.60000002 0 0 0 86.744059 189.03136 L 86.744059 190.88292 L 84.165922 190.88292 A 0.60000002 0.60000002 0 0 0 83.566475 191.48444 A 0.60000002 0.60000002 0 0 0 84.165922 192.08388 L 86.744059 192.08388 L 86.744059 193.42592 L 84.43774 193.42592 A 0.60006002 0.60006002 0 0 0 83.837777 194.02537 L 83.837777 198.65609 A 0.60006002 0.60006002 0 0 0 84.43774 199.25605 L 86.744059 199.25605 L 86.744059 199.69996 L 82.738102 202.42795 A 0.60000002 0.60000002 0 0 0 82.579972 203.26149 A 0.60000002 0.60000002 0 0 0 83.41403 203.42014 L 86.744059 201.15155 L 86.744059 204.0139 A 0.60000002 0.60000002 0 0 0 87.343506 204.61335 A 0.60000002 0.60000002 0 0 0 87.943469 204.0139 L 87.943469 201.20219 L 91.074028 203.49817 A 0.60000002 0.60000002 0 0 0 91.912219 203.36898 A 0.60000002 0.60000002 0 0 0 91.783028 202.53131 L 87.943469 199.71546 L 87.943469 199.25605 L 90.158321 199.25605 A 0.60006002 0.60006002 0 0 0 90.757768 198.65609 L 90.757768 194.02537 A 0.60006002 0.60006002 0 0 0 90.158321 193.42592 L 87.943469 193.42592 L 87.943469 192.08388 L 90.974809 192.08388 A 0.60000002 0.60000002 0 0 0 91.574255 191.48444 A 0.60000002 0.60000002 0 0 0 90.974809 190.88292 L 87.943469 190.88292 L 87.943469 189.03136 A 0.60000002 0.60000002 0 0 0 87.343506 188.43139 z M 85.037187 194.62481 L 86.744059 194.62481 L 86.744059 195.73999 L 85.037187 195.73999 L 85.037187 194.62481 z M 87.943469 194.62481 L 89.558358 194.62481 L 89.558358 195.73999 L 87.943469 195.73999 L 87.943469 194.62481 z M 85.037187 196.94147 L 86.744059 196.94147 L 86.744059 198.05664 L 85.037187 198.05664 L 85.037187 196.94147 z M 87.943469 196.94147 L 89.558358 196.94147 L 89.558358 198.05664 L 87.943469 198.05664 L 87.943469 196.94147 z " /><path
       d="m 55.632308,192.64656 9.976344,-25.97748 h 3.703474 l 10.631982,25.97748 h -3.916113 l -3.030116,-7.86767 H 62.135537 l -2.852915,7.86767 z m 7.495548,-10.66742 h 8.806825 l -2.711155,-7.19431 q -1.240398,-3.27819 -1.842877,-5.38687 -0.49616,2.49851 -1.399878,4.96159 z"
       id="text19"
       style="font-size:36.2905px;line-height:1.3;font-family:Arial;-inkscape-font-specification:Arial;text-align:center;text-anchor:middle;display:inline;fill:#f9f9f9;stroke:#ffffff;stroke-width:0;stroke-linecap:round;stroke-linejoin:round;paint-order:stroke fill markers"
       transform="scale(0.94169733,1.0619123)"
       aria-label="A"
       inkscape:label="A" /><path
       d="m 53.207163,204.37604 v -27.25143 h 10.223931 q 3.122946,0 5.000432,0.83651 1.896075,0.81791 2.955646,2.54669 1.07816,1.71018 1.07816,3.58767 0,1.74736 -0.948038,3.29024 -0.948037,1.54289 -2.8627,2.49092 2.472332,0.72497 3.792149,2.47234 1.338405,1.74736 1.338405,4.12675 0,1.91466 -0.817914,3.56908 -0.799326,1.63583 -1.98902,2.5281 -1.189694,0.89227 -2.992823,1.35699 -1.784541,0.44614 -4.386996,0.44614 z m 3.606259,-15.80062 h 5.892703 q 2.397976,0 3.438958,-0.31602 1.375584,-0.40895 2.063375,-1.35699 0.706381,-0.94804 0.706381,-2.37939 0,-1.35699 -0.650614,-2.37939 -0.650613,-1.04098 -1.858896,-1.41276 -1.208283,-0.39037 -4.14534,-0.39037 h -5.446567 z m 0,12.58473 h 6.784973 q 1.747363,0 2.453743,-0.13013 1.245461,-0.22306 2.081965,-0.74355 0.836503,-0.5205 1.375583,-1.50571 0.53908,-1.00381 0.53908,-2.30503 0,-1.5243 -0.780737,-2.63964 -0.780736,-1.13392 -2.174909,-1.58006 -1.375583,-0.46472 -3.978038,-0.46472 h -6.30166 z"
       id="text17"
       style="font-size:38.0702px;line-height:1.3;font-family:Arial;-inkscape-font-specification:Arial;text-align:center;text-anchor:middle;display:inline;fill:#f9f9f9;stroke:#ffffff;stroke-width:0;stroke-linecap:round;stroke-linejoin:round;paint-order:stroke fill markers"
       aria-label="B"
       inkscape:label="B" /><path
       d="m 72.608193,191.622 3.432417,0.86696 q -1.079265,4.22859 -3.892431,6.45789 -2.795474,2.21161 -6.847142,2.21161 -4.19321,0 -6.829448,-1.69851 -2.618545,-1.71621 -3.998589,-4.95401 -1.362351,-3.23779 -1.362351,-6.9533 0,-4.05166 1.53928,-7.05945 1.556972,-3.02548 4.405525,-4.58245 2.866245,-1.57467 6.298662,-1.57467 3.892432,0 6.546362,1.9816 2.653931,1.9816 3.69781,5.57326 l -3.379338,0.79617 q -0.902336,-2.83085 -2.618545,-4.12243 -1.716208,-1.29158 -4.317061,-1.29158 -2.990095,0 -5.007082,1.43312 -1.999295,1.43312 -2.813167,3.85704 -0.813872,2.40624 -0.813872,4.9717 0,3.30857 0.955415,5.78557 0.973108,2.45931 3.007788,3.68012 2.034681,1.22081 4.405525,1.22081 2.883938,0 4.883233,-1.66313 1.999294,-1.66313 2.707009,-4.93632 z"
       id="text18"
       style="font-size:36.235px;line-height:1.3;font-family:Arial;-inkscape-font-specification:Arial;text-align:center;text-anchor:middle;display:inline;fill:#f9f9f9;stroke:#ffffff;stroke-width:0;stroke-linecap:round;stroke-linejoin:round;paint-order:stroke fill markers"
       transform="scale(0.98425672,1.0159951)"
       aria-label="C"
       inkscape:label="C" /><path
       d="m 53.038756,203.36339 v -27.45465 h 9.457432 q 3.202417,0 4.8879,0.39328 2.359676,0.5431 4.026431,1.9664 2.172401,1.8353 3.239873,4.70063 1.0862,2.84659 1.0862,6.5172 0,3.1275 -0.730376,5.54336 -0.730376,2.41586 -1.872758,4.00771 -1.142383,1.57311 -2.509497,2.49076 -1.348386,0.89893 -3.277328,1.36712 -1.910214,0.46819 -4.400983,0.46819 z m 3.633152,-3.23987 h 5.861735 q 2.7155,0 4.251162,-0.50565 1.55439,-0.50564 2.472042,-1.4233 1.292203,-1.2922 2.003852,-3.4646 0.730376,-2.19113 0.730376,-5.29991 0,-4.30734 -1.423297,-6.61084 -1.404569,-2.32222 -3.427148,-3.10877 -1.460752,-0.56183 -4.700625,-0.56183 h -5.768097 z"
       id="text20"
       style="font-size:38.3541px;line-height:1.3;font-family:Arial;-inkscape-font-specification:Arial;text-align:center;text-anchor:middle;display:inline;fill:#f9f9f9;stroke:#ffffff;stroke-width:0;stroke-linecap:round;stroke-linejoin:round;paint-order:stroke fill markers"
       transform="scale(0.99453271,1.0054973)"
       aria-label="D"
       inkscape:label="D" /><path
       d="m 53.45496,204.57376 v -27.44908 h 18.843519 v 3.23921 H 56.90368 v 8.40698 h 14.417069 v 3.22049 H 56.90368 v 9.34318 h 15.999214 v 3.23922 z"
       id="text21"
       style="font-size:38.0746px;line-height:1.3;font-family:Arial;-inkscape-font-specification:Arial;text-align:center;text-anchor:middle;display:inline;fill:#f9f9f9;stroke:#ffffff;stroke-width:0;stroke-linecap:round;stroke-linejoin:round;paint-order:stroke fill markers"
       inkscape:label="E"
       aria-label="E" /><path
       d="M 53.323265,204.96349 V 177.4621 h 18.553118 v 3.24539 h -14.91378 v 8.5168 H 69.86912 v 3.24539 H 56.962603 v 12.49381 z"
       id="text22"
       style="font-size:38.4194px;line-height:1.3;font-family:Arial;-inkscape-font-specification:Arial;text-align:center;text-anchor:middle;display:inline;fill:#f9f9f9;stroke:#ffffff;stroke-width:0;stroke-linecap:round;stroke-linejoin:round;paint-order:stroke fill markers"
       inkscape:label="F"
       transform="scale(1.001905,0.99809858)"
       aria-label="F" /><path
       d="m 67.558976,184.22393 v -2.9801 l 10.759521,-0.0173 v 9.42541 q -2.477635,1.97518 -5.111206,2.98009 -2.63357,0.98759 -5.40575,0.98759 -3.742442,0 -6.809166,-1.594 -3.049397,-1.61133 -4.608748,-4.6434 -1.559351,-3.03208 -1.559351,-6.77452 0,-3.70779 1.542025,-6.91312 1.559351,-3.22266 4.470139,-4.78201 2.910789,-1.55935 6.705209,-1.55935 2.754854,0 4.972598,0.90096 2.235069,0.88363 3.499876,2.47763 1.264807,1.59401 1.9232,4.15827 l -3.032072,0.83166 q -0.571762,-1.94053 -1.420742,-3.0494 -0.84898,-1.10887 -2.425657,-1.76727 -1.576677,-0.67571 -3.499876,-0.67571 -2.304375,0 -3.985008,0.71037 -1.680634,0.69304 -2.720202,1.83657 -1.022241,1.14352 -1.594003,2.51228 -0.970263,2.35636 -0.970263,5.11121 0,3.39592 1.16085,5.68297 1.178177,2.28705 3.413247,3.39592 2.235069,1.10887 4.747357,1.10887 2.183091,0 4.262226,-0.83166 2.079135,-0.84898 3.153354,-1.80191 v -4.73003 z"
       id="text23"
       style="font-size:35.4839px;line-height:1.3;font-family:Arial;-inkscape-font-specification:Arial;text-align:center;text-anchor:middle;display:inline;fill:#f9f9f9;stroke:#ffffff;stroke-width:0;stroke-linecap:round;stroke-linejoin:round;paint-order:stroke fill markers"
       inkscape:label="G"
       transform="scale(0.95094163,1.0515893)"
       aria-label="G" /><path
       d="m 55.773214,195.38188 v -26.2157 h 3.469199 v 10.76525 h 13.626442 v -10.76525 h 3.469199 v 26.2157 H 72.868855 V 183.02509 H 59.242413 v 12.35679 z"
       id="text24"
       style="font-size:36.6233px;line-height:1.3;font-family:Arial;-inkscape-font-specification:Arial;text-align:center;text-anchor:middle;display:inline;fill:#f9f9f9;stroke:#ffffff;stroke-width:0;stroke-linecap:round;stroke-linejoin:round;paint-order:stroke fill markers"
       transform="scale(0.95506816,1.0470457)"
       aria-label="H"
       inkscape:label="H" /><path
       d="m 61.398431,204.57376 v -27.44913 h 3.632423 v 27.44913 z"
       id="text25"
       style="font-size:38.3464px;line-height:1.3;font-family:Arial;-inkscape-font-specification:Arial;text-align:center;text-anchor:middle;display:inline;fill:#f9f9f9;stroke:#ffffff;stroke-width:0;stroke-linecap:round;stroke-linejoin:round;paint-order:stroke fill markers"
       aria-label="I"
       inkscape:label="I" /><path
       d="m 55.433557,196.34039 3.202629,-0.43922 q 0.128105,3.07452 1.152946,4.20917 1.024841,1.13464 2.836613,1.13464 1.335954,0 2.305893,-0.60392 0.969938,-0.62223 1.335953,-1.66537 0.366015,-1.06144 0.366015,-3.36733 v -18.48374 h 3.550342 v 18.28243 q 0,3.36733 -0.823533,5.21571 -0.805232,1.84837 -2.580403,2.81831 -1.756871,0.96994 -4.135966,0.96994 -3.532041,0 -5.417017,-2.03138 -1.866675,-2.03138 -1.793472,-6.03924 z"
       id="text26"
       style="font-size:37.4799px;line-height:1.3;font-family:Arial;-inkscape-font-specification:Arial;text-align:center;text-anchor:middle;display:inline;fill:#f9f9f9;stroke:#ffffff;stroke-width:0;stroke-linecap:round;stroke-linejoin:round;paint-order:stroke fill markers"
       aria-label="J"
       inkscape:label="J" /><path
       d="m 55.139084,197.72864 v -26.5306 h 3.51087 v 13.15672 l 13.17481,-13.15672 h 4.759581 l -11.129819,10.74978 11.618445,15.78082 h -4.6329 l -9.446773,-13.42817 -4.343344,4.23476 v 9.19341 z"
       id="text27"
       style="font-size:37.0632px;line-height:1.3;font-family:Arial;-inkscape-font-specification:Arial;text-align:center;text-anchor:middle;display:inline;fill:#f9f9f9;stroke:#ffffff;stroke-width:0;stroke-linecap:round;stroke-linejoin:round;paint-order:stroke fill markers"
       transform="scale(0.96653964,1.0346187)"
       aria-label="K"
       inkscape:label="K" /><path
       d="m 54.116332,204.57376 v -27.44913 h 3.632422 v 24.20991 h 13.518605 v 3.23922 z"
       id="text28"
       style="font-size:38.3464px;line-height:1.3;font-family:Arial;-inkscape-font-specification:Arial;text-align:center;text-anchor:middle;display:inline;fill:#f9f9f9;stroke:#ffffff;stroke-width:0;stroke-linecap:round;stroke-linejoin:round;paint-order:stroke fill markers"
       aria-label="L"
       inkscape:label="L" /><path
       d="m 57.722711,187.05569 v -25.02085 h 4.98369 l 5.922399,17.71599 q 0.819237,2.47478 1.194721,3.70364 0.426685,-1.3654 1.331259,-4.01085 l 5.990669,-17.40878 h 4.4546 v 25.02085 h -3.19161 v -20.94173 l -7.270726,20.94173 h -2.986801 l -7.236591,-21.30015 v 21.30015 z"
       id="text29"
       style="font-size:34.9541px;line-height:1.3;font-family:Arial;-inkscape-font-specification:Arial;text-align:center;text-anchor:middle;display:inline;fill:#f9f9f9;stroke:#ffffff;stroke-width:0;stroke-linecap:round;stroke-linejoin:round;paint-order:stroke fill markers"
       transform="scale(0.91532152,1.0925123)"
       aria-label="M"
       inkscape:label="M" /><path
       d="m 54.508989,199.80981 v -26.8099 h 3.639271 l 14.081601,21.04925 v -21.04925 h 3.401529 v 26.8099 h -3.639271 l -14.0816,-21.06753 v 21.06753 z"
       id="text30"
       style="font-size:37.4534px;line-height:1.3;font-family:Arial;-inkscape-font-specification:Arial;text-align:center;text-anchor:middle;display:inline;fill:#f9f9f9;stroke:#ffffff;stroke-width:0;stroke-linecap:round;stroke-linejoin:round;paint-order:stroke fill markers"
       inkscape:label="N"
       transform="scale(0.97671279,1.0238424)"
       aria-label="N" /><path
       d="m 54.107302,183.20354 q 0,-6.38301 3.427589,-9.98547 3.427588,-3.61995 8.848773,-3.61995 3.550003,0 6.400497,1.6963 2.850494,1.69631 4.336948,4.73917 1.503942,3.02537 1.503942,6.87266 0,3.89976 -1.573892,6.97759 -1.573893,3.07784 -4.459363,4.66922 -2.885469,1.57389 -6.225619,1.57389 -3.619953,0 -6.470448,-1.74877 -2.850494,-1.74877 -4.31946,-4.77414 -1.468967,-3.02537 -1.468967,-6.4005 z m 3.497539,0.0525 q 0,4.63424 2.483253,7.30985 2.500741,2.65813 6.260595,2.65813 3.829805,0 6.29557,-2.6931 2.483253,-2.69311 2.483253,-7.64212 0,-3.1303 -1.066749,-5.45617 -1.049262,-2.34335 -3.095322,-3.61995 -2.028573,-1.29409 -4.564289,-1.29409 -3.602465,0 -6.208132,2.48325 -2.588179,2.46577 -2.588179,8.2542 z"
       id="text31"
       style="font-size:35.8148px;line-height:1.3;font-family:Arial;-inkscape-font-specification:Arial;text-align:center;text-anchor:middle;display:inline;fill:#f9f9f9;stroke:#ffffff;stroke-width:0;stroke-linecap:round;stroke-linejoin:round;paint-order:stroke fill markers"
       inkscape:label="O"
       transform="scale(0.95830668,1.0435073)"
       aria-label="O"
       sodipodi:insensitive="true" /><path
       d="m 55.359107,198.40581 v -26.62157 h 10.042108 q 2.651261,0 4.049529,0.25423 1.961208,0.32686 3.286839,1.25299 1.32563,0.90797 2.124641,2.56046 0.817169,1.6525 0.817169,3.63187 0,3.39579 -2.160959,5.75651 -2.16096,2.34255 -7.808511,2.34255 h -6.827906 v 10.82296 z m 3.52291,-13.96452 h 6.882384 q 3.413954,0 4.84854,-1.27116 1.434587,-1.27115 1.434587,-3.57738 0,-1.67066 -0.853488,-2.85102 -0.835329,-1.19851 -2.215438,-1.57986 -0.889807,-0.23607 -3.286838,-0.23607 h -6.809747 z"
       id="text32"
       style="font-size:37.1903px;line-height:1.3;font-family:Arial;-inkscape-font-specification:Arial;text-align:center;text-anchor:middle;display:inline;fill:#f9f9f9;stroke:#ffffff;stroke-width:0;stroke-linecap:round;stroke-linejoin:round;paint-order:stroke fill markers"
       transform="scale(0.9698498,1.0310875)"
       aria-label="P"
       inkscape:label="P" /><path
       style="font-size:34.2708px;line-height:1.3;font-family:Helvetica;-inkscape-font-specification:Helvetica;text-align:center;text-anchor:middle;display:inline;fill:#f9f9f9;stroke:#ffffff;stroke-width:0;stroke-linecap:round;stroke-linejoin:round;paint-order:stroke fill markers"
       d="m 73.770237,202.68298 -1.538173,2.08498 -3.49165,-2.981 q -1.261301,0.77541 -2.737946,1.24065 -1.461264,0.46524 -3.199398,0.46524 -5.260548,0 -8.244602,-3.8598 -2.630274,-3.75641 -2.630274,-9.40826 0,-5.13492 2.276494,-8.78794 2.922527,-4.6869 8.644527,-4.6869 5.98349,0 8.859871,4.30782 2.245732,3.36009 2.245732,8.59839 0,2.44684 -0.538361,4.70413 -0.815231,3.44625 -2.753327,5.61739 z m -10.598006,-2.25729 q 0.953667,0 1.784279,-0.13785 0.830614,-0.15508 1.445883,-0.58586 l -2.476457,-2.17114 1.538172,-2.11945 2.95329,2.56746 q 1.399736,-1.79204 1.891951,-4.01487 0.507597,-2.22284 0.507597,-4.25613 0,-4.46289 -2.091914,-7.18543 -2.076532,-2.72254 -5.691236,-2.72254 -3.660849,0 -5.798909,2.61916 -2.138059,2.60191 -2.138059,8.02975 0,4.56629 2.045769,7.27159 2.06115,2.70531 6.029634,2.70531 z"
       id="text33"
       aria-label="Q"
       inkscape:label="Q" /><path
       style="font-size:35.5395px;line-height:1.3;font-family:Arial;-inkscape-font-specification:Arial;text-align:center;text-anchor:middle;display:inline;fill:#f9f9f9;stroke:#ffffff;stroke-width:0;stroke-linecap:round;stroke-linejoin:round;paint-order:stroke fill markers"
       d="m 57.946224,189.91556 v -25.4399 h 11.279627 q 3.401241,0 5.171275,0.69413 1.770034,0.67678 2.828584,2.41211 1.058549,1.73532 1.058549,3.83507 0,2.70711 -1.75268,4.56391 -1.752681,1.8568 -5.414221,2.36005 1.336202,0.64207 2.030333,1.26678 1.475028,1.35356 2.793876,3.38389 l 4.425085,6.92396 h -4.234199 l -3.366534,-5.29275 q -1.475029,-2.29063 -2.429458,-3.50536 -0.95443,-1.21473 -1.717974,-1.70062 -0.746191,-0.48589 -1.527088,-0.67678 -0.572658,-0.12147 -1.874154,-0.12147 h -3.904486 v 11.29698 z m 3.366535,-14.21233 h 7.236315 q 2.307985,0 3.60948,-0.46854 1.301495,-0.48589 1.978273,-1.52709 0.676778,-1.05855 0.676778,-2.29063 0,-1.80474 -1.318849,-2.96741 -1.301495,-1.16267 -4.130079,-1.16267 h -8.051918 z"
       id="text34"
       inkscape:label="R"
       transform="scale(0.92834772,1.0771826)"
       aria-label="R" /><path
       d="m 53.46268,195.45538 3.304195,-0.28889 q 0.234724,1.98613 1.083343,3.26809 0.866674,1.2639 2.672245,2.05835 1.805572,0.77639 4.062536,0.77639 2.004184,0 3.538919,-0.59583 1.534736,-0.59584 2.27502,-1.62502 0.75834,-1.04723 0.75834,-2.27502 0,-1.24584 -0.722228,-2.16668 -0.722229,-0.9389 -2.383354,-1.57085 -1.065287,-0.41528 -4.712541,-1.28196 -3.647254,-0.88473 -5.109767,-1.66112 -1.89585,-0.99307 -2.834747,-2.45558 -0.920841,-1.48057 -0.920841,-3.30419 0,-2.00419 1.13751,-3.73754 1.137509,-1.7514 3.322251,-2.65419 2.184741,-0.90278 4.856986,-0.90278 2.943082,0 5.18199,0.95695 2.256964,0.9389 3.466697,2.78058 1.209733,1.84168 1.300011,4.17087 l -3.358362,0.25278 q -0.270836,-2.50974 -1.841683,-3.7917 -1.552791,-1.28196 -4.604207,-1.28196 -3.177805,0 -4.640318,1.17363 -1.444457,1.15556 -1.444457,2.79863 0,1.4264 1.029176,2.34724 1.011119,0.92085 5.272268,1.89585 4.279204,0.95696 5.868106,1.67918 2.311132,1.06529 3.41253,2.70836 1.101399,1.62502 1.101399,3.75559 0,2.11252 -1.209733,3.99031 -1.209733,1.85974 -3.484753,2.90697 -2.256964,1.02918 -5.091711,1.02918 -3.593087,0 -6.030608,-1.04723 -2.419465,-1.04723 -3.809755,-3.1417 -1.372234,-2.11252 -1.444457,-4.76671 z"
       id="text35"
       style="font-size:36.9781px;line-height:1.3;font-family:Arial;-inkscape-font-specification:Arial;text-align:center;text-anchor:middle;display:inline;fill:#f9f9f9;stroke:#ffffff;stroke-width:0;stroke-linecap:round;stroke-linejoin:round;paint-order:stroke fill markers"
       aria-label="S"
       inkscape:label="S" /><path
       d="m 63.63316,198.63748 v -23.50741 h -8.78119 v -3.14523 h 21.125762 v 3.14523 h -8.817551 v 23.50741 z"
       id="text36"
       style="font-size:37.2337px;line-height:1.3;font-family:Arial;-inkscape-font-specification:Arial;text-align:center;text-anchor:middle;display:inline;fill:#f9f9f9;stroke:#ffffff;stroke-width:0;stroke-linecap:round;stroke-linejoin:round;paint-order:stroke fill markers"
       inkscape:label="T"
       transform="scale(0.97098219,1.029885)"
       aria-label="T" /><path
       d="m 70.073104,177.12464 h 3.401826 v 15.58361 q 0,4.06608 -0.876759,6.4579 -0.876759,2.39181 -3.17387,3.9005 -2.279575,1.49028 -5.997035,1.49028 -3.612249,0 -5.90936,-1.3063 -2.297109,-1.30629 -3.27908,-3.77171 -0.981971,-2.4838 -0.981971,-6.77067 v -15.58361 h 3.401828 v 15.56521 q 0,3.51413 0.613731,5.1884 0.631267,1.65587 2.139293,2.5574 1.525562,0.90153 3.71746,0.90153 3.752531,0 5.348234,-1.78466 1.595703,-1.78466 1.595703,-6.86267 z"
       id="text37"
       style="font-size:37.6803px;line-height:1.3;font-family:Arial;-inkscape-font-specification:Arial;text-align:center;text-anchor:middle;display:inline;fill:#f9f9f9;stroke:#ffffff;stroke-width:0;stroke-linecap:round;stroke-linejoin:round;paint-order:stroke fill markers"
       aria-label="U"
       inkscape:label="U" /><path
       style="font-size:36.9039px;line-height:1.3;font-family:Helvetica;-inkscape-font-specification:Helvetica;text-align:center;text-anchor:middle;fill:#f9f9f9;stroke:#ffffff;stroke-width:0;stroke-linecap:round;stroke-linejoin:round;paint-order:stroke fill markers"
       d="m 56.673309,177.0684 7.318167,23.42352 7.231459,-23.42352 h 3.867183 l -9.295112,27.50531 H 62.135922 L 52.858151,177.0684 Z"
       id="text38"
       inkscape:label="V"
       aria-label="V" /></g></svg>
