<?xml version="1.0" encoding="UTF-8" standalone="no"?>
<!-- Created with Inkscape (http://www.inkscape.org/) -->

<svg
   width="210mm"
   height="297mm"
   viewBox="0 0 210 297"
   version="1.1"
   id="svg1"
   xml:space="preserve"
   sodipodi:docname="BuildingSignB.svg"
   inkscape:version="1.4 (e7c3feb1, 2024-10-09)"
   xmlns:inkscape="http://www.inkscape.org/namespaces/inkscape"
   xmlns:sodipodi="http://sodipodi.sourceforge.net/DTD/sodipodi-0.dtd"
   xmlns="http://www.w3.org/2000/svg"
   xmlns:svg="http://www.w3.org/2000/svg"><sodipodi:namedview
     id="namedview1"
     pagecolor="#ffffff"
     bordercolor="#000000"
     borderopacity="0.25"
     inkscape:showpageshadow="2"
     inkscape:pageopacity="0.0"
     inkscape:pagecheckerboard="0"
     inkscape:deskcolor="#d1d1d1"
     inkscape:document-units="mm"
     inkscape:zoom="1.0631251"
     inkscape:cx="266.19633"
     inkscape:cy="738.85943"
     inkscape:window-width="1336"
     inkscape:window-height="944"
     inkscape:window-x="155"
     inkscape:window-y="85"
     inkscape:window-maximized="0"
     inkscape:current-layer="layer1" /><defs
     id="defs1" /><g
     inkscape:label="Layer 1"
     inkscape:groupmode="layer"
     id="layer1"><rect
       style="fill:#008073;fill-opacity:1;stroke:#ffffff;stroke-width:0;stroke-linecap:round;stroke-linejoin:round;stroke-dasharray:none;paint-order:stroke fill markers"
       id="rect11"
       width="48.779526"
       height="35.078388"
       x="48.081287"
       y="173.3923" /><path
       id="path3"
       style="fill:#ffffff;stroke-linecap:round;stroke-linejoin:round;paint-order:stroke fill markers"
       d="M 81.078255 188.88666 A 0.60000002 0.60000002 0 0 0 80.478292 189.48611 L 80.478292 192.42753 L 78.626725 192.42753 A 0.60000002 0.60000002 0 0 0 78.027279 193.02749 A 0.60000002 0.60000002 0 0 0 78.626725 193.62694 L 80.478292 193.62694 L 80.478292 197.04534 L 77.92961 199.5935 A 0.60000002 0.60000002 0 0 0 77.92961 200.44151 A 0.60000002 0.60000002 0 0 0 78.779171 200.44151 L 80.478292 198.74394 L 80.478292 201.74789 L 79.755855 202.87134 A 0.60000002 0.60000002 0 0 0 79.937756 203.70126 A 0.60000002 0.60000002 0 0 0 80.765613 203.51936 L 81.584167 202.25019 A 0.60006002 0.60006002 0 0 0 81.677702 201.92359 L 81.677702 198.2463 L 82.908118 198.83386 A 0.60000002 0.60000002 0 0 0 83.709102 198.55274 A 0.60000002 0.60000002 0 0 0 83.425916 197.75175 L 81.677702 196.91615 L 81.677702 193.62694 L 82.984599 193.62694 A 0.60000002 0.60000002 0 0 0 83.586112 193.02749 A 0.60000002 0.60000002 0 0 0 82.984599 192.42753 L 81.677702 192.42753 L 81.677702 189.48611 A 0.60000002 0.60000002 0 0 0 81.078255 188.88666 z " /><path
       id="path6"
       style="fill:#ffffff;stroke-linecap:round;stroke-linejoin:round;paint-order:stroke fill markers"
       d="M 87.343506 188.43139 A 0.60000002 0.60000002 0 0 0 86.744059 189.03136 L 86.744059 190.88292 L 84.165922 190.88292 A 0.60000002 0.60000002 0 0 0 83.566475 191.48444 A 0.60000002 0.60000002 0 0 0 84.165922 192.08388 L 86.744059 192.08388 L 86.744059 193.42592 L 84.43774 193.42592 A 0.60006002 0.60006002 0 0 0 83.837777 194.02537 L 83.837777 198.65609 A 0.60006002 0.60006002 0 0 0 84.43774 199.25605 L 86.744059 199.25605 L 86.744059 199.69996 L 82.738102 202.42795 A 0.60000002 0.60000002 0 0 0 82.579972 203.26149 A 0.60000002 0.60000002 0 0 0 83.41403 203.42014 L 86.744059 201.15155 L 86.744059 204.0139 A 0.60000002 0.60000002 0 0 0 87.343506 204.61335 A 0.60000002 0.60000002 0 0 0 87.943469 204.0139 L 87.943469 201.20219 L 91.074028 203.49817 A 0.60000002 0.60000002 0 0 0 91.912219 203.36898 A 0.60000002 0.60000002 0 0 0 91.783028 202.53131 L 87.943469 199.71546 L 87.943469 199.25605 L 90.158321 199.25605 A 0.60006002 0.60006002 0 0 0 90.757768 198.65609 L 90.757768 194.02537 A 0.60006002 0.60006002 0 0 0 90.158321 193.42592 L 87.943469 193.42592 L 87.943469 192.08388 L 90.974809 192.08388 A 0.60000002 0.60000002 0 0 0 91.574255 191.48444 A 0.60000002 0.60000002 0 0 0 90.974809 190.88292 L 87.943469 190.88292 L 87.943469 189.03136 A 0.60000002 0.60000002 0 0 0 87.343506 188.43139 z M 85.037187 194.62481 L 86.744059 194.62481 L 86.744059 195.73999 L 85.037187 195.73999 L 85.037187 194.62481 z M 87.943469 194.62481 L 89.558358 194.62481 L 89.558358 195.73999 L 87.943469 195.73999 L 87.943469 194.62481 z M 85.037187 196.94147 L 86.744059 196.94147 L 86.744059 198.05664 L 85.037187 198.05664 L 85.037187 196.94147 z M 87.943469 196.94147 L 89.558358 196.94147 L 89.558358 198.05664 L 87.943469 198.05664 L 87.943469 196.94147 z " /><path
       d="m 53.207163,204.37604 v -27.25143 h 10.223931 q 3.122946,0 5.000432,0.83651 1.896075,0.81791 2.955646,2.54669 1.07816,1.71018 1.07816,3.58767 0,1.74736 -0.948038,3.29024 -0.948037,1.54289 -2.8627,2.49092 2.472332,0.72497 3.792149,2.47234 1.338405,1.74736 1.338405,4.12675 0,1.91466 -0.817914,3.56908 -0.799326,1.63583 -1.98902,2.5281 -1.189694,0.89227 -2.992823,1.35699 -1.784541,0.44614 -4.386996,0.44614 z m 3.606259,-15.80062 h 5.892703 q 2.397976,0 3.438958,-0.31602 1.375584,-0.40895 2.063375,-1.35699 0.706381,-0.94804 0.706381,-2.37939 0,-1.35699 -0.650614,-2.37939 -0.650613,-1.04098 -1.858896,-1.41276 -1.208283,-0.39037 -4.14534,-0.39037 h -5.446567 z m 0,12.58473 h 6.784973 q 1.747363,0 2.453743,-0.13013 1.245461,-0.22306 2.081965,-0.74355 0.836503,-0.5205 1.375583,-1.50571 0.53908,-1.00381 0.53908,-2.30503 0,-1.5243 -0.780737,-2.63964 -0.780736,-1.13392 -2.174909,-1.58006 -1.375583,-0.46472 -3.978038,-0.46472 h -6.30166 z"
       id="text17"
       style="font-size:38.0702px;line-height:1.3;font-family:Arial;-inkscape-font-specification:Arial;text-align:center;text-anchor:middle;fill:#f9f9f9;stroke:#ffffff;stroke-width:0;stroke-linecap:round;stroke-linejoin:round;paint-order:stroke fill markers"
       aria-label="B" /></g></svg>
