<?xml version="1.0" encoding="UTF-8" standalone="no"?>
<!-- Created with Inkscape (http://www.inkscape.org/) -->

<svg
   width="175.41875mm"
   height="102.65833mm"
   viewBox="0 0 175.41875 102.65833"
   version="1.1"
   id="svg1"
   xml:space="preserve"
   sodipodi:docname="FootballPitch.svg"
   xmlns:inkscape="http://www.inkscape.org/namespaces/inkscape"
   xmlns:sodipodi="http://sodipodi.sourceforge.net/DTD/sodipodi-0.dtd"
   xmlns="http://www.w3.org/2000/svg"
   xmlns:svg="http://www.w3.org/2000/svg"><sodipodi:namedview
     id="namedview1"
     pagecolor="#ffffff"
     bordercolor="#000000"
     borderopacity="0.25"
     inkscape:showpageshadow="2"
     inkscape:pageopacity="0.0"
     inkscape:pagecheckerboard="0"
     inkscape:deskcolor="#d1d1d1"
     inkscape:document-units="mm"
     inkscape:zoom="0.46698458"
     inkscape:cx="328.70464"
     inkscape:cy="505.37"
     inkscape:window-width="1464"
     inkscape:window-height="727"
     inkscape:window-x="0"
     inkscape:window-y="25"
     inkscape:window-maximized="0"
     inkscape:current-layer="layer1" /><defs
     id="defs1" /><path
     id="path1"
     style="fill:#ffffff;stroke-linecap:round;stroke-linejoin:round;paint-order:stroke fill markers"
     d="M 272.14845 262.52922 L 194.32736 262.71215 A 0.30000049 0.30000049 0 0 0 194.32426 262.71112 A 0.30000049 0.30000049 0 0 0 194.32323 262.71215 L 114.12089 262.90025 A 0.30003001 0.30003001 0 0 0 113.8222 263.19946 L 113.8222 266.8752 L 113.8222 281.7482 L 113.8222 293.98828 L 113.8222 317.7305 L 113.8222 329.60161 L 113.8222 344.4746 L 113.8222 348.14828 A 0.30003001 0.30003001 0 0 0 114.12089 348.44904 L 117.79663 348.44904 L 194.32426 348.44904 L 268.47478 348.44904 L 272.15052 348.44904 A 0.30003001 0.30003001 0 0 0 272.44921 348.14828 L 272.44921 344.4746 L 272.44921 329.60161 L 272.44921 317.7305 L 272.44921 293.98828 L 272.44921 281.7482 L 272.44921 266.8752 L 272.44921 262.82791 A 0.30003001 0.30003001 0 0 0 272.14845 262.52922 z M 271.84976 263.12866 L 271.84976 266.56049 C 270.12392 266.40884 268.77553 264.96546 268.77553 263.19946 A 0.30000049 0.30000049 0 0 0 268.76261 263.1359 L 271.84976 263.12866 z M 268.18797 263.13745 A 0.30000049 0.30000049 0 0 0 268.17557 263.19946 C 268.17557 265.2899 269.79814 267.00718 271.84976 267.16149 L 271.84976 281.44744 L 245.44156 281.44744 A 0.30003049 0.30003049 0 0 0 245.1408 281.7482 L 245.1408 294.57635 C 242.30095 297.4162 240.54315 301.34166 240.54315 305.67387 C 240.54315 310.00607 242.30095 313.93153 245.1408 316.77138 L 245.1408 329.60161 A 0.30003049 0.30003049 0 0 0 245.44156 329.9003 L 271.84976 329.9003 L 271.84976 344.18625 C 269.8969 344.33313 268.33398 345.89648 268.18797 347.84959 L 194.62502 347.84959 L 194.62502 322.10336 C 203.15022 321.94225 210.01943 314.97946 210.01943 306.41594 C 210.01943 297.85241 203.15022 290.88963 194.62502 290.72853 L 194.62502 263.31108 L 268.18797 263.13745 z M 194.02557 263.31211 L 194.02557 290.72801 C 185.49945 290.88802 178.63065 297.85171 178.63065 306.41594 C 178.63065 314.98016 185.49945 321.94386 194.02557 322.10387 L 194.02557 347.84959 L 118.08344 347.84959 C 117.93742 345.89639 116.37464 344.33301 114.42165 344.18625 L 114.42165 329.9003 L 140.82985 329.9003 A 0.30003049 0.30003049 0 0 0 141.13061 329.60161 L 141.13061 316.5869 C 143.86537 313.76244 145.55256 309.9145 145.55256 305.67387 C 145.55256 301.43314 143.86548 297.5848 141.13061 294.76032 L 141.13061 281.7482 A 0.30003049 0.30003049 0 0 0 140.82985 281.44744 L 114.42165 281.44744 L 114.42165 267.16149 C 116.37689 267.01456 117.94103 265.44776 118.08396 263.49143 L 194.02557 263.31211 z M 117.48296 263.49298 C 117.34298 265.12287 116.05061 266.41735 114.42165 266.56049 L 114.42165 263.50022 L 117.48296 263.49298 z M 114.42165 282.04689 L 140.53116 282.04689 L 140.53116 294.57635 A 0.30000049 0.30000049 0 0 0 140.53116 295.0001 L 140.53116 316.34764 A 0.30000049 0.30000049 0 0 0 140.53116 316.77138 L 140.53116 329.30085 L 114.42165 329.30085 L 114.42165 318.03125 L 121.54111 318.03125 A 0.30003049 0.30003049 0 0 0 121.84187 317.7305 L 121.84187 293.98828 A 0.30003049 0.30003049 0 0 0 121.54111 293.68959 L 114.42165 293.68959 L 114.42165 282.04689 z M 245.74025 282.04689 L 271.84976 282.04689 L 271.84976 293.68959 L 264.7303 293.68959 A 0.30003049 0.30003049 0 0 0 264.42955 293.98828 L 264.42955 317.7305 A 0.30003049 0.30003049 0 0 0 264.7303 318.03125 L 271.84976 318.03125 L 271.84976 329.30085 L 245.74025 329.30085 L 245.74025 282.04689 z M 194.02557 291.33004 L 194.02557 305.83458 C 193.82582 305.94368 193.68761 306.1569 193.68761 306.39631 C 193.68761 306.63572 193.82581 306.84848 194.02557 306.95699 L 194.02557 321.50391 C 185.82397 321.34433 179.23061 314.65592 179.23061 306.41594 C 179.23061 298.17596 185.82397 291.48958 194.02557 291.33004 z M 194.62502 291.33004 C 202.82571 291.49066 209.41998 298.17665 209.41998 306.41594 C 209.41998 314.65523 202.82571 321.34324 194.62502 321.50391 L 194.62502 306.95596 C 194.82448 306.84717 194.96298 306.63507 194.96298 306.39631 C 194.96298 306.15755 194.82448 305.94498 194.62502 305.83562 L 194.62502 291.33004 z M 114.42165 294.28903 L 121.24035 294.28903 L 121.24035 317.42974 L 114.42165 317.42974 L 114.42165 294.28903 z M 265.03106 294.28903 L 271.84976 294.28903 L 271.84976 317.42974 L 265.03106 317.42974 L 265.03106 294.28903 z M 245.1408 295.44452 L 245.1408 315.90322 C 242.65998 313.21339 241.14259 309.62291 241.14259 305.67387 C 241.14259 301.72482 242.65998 298.13435 245.1408 295.44452 z M 141.13061 295.63934 C 143.50678 298.30666 144.95312 301.81921 144.95312 305.67387 C 144.95312 309.52852 143.50678 313.04107 141.13061 315.7084 L 141.13061 295.63934 z M 114.42165 344.78724 C 116.04902 344.93024 117.34034 346.22196 117.48244 347.84959 L 114.42165 347.84959 L 114.42165 344.78724 z M 271.84976 344.78724 L 271.84976 347.84959 L 268.78897 347.84959 C 268.93107 346.22196 270.2224 344.93024 271.84976 344.78724 z "
     transform="translate(-105,-148.5)" /><path
     id="path16"
     style="fill:#ffffff;stroke-linecap:round;stroke-linejoin:round;paint-order:stroke fill markers"
     d="M -131.78338 305.95912 C -131.54595 305.95912 -131.34775 306.15888 -131.34775 306.39631 C -131.34775 306.63375 -131.54595 306.83194 -131.78338 306.83194 C -132.02082 306.83194 -132.21849 306.63375 -132.21849 306.39631 C -132.21849 306.15888 -132.02082 305.95912 -131.78338 305.95912 z M -254.48803 305.95912 C -254.2506 305.95912 -254.05292 306.15888 -254.05292 306.39631 C -254.05292 306.63375 -254.2506 306.83194 -254.48803 306.83194 C -254.72547 306.83194 -254.92573 306.63375 -254.92573 306.39631 C -254.92573 306.15888 -254.72547 305.95912 -254.48803 305.95912 z "
     transform="matrix(-1,0,0,1,-105,-148.5)" /><g
     inkscape:label="Layer 1"
     inkscape:groupmode="layer"
     id="layer1"
     transform="translate(-105,-148.5)"><g
       id="path6" /><g
       id="circle10"
       transform="scale(-1,1)" /></g></svg>
