<?xml version="1.0" encoding="UTF-8" standalone="no"?>
<!-- Created with Inkscape (http://www.inkscape.org/) -->

<svg
   width="175.41875mm"
   height="102.65833mm"
   viewBox="0 0 175.41875 102.65833"
   version="1.1"
   id="svg1"
   xml:space="preserve"
   inkscape:version="1.4 (e7c3feb1, 2024-10-09)"
   sodipodi:docname="FootballPitch.svg"
   xmlns:inkscape="http://www.inkscape.org/namespaces/inkscape"
   xmlns:sodipodi="http://sodipodi.sourceforge.net/DTD/sodipodi-0.dtd"
   xmlns="http://www.w3.org/2000/svg"
   xmlns:svg="http://www.w3.org/2000/svg"><sodipodi:namedview
     id="namedview1"
     pagecolor="#ffffff"
     bordercolor="#000000"
     borderopacity="0.25"
     inkscape:showpageshadow="2"
     inkscape:pageopacity="0.0"
     inkscape:pagecheckerboard="0"
     inkscape:deskcolor="#d1d1d1"
     inkscape:document-units="mm"
     inkscape:zoom="0.46698458"
     inkscape:cx="328.70464"
     inkscape:cy="505.37"
     inkscape:window-width="1464"
     inkscape:window-height="727"
     inkscape:window-x="0"
     inkscape:window-y="25"
     inkscape:window-maximized="0"
     inkscape:current-layer="layer1" /><defs
     id="defs1" /><g
     inkscape:label="Layer 1"
     inkscape:groupmode="layer"
     id="layer1"
     transform="translate(-105,-148.5)"><path
       id="path1"
       style="fill:#ffffff;stroke-linecap:round;stroke-linejoin:round;paint-order:stroke fill markers"
       d="m 270.83225,157.42604 -77.82109,0.18293 a 0.30000049,0.30000049 0 0 0 -0.003,-0.001 0.30000049,0.30000049 0 0 0 -0.001,0.001 l -80.20234,0.1881 a 0.30003001,0.30003001 0 0 0 -0.29869,0.29921 v 3.67574 14.873 12.24008 23.74222 11.87111 14.87299 3.67368 a 0.30003001,0.30003001 0 0 0 0.29869,0.30076 h 3.67574 76.52763 77.82626 a 0.30003001,0.30003001 0 0 0 0.29869,-0.30076 V 224.49843 212.62732 188.8851 176.64502 157.72473 a 0.30003001,0.30003001 0 0 0 -0.30076,-0.29869 z m -0.29869,0.59944 v 18.31878 h -26.4082 a 0.30003049,0.30003049 0 0 0 -0.30076,0.30076 v 12.82815 c -2.83985,2.83985 -4.59765,6.76531 -4.59765,11.09752 0,4.3322 1.7578,8.25766 4.59765,11.09751 v 12.83023 a 0.30003049,0.30003049 0 0 0 0.30076,0.29869 h 26.4082 v 17.94929 h -77.22474 v -25.74623 c 8.5252,-0.16111 15.39441,-7.1239 15.39441,-15.68742 0,-8.56353 -6.86921,-15.52631 -15.39441,-15.68741 V 158.2079 Z m -77.82419,0.18345 v 27.4159 c -8.52612,0.16001 -15.39492,7.1237 -15.39492,15.68793 0,8.56422 6.8688,15.52792 15.39492,15.68793 v 25.74572 h -75.94213 c -0.14602,-1.9532 -1.7088,-3.51658 -3.66179,-3.66334 v -14.28595 h 26.4082 a 0.30003049,0.30003049 0 0 0 0.30076,-0.29869 v -13.01471 c 2.73476,-2.82446 4.42195,-6.6724 4.42195,-10.91303 0,-4.24073 -1.68708,-8.08907 -4.42195,-10.91355 v -13.01212 a 0.30003049,0.30003049 0 0 0 -0.30076,-0.30076 h -26.4082 v -14.28595 c 1.95524,-0.14693 3.51938,-1.71373 3.66231,-3.67006 z m -76.54261,0.18087 c -0.13998,1.62989 -1.43235,2.92437 -3.06131,3.06751 v -3.06027 z m -3.06131,18.55391 h 26.10951 v 12.52946 a 0.30000049,0.30000049 0 0 0 0,0.42375 v 21.34754 a 0.30000049,0.30000049 0 0 0 0,0.42374 v 12.52947 h -26.10951 v -11.2696 h 7.11946 a 0.30003049,0.30003049 0 0 0 0.30076,-0.30075 V 188.8851 a 0.30003049,0.30003049 0 0 0 -0.30076,-0.29869 h -7.11946 z m 131.3186,0 h 26.10951 v 11.6427 h -7.11946 a 0.30003049,0.30003049 0 0 0 -0.30075,0.29869 v 23.74222 a 0.30003049,0.30003049 0 0 0 0.30075,0.30075 h 7.11946 v 11.2696 h -26.10951 z m -51.71468,9.28315 v 14.50454 c -0.19975,0.1091 -0.33796,0.32232 -0.33796,0.56173 0,0.23941 0.1382,0.45217 0.33796,0.56068 v 14.54692 c -8.2016,-0.15958 -14.79496,-6.84799 -14.79496,-15.08797 0,-8.23998 6.59336,-14.92636 14.79496,-15.0859 z m 0.59945,0 c 8.20069,0.16062 14.79496,6.84661 14.79496,15.0859 0,8.23929 -6.59427,14.9273 -14.79496,15.08797 v -14.54795 c 0.19946,-0.10879 0.33796,-0.32089 0.33796,-0.55965 0,-0.23876 -0.1385,-0.45133 -0.33796,-0.56069 z m -80.20337,2.95899 h 6.8187 v 23.14071 h -6.8187 z m 150.60941,0 h 6.8187 v 23.14071 h -6.8187 z m -19.89026,1.15549 v 20.4587 c -2.48082,-2.68983 -3.99821,-6.28031 -3.99821,-10.22935 0,-3.94905 1.51739,-7.53952 3.99821,-10.22935 z m -104.01019,0.19482 c 2.37617,2.66732 3.82251,6.17987 3.82251,10.03453 0,3.85465 -1.44634,7.3672 -3.82251,10.03453 z m -26.70896,49.1479 c 1.62737,0.143 2.91869,1.43472 3.06079,3.06235 h -3.06079 z" /><g
       id="path6"><path
         style="fill:#ffffff;stroke-linecap:round;stroke-linejoin:round;paint-order:stroke fill markers"
         d="m 131.7832,305.95898 c -0.23743,0 -0.43554,0.20007 -0.43554,0.4375 0,0.23744 0.19811,0.43555 0.43554,0.43555 0.23744,0 0.43555,-0.19811 0.43555,-0.43555 0,-0.23743 -0.19811,-0.4375 -0.43555,-0.4375 z"
         id="path14"
         sodipodi:nodetypes="sssss" /></g><g
       id="circle10"
       transform="scale(-1,1)"><path
         style="fill:#ffffff;stroke-linecap:round;stroke-linejoin:round;paint-order:stroke fill markers"
         d="m -254.48828,305.95898 c -0.23744,0 -0.4375,0.20007 -0.4375,0.4375 0,0.23744 0.20006,0.43555 0.4375,0.43555 0.23743,0 0.43555,-0.19811 0.43555,-0.43555 0,-0.23743 -0.19812,-0.4375 -0.43555,-0.4375 z"
         id="path16"
         sodipodi:nodetypes="sssss" /></g><path
       style="fill:#ffffff;stroke-linecap:round;stroke-linejoin:round;paint-order:stroke fill markers"
       d="m 268.47461,262.90039 a 0.30000049,0.30000049 0 0 0 -0.29883,0.29883 c 0,2.19168 1.78293,3.97461 3.97461,3.97461 a 0.30000049,0.30000049 0 0 0 0.29883,-0.29883 0.30000049,0.30000049 0 0 0 -0.29883,-0.30078 c -1.86742,0 -3.375,-1.50758 -3.375,-3.375 a 0.30000049,0.30000049 0 0 0 -0.30078,-0.29883 z"
       id="path11" /><path
       style="fill:#ffffff;stroke-linecap:round;stroke-linejoin:round;paint-order:stroke fill markers"
       d="m 272.15039,344.17383 c -2.19168,0 -3.97461,1.78293 -3.97461,3.97461 a 0.30000049,0.30000049 0 0 0 0.29883,0.30078 0.30000049,0.30000049 0 0 0 0.30078,-0.30078 c 0,-1.86742 1.50758,-3.375 3.375,-3.375 a 0.30000049,0.30000049 0 0 0 0.29883,-0.29883 0.30000049,0.30000049 0 0 0 -0.29883,-0.30078 z"
       id="path12" /></g></svg>
