<?xml version="1.0" encoding="UTF-8" standalone="no"?>
<!-- Created with Inkscape (http://www.inkscape.org/) -->

<svg
   width="592.66669mm"
   height="370.41666mm"
   viewBox="0 0 592.66669 370.41666"
   version="1.1"
   id="svg1"
   xml:space="preserve"
   inkscape:version="1.4 (e7c3feb1, 2024-10-09)"
   sodipodi:docname="RoadMarkings3.svg"
   xmlns:inkscape="http://www.inkscape.org/namespaces/inkscape"
   xmlns:sodipodi="http://sodipodi.sourceforge.net/DTD/sodipodi-0.dtd"
   xmlns="http://www.w3.org/2000/svg"
   xmlns:svg="http://www.w3.org/2000/svg"><sodipodi:namedview
     id="namedview1"
     pagecolor="#ffffff"
     bordercolor="#000000"
     borderopacity="0.25"
     inkscape:showpageshadow="2"
     inkscape:pageopacity="0.0"
     inkscape:pagecheckerboard="0"
     inkscape:deskcolor="#d1d1d1"
     inkscape:document-units="mm"
     inkscape:zoom="0.60000024"
     inkscape:cx="724.16638"
     inkscape:cy="751.66636"
     inkscape:window-width="1640"
     inkscape:window-height="855"
     inkscape:window-x="0"
     inkscape:window-y="25"
     inkscape:window-maximized="0"
     inkscape:current-layer="layer1" /><defs
     id="defs1" /><g
     inkscape:label="Layer 1"
     inkscape:groupmode="layer"
     id="layer1"
     transform="translate(209.02084,14.287495)"><path
       id="path2"
       style="fill:#ffffff;stroke-linecap:round;stroke-linejoin:round;paint-order:stroke fill markers"
       d="M -54.07836 114.62505 A 0.3999995 0.3999995 0 0 0 -54.478335 115.02554 L -54.478335 129.61328 A 0.3999995 0.3999995 0 0 0 -54.07836 130.01377 A 0.3999995 0.3999995 0 0 0 -53.677867 129.61328 L -53.677867 115.02554 A 0.3999995 0.3999995 0 0 0 -54.07836 114.62505 z M -46.93771 114.62505 A 0.3999995 0.3999995 0 0 0 -47.337686 115.02554 L -47.337686 129.61328 A 0.3999995 0.3999995 0 0 0 -46.93771 130.01377 A 0.3999995 0.3999995 0 0 0 -46.537218 129.61328 L -46.537218 115.02554 A 0.3999995 0.3999995 0 0 0 -46.93771 114.62505 z M -39.797061 114.62505 A 0.3999995 0.3999995 0 0 0 -40.195486 115.02554 L -40.195486 129.61328 A 0.3999995 0.3999995 0 0 0 -39.797061 130.01377 A 0.3999995 0.3999995 0 0 0 -39.396568 129.61328 L -39.396568 115.02554 A 0.3999995 0.3999995 0 0 0 -39.797061 114.62505 z M -32.654344 114.62505 A 0.3999995 0.3999995 0 0 0 -33.054837 115.02554 L -33.054837 129.61328 A 0.3999995 0.3999995 0 0 0 -32.654344 130.01377 A 0.3999995 0.3999995 0 0 0 -32.255919 129.61328 L -32.255919 115.02554 A 0.3999995 0.3999995 0 0 0 -32.654344 114.62505 z M -25.513695 114.62505 A 0.3999995 0.3999995 0 0 0 -25.914187 115.02554 L -25.914187 129.61328 A 0.3999995 0.3999995 0 0 0 -25.513695 130.01377 A 0.3999995 0.3999995 0 0 0 -25.11527 129.61328 L -25.11527 115.02554 A 0.3999995 0.3999995 0 0 0 -25.513695 114.62505 z M -18.373045 114.62505 A 0.3999995 0.3999995 0 0 0 -18.773538 115.02554 L -18.773538 129.61328 A 0.3999995 0.3999995 0 0 0 -18.373045 130.01377 A 0.3999995 0.3999995 0 0 0 -17.972553 129.61328 L -17.972553 115.02554 A 0.3999995 0.3999995 0 0 0 -18.373045 114.62505 z M -11.232396 114.62505 A 0.3999995 0.3999995 0 0 0 -11.632888 115.02554 L -11.632888 129.61328 A 0.3999995 0.3999995 0 0 0 -11.232396 130.01377 A 0.3999995 0.3999995 0 0 0 -10.831904 129.61328 L -10.831904 115.02554 A 0.3999995 0.3999995 0 0 0 -11.232396 114.62505 z M -4.0917466 114.62505 A 0.3999995 0.3999995 0 0 0 -4.4922389 115.02554 L -4.4922389 129.61328 A 0.3999995 0.3999995 0 0 0 -4.0917466 130.01377 A 0.3999995 0.3999995 0 0 0 -3.6912542 129.61328 L -3.6912542 115.02554 A 0.3999995 0.3999995 0 0 0 -4.0917466 114.62505 z M 3.0489028 114.62505 A 0.3999995 0.3999995 0 0 0 2.6484105 115.02554 L 2.6484105 129.61328 A 0.3999995 0.3999995 0 0 0 3.0489028 130.01377 A 0.3999995 0.3999995 0 0 0 3.4493952 129.61328 L 3.4493952 115.02554 A 0.3999995 0.3999995 0 0 0 3.0489028 114.62505 z M -42.691458 147.88452 A 0.3999995 0.3999995 0 0 0 -43.09195 148.28501 L -43.09195 162.87327 L -43.09195 177.45894 A 0.3999995 0.3999995 0 0 0 -42.691458 177.85943 A 0.3999995 0.3999995 0 0 0 -42.290965 177.45894 L -42.290965 163.27169 L -35.951301 163.27428 L -35.951301 177.45894 A 0.3999995 0.3999995 0 0 0 -35.550808 177.85943 A 0.3999995 0.3999995 0 0 0 -35.150316 177.45894 L -35.150316 163.27479 L -28.810651 163.27738 L -28.810651 177.45894 A 0.3999995 0.3999995 0 0 0 -28.410159 177.85943 A 0.3999995 0.3999995 0 0 0 -28.009666 177.45894 L -28.009666 162.87327 L -28.009666 148.28501 A 0.3999995 0.3999995 0 0 0 -28.410159 147.88452 A 0.3999995 0.3999995 0 0 0 -28.810651 148.28501 L -28.810651 162.47691 L -35.150316 162.47484 L -35.150316 148.28501 A 0.3999995 0.3999995 0 0 0 -35.550808 147.88452 A 0.3999995 0.3999995 0 0 0 -35.951301 148.28501 L -35.951301 162.47484 L -42.290965 162.47278 L -42.290965 148.28501 A 0.3999995 0.3999995 0 0 0 -42.691458 147.88452 z M -10.415908 159.80265 A 0.3999995 0.3999995 0 0 0 -10.814334 160.20315 A 0.3999995 0.3999995 0 0 0 -10.415908 160.60364 L 4.1718317 160.60364 A 0.3999995 0.3999995 0 0 0 4.5723241 160.20315 A 0.3999995 0.3999995 0 0 0 4.1718317 159.80265 L -10.415908 159.80265 z M -10.415908 166.94537 A 0.3999995 0.3999995 0 0 0 -10.814334 167.3438 A 0.3999995 0.3999995 0 0 0 -10.415908 167.74429 L 4.1718317 167.74429 A 0.3999995 0.3999995 0 0 0 4.5723241 167.3438 A 0.3999995 0.3999995 0 0 0 4.1718317 166.94537 L -10.415908 166.94537 z M -63.873111 170.73067 L -78.242259 173.2499 A 0.3999995 0.3999995 0 0 0 -78.566271 173.71292 A 0.3999995 0.3999995 0 0 0 -78.103766 174.03693 L -63.736168 171.51977 A 0.3999995 0.3999995 0 0 0 -63.41009 171.05468 A 0.3999995 0.3999995 0 0 0 -63.873111 170.73067 z M -10.415908 174.08602 A 0.3999995 0.3999995 0 0 0 -10.814334 174.48651 A 0.3999995 0.3999995 0 0 0 -10.415908 174.88494 L 4.1718317 174.88494 A 0.3999995 0.3999995 0 0 0 4.5723241 174.48651 A 0.3999995 0.3999995 0 0 0 4.1718317 174.08602 L -10.415908 174.08602 z M -62.640628 177.76383 L -77.009776 180.28306 A 0.3999995 0.3999995 0 0 0 -77.333788 180.74608 A 0.3999995 0.3999995 0 0 0 -76.871284 181.07009 L -62.502135 178.55293 A 0.3999995 0.3999995 0 0 0 -62.177607 178.08991 A 0.3999995 0.3999995 0 0 0 -62.640628 177.76383 z M -10.415908 181.22667 A 0.3999995 0.3999995 0 0 0 -10.814334 181.62716 A 0.3999995 0.3999995 0 0 0 -10.415908 182.02714 L 4.1718317 182.02714 A 0.3999995 0.3999995 0 0 0 4.5723241 181.62716 A 0.3999995 0.3999995 0 0 0 4.1718317 181.22667 L -10.415908 181.22667 z M -61.408145 184.79906 L -75.777293 187.31622 A 0.3999995 0.3999995 0 0 0 -76.101305 187.77924 A 0.3999995 0.3999995 0 0 0 -75.638801 188.10532 L -61.269652 185.58609 A 0.3999995 0.3999995 0 0 0 -60.945124 185.12307 A 0.3999995 0.3999995 0 0 0 -61.408145 184.79906 z M -60.175662 191.83222 L -74.542743 194.34938 A 0.3999995 0.3999995 0 0 0 -74.869339 194.8124 A 0.3999995 0.3999995 0 0 0 -74.406318 195.13848 L -60.037169 192.61926 A 0.3999995 0.3999995 0 0 0 -59.712641 192.15623 A 0.3999995 0.3999995 0 0 0 -60.175662 191.83222 z M -41.208861 197.95898 A 0.3999995 0.3999995 0 0 0 -41.609353 198.35947 L -41.609353 212.94721 A 0.3999995 0.3999995 0 0 0 -41.208861 213.34564 A 0.3999995 0.3999995 0 0 0 -40.808368 212.94721 L -40.808368 198.35947 A 0.3999995 0.3999995 0 0 0 -41.208861 197.95898 z M -34.068211 197.95898 A 0.3999995 0.3999995 0 0 0 -34.466637 198.35947 L -34.466637 212.94721 A 0.3999995 0.3999995 0 0 0 -34.068211 213.34564 A 0.3999995 0.3999995 0 0 0 -33.667719 212.94721 L -33.667719 198.35947 A 0.3999995 0.3999995 0 0 0 -34.068211 197.95898 z M -26.926012 197.95898 A 0.3999995 0.3999995 0 0 0 -27.325987 198.35947 L -27.325987 212.94721 A 0.3999995 0.3999995 0 0 0 -26.926012 213.34564 A 0.3999995 0.3999995 0 0 0 -26.527586 212.94721 L -26.527586 198.35947 A 0.3999995 0.3999995 0 0 0 -26.926012 197.95898 z M -58.941629 198.86539 L -73.310777 201.38461 A 0.3999995 0.3999995 0 0 0 -73.634789 201.84763 A 0.3999995 0.3999995 0 0 0 -73.171768 202.17164 L -58.804686 199.65448 A 0.3999995 0.3999995 0 0 0 -58.478608 199.1894 A 0.3999995 0.3999995 0 0 0 -58.941629 198.86539 z M -57.709146 205.89855 L -72.078294 208.41777 A 0.3999995 0.3999995 0 0 0 -72.402306 208.8808 A 0.3999995 0.3999995 0 0 0 -71.939285 209.20532 L -57.572203 206.68765 A 0.3999995 0.3999995 0 0 0 -57.246125 206.22463 A 0.3999995 0.3999995 0 0 0 -57.709146 205.89855 z M -56.476663 212.93378 L -70.845812 215.45094 A 0.3999995 0.3999995 0 0 0 -71.169823 215.91396 A 0.3999995 0.3999995 0 0 0 -70.706802 216.24004 L -56.337653 213.72081 A 0.3999995 0.3999995 0 0 0 -56.013642 213.25779 A 0.3999995 0.3999995 0 0 0 -56.476663 212.93378 z M -55.24418 219.96694 L -69.611262 222.48462 A 0.3999995 0.3999995 0 0 0 -69.93734 222.94712 A 0.3999995 0.3999995 0 0 0 -69.474836 223.2732 L -55.105687 220.75397 A 0.3999995 0.3999995 0 0 0 -54.781159 220.29095 A 0.3999995 0.3999995 0 0 0 -55.24418 219.96694 z M -54.011697 227.0001 L -68.378779 229.51933 A 0.3999995 0.3999995 0 0 0 -68.704857 229.98235 A 0.3999995 0.3999995 0 0 0 -68.240286 230.30688 L -53.873204 227.7892 A 0.3999995 0.3999995 0 0 0 -53.547126 227.32411 A 0.3999995 0.3999995 0 0 0 -54.011697 227.0001 z " /></g></svg>
