<?xml version="1.0" encoding="UTF-8" standalone="no"?>
<!-- Created with Inkscape (http://www.inkscape.org/) -->

<svg
   width="168.53958mm"
   height="306.91666mm"
   viewBox="0 0 168.53958 306.91666"
   version="1.1"
   id="svg1"
   xml:space="preserve"
   inkscape:version="1.4 (e7c3feb1, 2024-10-09)"
   sodipodi:docname="RoadMarkings5.svg"
   xmlns:inkscape="http://www.inkscape.org/namespaces/inkscape"
   xmlns:sodipodi="http://sodipodi.sourceforge.net/DTD/sodipodi-0.dtd"
   xmlns="http://www.w3.org/2000/svg"
   xmlns:svg="http://www.w3.org/2000/svg"><sodipodi:namedview
     id="namedview1"
     pagecolor="#ffffff"
     bordercolor="#000000"
     borderopacity="0.25"
     inkscape:showpageshadow="2"
     inkscape:pageopacity="0.0"
     inkscape:pagecheckerboard="0"
     inkscape:deskcolor="#d1d1d1"
     inkscape:document-units="mm"
     inkscape:zoom="0.43278049"
     inkscape:cx="167.52141"
     inkscape:cy="561.48557"
     inkscape:window-width="1568"
     inkscape:window-height="869"
     inkscape:window-x="0"
     inkscape:window-y="25"
     inkscape:window-maximized="0"
     inkscape:current-layer="layer1" /><defs
     id="defs1" /><g
     inkscape:label="Layer 1"
     inkscape:groupmode="layer"
     id="layer1"
     transform="translate(-24.209375,10.583328)"><path
       id="path1"
       style="fill:#ffffff;stroke-linecap:round;stroke-linejoin:round;paint-order:stroke fill markers"
       d="M 119.67797 14.060646 L 100.54115 14.962916 A 0.60000002 0.60000002 0 0 0 99.970642 15.591818 A 0.60000002 0.60000002 0 0 0 100.59748 16.162326 L 119.73223 15.257989 A 0.60000002 0.60000002 0 0 0 120.3048 14.630637 A 0.60000002 0.60000002 0 0 0 119.67797 14.060646 z M 79.730534 15.461077 L 60.593717 16.365415 A 0.60000002 0.60000002 0 0 0 60.02321 16.99225 A 0.60000002 0.60000002 0 0 0 60.650562 17.564308 L 79.786861 16.65997 A 0.60000002 0.60000002 0 0 0 80.357369 16.033135 A 0.60000002 0.60000002 0 0 0 79.730534 15.461077 z M 120.09965 23.000152 L 100.96283 23.902422 A 0.60000002 0.60000002 0 0 0 100.39232 24.531325 A 0.60000002 0.60000002 0 0 0 101.01967 25.101316 L 120.15649 24.197495 A 0.60000002 0.60000002 0 0 0 120.72648 23.570143 A 0.60000002 0.60000002 0 0 0 120.09965 23.000152 z M 80.152214 24.400583 L 61.015397 25.304921 A 0.60000002 0.60000002 0 0 0 60.445406 25.931756 A 0.60000002 0.60000002 0 0 0 61.072241 26.503814 L 80.209058 25.599476 A 0.60000002 0.60000002 0 0 0 80.779049 24.972641 A 0.60000002 0.60000002 0 0 0 80.152214 24.400583 z M 120.52133 31.939658 L 101.38503 32.841928 A 0.60000002 0.60000002 0 0 0 100.81452 33.470831 A 0.60000002 0.60000002 0 0 0 101.44135 34.040822 L 120.57817 33.136484 A 0.60000002 0.60000002 0 0 0 121.14868 32.509649 A 0.60000002 0.60000002 0 0 0 120.52133 31.939658 z M 80.57441 33.340089 L 61.439661 34.24391 A 0.60000002 0.60000002 0 0 0 60.867086 34.871262 A 0.60000002 0.60000002 0 0 0 61.495988 35.44332 L 80.630737 34.538982 A 0.60000002 0.60000002 0 0 0 81.201245 33.912147 A 0.60000002 0.60000002 0 0 0 80.57441 33.340089 z M 120.94352 40.879164 L 101.80671 41.781434 A 0.60000002 0.60000002 0 0 0 101.2362 42.410337 A 0.60000002 0.60000002 0 0 0 101.86303 42.980328 L 120.99985 42.07599 A 0.60000002 0.60000002 0 0 0 121.57036 41.449155 A 0.60000002 0.60000002 0 0 0 120.94352 40.879164 z M 80.99609 42.279078 L 61.86134 43.183416 A 0.60000002 0.60000002 0 0 0 61.289282 43.810768 A 0.60000002 0.60000002 0 0 0 61.918184 44.382826 L 81.052934 43.478488 A 0.60000002 0.60000002 0 0 0 81.622925 42.851653 A 0.60000002 0.60000002 0 0 0 80.99609 42.279078 z M 121.3652 49.818153 L 102.23045 50.72094 A 0.60000002 0.60000002 0 0 0 101.65839 51.349843 A 0.60000002 0.60000002 0 0 0 102.2873 51.919834 L 121.42205 51.017563 A 0.60000002 0.60000002 0 0 0 121.99204 50.388661 A 0.60000002 0.60000002 0 0 0 121.3652 49.818153 z M 81.417769 51.218584 L 62.28302 52.122922 A 0.60000002 0.60000002 0 0 0 61.710962 52.749757 A 0.60000002 0.60000002 0 0 0 62.339864 53.322332 L 81.474613 52.417994 A 0.60000002 0.60000002 0 0 0 82.046672 51.791159 A 0.60000002 0.60000002 0 0 0 81.417769 51.218584 z M 121.78688 58.757659 L 102.65213 59.65993 A 0.60000002 0.60000002 0 0 0 102.08007 60.288832 A 0.60000002 0.60000002 0 0 0 102.70898 60.85934 L 121.84373 59.957069 A 0.60000002 0.60000002 0 0 0 122.41423 59.328167 A 0.60000002 0.60000002 0 0 0 121.78688 58.757659 z M 81.839966 60.15809 L 62.705216 61.062428 A 0.60000002 0.60000002 0 0 0 62.134709 61.689263 A 0.60000002 0.60000002 0 0 0 62.761544 62.261838 L 81.896293 61.3575 A 0.60000002 0.60000002 0 0 0 82.468868 60.730665 A 0.60000002 0.60000002 0 0 0 81.839966 60.15809 z M 122.20908 67.697165 L 103.07433 68.599436 A 0.60000002 0.60000002 0 0 0 102.50175 69.228338 A 0.60000002 0.60000002 0 0 0 103.13066 69.798846 L 122.26541 68.896575 A 0.60000002 0.60000002 0 0 0 122.83591 68.267673 A 0.60000002 0.60000002 0 0 0 122.20908 67.697165 z M 82.261646 69.097596 L 63.126896 70.001934 A 0.60000002 0.60000002 0 0 0 62.556388 70.628769 A 0.60000002 0.60000002 0 0 0 63.18374 71.201344 L 82.31849 70.297006 A 0.60000002 0.60000002 0 0 0 82.890548 69.670171 A 0.60000002 0.60000002 0 0 0 82.261646 69.097596 z M 122.63076 76.636671 L 103.49601 77.538942 A 0.60000002 0.60000002 0 0 0 102.92602 78.167844 A 0.60000002 0.60000002 0 0 0 103.55285 78.738352 L 122.6876 77.836081 A 0.60000002 0.60000002 0 0 0 123.25966 77.207179 A 0.60000002 0.60000002 0 0 0 122.63076 76.636671 z M 82.683842 78.03917 L 63.548576 78.94144 A 0.60000002 0.60000002 0 0 0 62.978585 79.568275 A 0.60000002 0.60000002 0 0 0 63.60542 80.14085 L 82.740169 79.236512 A 0.60000002 0.60000002 0 0 0 83.312744 78.609161 A 0.60000002 0.60000002 0 0 0 82.683842 78.03917 z M 123.05295 85.576177 L 103.9182 86.478448 A 0.60000002 0.60000002 0 0 0 103.3477 87.10735 A 0.60000002 0.60000002 0 0 0 103.97453 87.677858 L 123.10928 86.775587 A 0.60000002 0.60000002 0 0 0 123.68186 86.146685 A 0.60000002 0.60000002 0 0 0 123.05295 85.576177 z M 83.107589 86.978676 L 63.970772 87.880946 A 0.60000002 0.60000002 0 0 0 63.400264 88.507781 A 0.60000002 0.60000002 0 0 0 64.0271 89.079839 L 83.163916 88.176019 A 0.60000002 0.60000002 0 0 0 83.734424 87.548667 A 0.60000002 0.60000002 0 0 0 83.107589 86.978676 z M 123.47463 94.515683 L 104.33988 95.420021 A 0.60000002 0.60000002 0 0 0 103.76938 96.046856 A 0.60000002 0.60000002 0 0 0 104.39673 96.617364 L 123.53148 95.715093 A 0.60000002 0.60000002 0 0 0 124.10354 95.086191 A 0.60000002 0.60000002 0 0 0 123.47463 94.515683 z M 83.529268 95.918182 L 64.392452 96.820452 A 0.60000002 0.60000002 0 0 0 63.822461 97.449354 A 0.60000002 0.60000002 0 0 0 64.449296 98.019345 L 83.586112 97.115008 A 0.60000002 0.60000002 0 0 0 84.156104 96.488173 A 0.60000002 0.60000002 0 0 0 83.529268 95.918182 z M 123.89838 103.45519 L 104.76156 104.35953 A 0.60000002 0.60000002 0 0 0 104.19157 104.98636 A 0.60000002 0.60000002 0 0 0 104.81841 105.55687 L 123.95522 104.65408 A 0.60000002 0.60000002 0 0 0 124.52522 104.02518 A 0.60000002 0.60000002 0 0 0 123.89838 103.45519 z M 83.950948 104.85717 L 64.814648 105.75996 A 0.60000002 0.60000002 0 0 0 64.244141 106.38886 A 0.60000002 0.60000002 0 0 0 64.870976 106.95885 L 84.007792 106.05451 A 0.60000002 0.60000002 0 0 0 84.5783 105.42768 A 0.60000002 0.60000002 0 0 0 83.950948 104.85717 z M 124.32006 112.3947 L 105.18376 113.29903 A 0.60000002 0.60000002 0 0 0 104.61325 113.92587 A 0.60000002 0.60000002 0 0 0 105.24009 114.49586 L 124.3769 113.59359 A 0.60000002 0.60000002 0 0 0 124.94741 112.96469 A 0.60000002 0.60000002 0 0 0 124.32006 112.3947 z M 84.689404 114.82814 L 66.056433 119.27955 A 0.60000002 0.60000002 0 0 0 65.611499 120.00198 A 0.60000002 0.60000002 0 0 0 66.336003 120.44537 L 84.966907 115.99396 A 0.60000002 0.60000002 0 0 0 85.412358 115.27152 A 0.60000002 0.60000002 0 0 0 84.689404 114.82814 z M 124.74226 121.3342 L 105.60544 122.23802 A 0.60000002 0.60000002 0 0 0 105.03493 122.86537 A 0.60000002 0.60000002 0 0 0 105.66228 123.43537 L 124.79858 122.53309 A 0.60000002 0.60000002 0 0 0 125.36909 121.90419 A 0.60000002 0.60000002 0 0 0 124.74226 121.3342 z M 86.76783 123.53148 L 68.134859 127.98237 A 0.60000002 0.60000002 0 0 0 67.691475 128.70533 A 0.60000002 0.60000002 0 0 0 68.413912 129.15026 L 87.046883 124.69937 A 0.60000002 0.60000002 0 0 0 87.490267 123.97642 A 0.60000002 0.60000002 0 0 0 86.76783 123.53148 z M 125.16394 130.27319 L 106.02919 131.17753 A 0.60000002 0.60000002 0 0 0 105.45713 131.80488 A 0.60000002 0.60000002 0 0 0 106.08396 132.37487 L 125.22078 131.4726 A 0.60000002 0.60000002 0 0 0 125.79077 130.8437 A 0.60000002 0.60000002 0 0 0 125.16394 130.27319 z M 88.847807 132.23638 L 70.214836 136.68727 A 0.60000002 0.60000002 0 0 0 69.771452 137.41022 A 0.60000002 0.60000002 0 0 0 70.493888 137.85567 L 89.12686 133.40427 A 0.60000002 0.60000002 0 0 0 89.570243 132.68183 A 0.60000002 0.60000002 0 0 0 88.847807 132.23638 z M 125.58613 139.2127 L 106.45138 140.11703 A 0.60000002 0.60000002 0 0 0 105.87881 140.74439 A 0.60000002 0.60000002 0 0 0 106.50771 141.31438 L 125.64246 140.41211 A 0.60000002 0.60000002 0 0 0 126.21297 139.7832 A 0.60000002 0.60000002 0 0 0 125.58613 139.2127 z M 90.927783 140.94127 L 72.294812 145.39268 A 0.60000002 0.60000002 0 0 0 71.849361 146.11512 A 0.60000002 0.60000002 0 0 0 72.572314 146.5585 L 91.205286 142.10761 A 0.60000002 0.60000002 0 0 0 91.65022 141.38466 A 0.60000002 0.60000002 0 0 0 90.927783 140.94127 z M 93.005693 149.64669 L 74.373238 154.09551 A 0.60000002 0.60000002 0 0 0 73.929854 154.82053 A 0.60000002 0.60000002 0 0 0 74.652291 155.26391 L 93.285262 150.81251 A 0.60000002 0.60000002 0 0 0 93.728646 150.09007 A 0.60000002 0.60000002 0 0 0 93.005693 149.64669 z M 95.086186 158.34951 L 76.453215 162.80092 A 0.60000002 0.60000002 0 0 0 76.007764 163.52336 A 0.60000002 0.60000002 0 0 0 76.732267 163.96881 L 95.365238 159.5174 A 0.60000002 0.60000002 0 0 0 95.808622 158.79496 A 0.60000002 0.60000002 0 0 0 95.086186 158.34951 z M 97.164095 167.05492 L 78.531124 171.50582 A 0.60000002 0.60000002 0 0 0 78.08774 172.22877 A 0.60000002 0.60000002 0 0 0 78.810693 172.67164 L 97.443148 168.22281 A 0.60000002 0.60000002 0 0 0 97.888599 167.49779 A 0.60000002 0.60000002 0 0 0 97.164095 167.05492 z M 99.244071 175.75982 L 80.6111 180.21071 A 0.60000002 0.60000002 0 0 0 80.167716 180.93366 A 0.60000002 0.60000002 0 0 0 80.89067 181.37705 L 99.523641 176.92564 A 0.60000002 0.60000002 0 0 0 99.967025 176.2032 A 0.60000002 0.60000002 0 0 0 99.244071 175.75982 z M 101.32405 184.46471 L 82.691593 188.91406 A 0.60000002 0.60000002 0 0 0 82.246143 189.63856 A 0.60000002 0.60000002 0 0 0 82.968579 190.08194 L 101.60155 185.63105 A 0.60000002 0.60000002 0 0 0 102.047 184.9081 A 0.60000002 0.60000002 0 0 0 101.32405 184.46471 z M 103.40247 193.16806 L 84.769503 197.61895 A 0.60000002 0.60000002 0 0 0 84.326119 198.3419 A 0.60000002 0.60000002 0 0 0 85.049072 198.78735 L 103.68153 194.33595 A 0.60000002 0.60000002 0 0 0 104.12491 193.61351 A 0.60000002 0.60000002 0 0 0 103.40247 193.16806 z M 105.48245 201.87295 L 86.849479 206.32436 A 0.60000002 0.60000002 0 0 0 86.406095 207.0468 A 0.60000002 0.60000002 0 0 0 87.129049 207.49018 L 105.7615 203.04084 A 0.60000002 0.60000002 0 0 0 106.20489 202.31634 A 0.60000002 0.60000002 0 0 0 105.48245 201.87295 z M 107.56036 210.57837 L 88.929456 215.02926 A 0.60000002 0.60000002 0 0 0 88.484521 215.75169 A 0.60000002 0.60000002 0 0 0 89.206958 216.19508 L 107.83993 211.74419 A 0.60000002 0.60000002 0 0 0 108.28538 211.02123 A 0.60000002 0.60000002 0 0 0 107.56036 210.57837 z M 109.64085 219.28119 L 91.007882 223.7326 A 0.60000002 0.60000002 0 0 0 90.564498 224.45504 A 0.60000002 0.60000002 0 0 0 91.286934 224.90049 L 109.91991 220.44908 A 0.60000002 0.60000002 0 0 0 110.36329 219.72665 A 0.60000002 0.60000002 0 0 0 109.64085 219.28119 z M 111.72083 227.98609 L 93.087858 232.4375 A 0.60000002 0.60000002 0 0 0 92.642407 233.15993 A 0.60000002 0.60000002 0 0 0 93.365361 233.60538 L 111.99781 229.15449 A 0.60000002 0.60000002 0 0 0 112.44327 228.43154 A 0.60000002 0.60000002 0 0 0 111.72083 227.98609 z M 113.79874 236.6915 L 95.165767 241.14239 A 0.60000002 0.60000002 0 0 0 94.7229 241.86535 A 0.60000002 0.60000002 0 0 0 95.445337 242.30873 L 114.07831 237.85732 A 0.60000002 0.60000002 0 0 0 114.52169 237.13488 A 0.60000002 0.60000002 0 0 0 113.79874 236.6915 z M 115.87872 245.3964 L 97.246261 249.84574 A 0.60000002 0.60000002 0 0 0 96.802877 250.57024 A 0.60000002 0.60000002 0 0 0 97.525313 251.01362 L 116.15828 246.56273 A 0.60000002 0.60000002 0 0 0 116.60167 245.83978 A 0.60000002 0.60000002 0 0 0 115.87872 245.3964 z " /></g></svg>
