<?xml version="1.0" encoding="UTF-8" standalone="no"?>
<!-- Created with Inkscape (http://www.inkscape.org/) -->

<svg
   width="928.15833mm"
   height="928.15833mm"
   viewBox="0 0 928.15833 928.15833"
   version="1.1"
   id="svg1"
   xml:space="preserve"
   inkscape:version="1.4 (e7c3feb1, 2024-10-09)"
   sodipodi:docname="RoadMarkings.svg"
   xmlns:inkscape="http://www.inkscape.org/namespaces/inkscape"
   xmlns:sodipodi="http://sodipodi.sourceforge.net/DTD/sodipodi-0.dtd"
   xmlns="http://www.w3.org/2000/svg"
   xmlns:svg="http://www.w3.org/2000/svg"><sodipodi:namedview
     id="namedview1"
     pagecolor="#ffffff"
     bordercolor="#000000"
     borderopacity="0.25"
     inkscape:showpageshadow="2"
     inkscape:pageopacity="0.0"
     inkscape:pagecheckerboard="0"
     inkscape:deskcolor="#d1d1d1"
     inkscape:document-units="mm"
     inkscape:zoom="0.11595106"
     inkscape:cx="1526.5061"
     inkscape:cy="3221.1867"
     inkscape:window-width="1680"
     inkscape:window-height="1022"
     inkscape:window-x="0"
     inkscape:window-y="28"
     inkscape:window-maximized="0"
     inkscape:current-layer="layer1" /><defs
     id="defs1" /><g
     inkscape:label="Layer 1"
     inkscape:groupmode="layer"
     id="layer1"
     transform="translate(366.71249,269.08124)"><path
       id="path8-4-7"
       style="fill:#ffffff;stroke-width:1.15956;stroke-linecap:round;stroke-linejoin:round;paint-order:stroke fill markers"
       d="m -63.427584,488.95358 a 0.98806627,1.6466031 0 0 0 1.050208,-1.44642 l 2.385234,0.31956 a 0.98806627,1.6466031 0 0 0 1.063328,-1.51035 0.98806627,1.6466031 0 0 0 -0.906307,-1.77203 l -2.387091,-0.31969 0.07143,-1.58486 2.310277,0.30852 a 0.98806627,1.6466031 0 0 0 1.065109,-1.50788 0.98806627,1.6466031 0 0 0 -0.906305,-1.77203 l -2.320432,-0.31087 0.05105,-1.1327 c 0.888978,-0.0379 1.782584,-0.45649 2.499734,-1.42661 0.72437,-0.97987 1.210274,-2.55908 1.235992,-4.39405 0.02364,-1.68611 -0.215605,-3.08722 -0.65847,-4.12181 -0.442867,-1.03461 -1.055978,-1.63588 -1.614287,-1.95013 -1.116617,-0.62847 -2.148409,-0.28226 -2.148409,-0.28226 a 0.98816503,1.6467678 0 0 0 -0.813783,1.49678 l -0.294218,6.49439 c -0.389858,-0.41887 -0.746802,-0.91834 -0.903665,-1.57041 -0.381655,-1.58648 -0.352831,-4.07021 -0.352831,-4.07021 a 0.98806627,1.6466031 0 0 0 -0.936009,-1.72808 0.98806627,1.6466031 0 0 0 -1.036958,1.55985 c 0,0 -0.134722,2.86337 0.490845,5.46379 0.477563,1.98519 1.480475,3.07242 2.584687,3.75396 l -0.0742,1.64426 -2.213973,-0.29641 a 0.98806627,1.6466031 0 0 0 -1.063232,1.50727 0.98806627,1.6466031 0 0 0 0.906212,1.77511 l 2.222805,0.29642 -0.07141,1.58409 -2.144066,-0.28744 a 0.98806627,1.6466031 0 0 0 -1.063351,1.51113 0.98806627,1.6466031 0 0 0 0.906309,1.77201 l 2.15519,0.2884 a 0.98806627,1.6466031 0 0 0 0.910571,1.70889 z m 1.630175,-14.12922 0.245724,-5.42964 c 0.187934,0.0205 0.235315,-0.0538 0.431898,0.0569 0.267431,0.15051 0.47475,0.36471 0.636284,0.74206 0.161533,0.3774 0.308964,0.98367 0.29285,2.13334 -0.01403,1.00081 -0.202541,1.5059 -0.504994,1.91503 -0.252185,0.34113 -0.66989,0.49981 -1.10176,0.58224 z" /><path
       id="path11-0-4"
       style="fill:#ffffff;stroke-width:1.15956;stroke-linecap:round;stroke-linejoin:round;paint-order:stroke fill markers"
       d="m -76.411309,482.11308 a 0.98806627,1.6466031 0 0 0 1.036494,-1.55989 l 0.07335,-2.3887 2.334017,0.14087 a 0.98806627,1.6466031 0 0 0 1.023763,-1.5842 0.98806627,1.6466031 0 0 0 -0.950626,-1.70609 l -2.306202,-0.13846 0.08476,-2.76106 3.484204,-5.39439 a 0.98806627,1.6466031 0 0 0 0.05048,-2.32558 0.98806627,1.6466031 0 0 0 -1.395864,-0.0873 l -1.993877,3.08625 0.185416,-6.03895 a 0.98806627,1.6466031 0 0 0 -0.935544,-1.72804 0.98806627,1.6466031 0 0 0 -1.036959,1.55986 l -0.28926,9.42112 -0.904722,1.40072 0.151705,-1.9436 c 0.260702,-3.32561 0.07893,-8.80779 0.07893,-8.80779 a 0.98806627,1.6466031 0 0 0 -1.033917,-1.56682 0.98806627,1.6466031 0 0 0 -0.938421,1.72629 c 0,0 0.138593,5.61029 -0.06601,8.2202 l -0.46593,5.95618 a 0.98806627,1.6466031 0 0 0 -9.63e-4,0.39417 0.98816503,1.6467678 0 0 0 0.932409,1.93612 l 2.018548,0.1217 -0.07182,2.33927 a 0.98806627,1.6466031 0 0 0 0.936008,1.72808 z" /><path
       id="path1"
       style="fill:#ffffff;stroke-linecap:round;paint-order:stroke fill markers"
       d="M -91.35152 517.51571 A 1.6 1.6 0 0 0 -93.423745 518.4278 A 1.6 1.6 0 0 0 -92.511656 520.49796 C -92.511656 520.49796 -90.564862 521.25737 -88.236465 522.6818 C -85.908069 524.10623 -83.29384 526.20133 -82.025474 528.54294 C -79.346224 533.48923 -80.130643 539.83299 -80.597654 546.37131 C -80.829535 549.61754 -82.098366 567.9656 -83.339606 586.32443 C -84.580846 604.68326 -85.790061 622.90645 -85.912059 626.3225 C -86.11536 632.01441 -91.057971 642.79604 -96.892784 650.33809 A 1.6 1.6 0 0 0 -96.605463 652.58188 A 1.6 1.6 0 0 0 -94.361155 652.29508 C -88.188806 644.31673 -82.971326 633.67457 -82.712771 626.43567 C -82.603867 623.38627 -81.387534 604.89439 -80.146519 586.53889 C -78.905505 568.1834 -77.636068 549.81892 -77.406118 546.59972 C -77.144884 542.94235 -76.711072 539.07228 -76.988056 535.27845 L -55.710801 546.06435 A 1.6 1.6 0 0 0 -53.560545 545.36155 A 1.6 1.6 0 0 0 -54.263861 543.21078 L -77.55598 531.40168 C -77.91723 529.90561 -78.443108 528.43749 -79.211176 527.01952 C -80.944615 523.81932 -83.987888 521.52859 -86.566282 519.95122 C -89.144676 518.37385 -91.351521 517.51572 -91.35152 517.51571 z M -48.408921 546.27468 A 1.4 1.4 0 0 0 -48.951007 546.33979 A 1.4 1.4 0 0 0 -49.763878 547.0369 A 1.4 1.4 0 0 0 -49.148411 548.91793 L -46.247813 550.38864 A 1.4 1.4 0 0 0 -44.367308 549.77369 A 1.4 1.4 0 0 0 -44.982257 547.8906 L -47.882855 546.42195 A 1.4 1.4 0 0 0 -48.408921 546.27468 z M -40.143276 550.58914 A 1.4 1.4 0 0 0 -40.685362 550.65425 A 1.4 1.4 0 0 0 -41.499782 551.35344 A 1.4 1.4 0 0 0 -40.884833 553.23446 L -37.982168 554.70517 A 1.4 1.4 0 0 0 -36.101662 554.0897 A 1.4 1.4 0 0 0 -36.716612 552.20713 L -39.61721 550.73642 A 1.4 1.4 0 0 0 -40.143276 550.58914 z M -27.973476 553.1678 A 1.40014 1.40014 0 0 0 -29.36719 554.47676 C -29.36719 554.47676 -29.447817 555.74686 -29.453489 555.83533 L -31.043056 555.02918 A 1.4 1.4 0 0 0 -32.111208 554.94753 L -32.111208 554.94702 A 1.4 1.4 0 0 0 -32.924079 555.64465 A 1.4 1.4 0 0 0 -32.308612 557.52722 L -29.646759 558.87494 C -30.069082 565.47338 -31.730228 591.46319 -32.140664 599.05647 C -32.391118 603.68973 -30.727851 607.51255 -28.042723 610.80665 C -25.982811 613.33374 -23.336076 615.60602 -20.40598 617.92663 L -57.988182 626.61654 A 1.6 1.6 0 0 0 -59.185525 628.53632 A 1.6 1.6 0 0 0 -57.267296 629.73573 L -17.319863 620.49909 A 1.6 1.6 0 0 0 -16.883197 620.32494 A 1.4 1.4 0 0 0 -15.707042 619.80869 A 1.4 1.4 0 0 0 -15.959223 617.84395 C -19.962736 614.74992 -23.483416 611.96857 -25.872829 609.03725 C -28.262242 606.10593 -29.555311 603.11717 -29.343935 599.20685 C -28.906871 591.12095 -26.917561 560.07321 -26.711021 556.84767 L -17.392727 561.92178 A 1.4 1.4 0 0 0 -15.494135 561.36316 A 1.4 1.4 0 0 0 -16.054824 559.46302 L -27.300649 553.33781 A 1.40014 1.40014 0 0 0 -27.973476 553.1678 z " /><path
       style="fill:#ffffff;stroke-linecap:round;stroke-linejoin:round;paint-order:stroke fill markers"
       d="m -84.171875,483.57031 a 2,2 0 0 0 -2.726562,0.75391 2,2 0 0 0 0.751953,2.72656 l 57.601562,32.66797 a 2,2 0 0 0 2.726563,-0.75195 2,2 0 0 0 -0.753907,-2.72657 z"
       id="path5" /><path
       id="path6"
       style="fill:#ffffff;stroke-linecap:round;stroke-linejoin:round;paint-order:stroke fill markers"
       d="m -67.765468,563.27239 -0.686452,-0.034 c 0.244876,-1.89797 0.558644,-3.9567 0.541228,-6.02885 0.05119,-0.75368 -0.416054,-1.2697 -1.022562,-1.29996 l -5e-6,-4e-5 c -0.606527,-0.0299 -1.122546,0.43735 -1.141943,1.10065 -0.146067,2.05855 -0.196138,4.10444 -0.654781,6.07063 -0.009,0.026 -0.01705,0.0524 -0.02409,0.079 -1.232262,0.24574 -1.156675,2.03222 0.09194,2.17299 l 3.885942,0.19274 4.098586,0.20329 c 0.608076,0.0311 1.125764,-0.43763 1.154969,-1.0458 0.02994,-0.60733 -0.438546,-1.12374 -1.045912,-1.1529 l -3.000263,-0.14882 0.284675,-5.73936 1.801164,0.15452 c 0.604999,0.052 1.137654,-0.39617 1.190006,-1.00113 0.05165,-0.60481 -0.396399,-1.13714 -1.001153,-1.18949 l -1.880987,-0.16208 0.156545,-3.15613 c 0.02991,-0.60653 -0.437338,-1.12255 -1.043846,-1.15281 l -5e-6,-4e-5 c -0.606527,-0.0299 -1.122546,0.43735 -1.152802,1.04386 l -0.20712,4.17575 z"
       sodipodi:nodetypes="cccssccccccccccsccccssccc" /><path
       id="path6-5"
       style="fill:#ffffff;stroke-linecap:round;stroke-linejoin:round;paint-order:stroke fill markers"
       d="m -43.132889,602.21669 0.686261,0.0377 c -0.254988,1.89663 -0.579724,3.95366 -0.573353,6.02588 -0.05521,0.75339 0.409281,1.2719 1.015619,1.30539 l 5e-6,4e-5 c 0.606359,0.0331 1.124861,-0.43136 1.147793,-1.09455 0.157037,-2.05774 0.218011,-4.10334 0.687127,-6.06705 0.0091,-0.026 0.01733,-0.0523 0.02451,-0.0789 1.233554,-0.23917 1.16749,-2.02603 -0.08036,-2.17345 l -3.88486,-0.21345 -4.097444,-0.22513 c -0.607902,-0.0343 -1.128081,0.43162 -1.160527,1.03963 -0.03318,0.60716 0.432551,1.12606 1.039753,1.15845 l 2.999427,0.16481 -0.315261,5.73776 -1.800315,-0.16411 c -0.604713,-0.0552 -1.139749,0.3901 -1.195324,0.99477 -0.05487,0.60453 0.390332,1.13924 0.994799,1.19481 l 1.880096,0.1721 -0.173364,3.15525 c -0.03314,0.60636 0.431348,1.12487 1.037686,1.15836 l 5e-6,4e-5 c 0.606359,0.0331 1.124861,-0.43136 1.158349,-1.0377 l 0.229374,-4.17459 z"
       sodipodi:nodetypes="cccssccccccccccsccccssccc" /><path
       id="path6-5-3"
       style="fill:#ffffff;stroke-width:1.15444;stroke-linecap:round;stroke-linejoin:round;paint-order:stroke fill markers"
       d="m -48.753783,477.87035 0.618429,0.0558 c -0.229784,2.80492 -0.522423,5.84705 -0.516681,8.91164 -0.04975,1.11419 0.368826,1.88101 0.915233,1.93054 l 4e-6,6e-5 c 0.546426,0.0489 1.013678,-0.63794 1.034343,-1.61873 0.141516,-3.04318 0.196463,-6.0684 0.619211,-8.97253 0.0082,-0.0385 0.01562,-0.0773 0.02209,-0.11668 1.111627,-0.35371 1.052093,-2.99629 -0.07242,-3.2143 l -3.500873,-0.31567 -3.692446,-0.33295 c -0.547815,-0.0507 -1.016579,0.63832 -1.045818,1.53751 -0.0299,0.89792 0.389797,1.66532 0.936982,1.71322 l 2.702958,0.24374 -0.2841,8.48554 -1.622368,-0.2427 c -0.544943,-0.0816 -1.027095,0.57692 -1.077176,1.47116 -0.04945,0.89404 0.35175,1.68482 0.896471,1.767 l 1.694264,0.25452 -0.156229,4.66628 c -0.02986,0.89674 0.388713,1.66356 0.935119,1.71309 l 5e-6,6e-5 c 0.546425,0.0489 1.013678,-0.63793 1.043856,-1.53465 l 0.206702,-6.17378 z"
       sodipodi:nodetypes="cccssccccccccccsccccssccc" /><path
       id="path8"
       style="fill:#ffffff;stroke-linecap:round;stroke-linejoin:round;paint-order:stroke fill markers"
       d="m -66.858771,567.74315 a 1.1,1.1 0 0 0 -1.16767,0.96809 l -2.655777,-0.20933 a 1.1,1.1 0 0 0 -1.182208,1.01083 1.1,1.1 0 0 0 1.010827,1.18221 l 2.657843,0.20942 -0.07787,1.05887 -2.572317,-0.20208 a 1.1,1.1 0 0 0 -1.184196,1.00918 1.1,1.1 0 0 0 1.010827,1.18221 l 2.583624,0.20364 -0.05565,0.75678 c -0.989647,0.0268 -1.984046,0.30806 -2.781426,0.95738 -0.805408,0.65586 -1.344707,1.71168 -1.371424,2.93755 -0.02455,1.12644 0.243252,2.06202 0.737368,2.7524 0.494116,0.69039 1.177311,1.09101 1.799195,1.29996 1.243769,0.4179 2.392085,0.18483 2.392085,0.18483 a 1.10011,1.10011 0 0 0 0.904409,-1.00133 l 0.320768,-4.33903 c 0.434461,0.27914 0.832363,0.61219 1.007677,1.04752 0.426546,1.05918 0.39705,2.71845 0.39705,2.71845 a 1.1,1.1 0 0 0 1.043848,1.1528 1.1,1.1 0 0 0 1.152801,-1.04385 c 0,0 0.146994,-1.91308 -0.552154,-3.64918 -0.533736,-1.32536 -1.651397,-2.04992 -2.88141,-2.5033 l 0.08088,-1.09856 2.465092,0.19416 a 1.1,1.1 0 0 0 1.182106,-1.00877 1.1,1.1 0 0 0 -1.010725,-1.18427 l -2.474923,-0.19415 0.07785,-1.05836 2.387255,0.18829 a 1.1,1.1 0 0 0 1.182234,-1.01134 1.1,1.1 0 0 0 -1.010828,-1.18221 l -2.399642,-0.18891 a 1.1,1.1 0 0 0 -1.015507,-1.14002 z m -1.800099,9.44174 -0.267891,3.62765 c -0.209245,-0.0134 -0.261918,0.0364 -0.480885,-0.0373 -0.297885,-0.10008 -0.528912,-0.24282 -0.70914,-0.49463 -0.180227,-0.25182 -0.344991,-0.65659 -0.328252,-1.42464 0.01457,-0.66861 0.223912,-1.00636 0.560202,-1.2802 0.280398,-0.22833 0.745256,-0.33506 1.225964,-0.39088 z" /><path
       id="path11"
       style="fill:#ffffff;stroke-linecap:round;stroke-linejoin:round;paint-order:stroke fill markers"
       d="M -68.475397 587.04997 A 1.1 1.1 0 0 0 -69.627781 588.09383 L -69.706846 589.6896 L -72.305654 589.59968 A 1.1 1.1 0 0 0 -73.443569 590.65956 A 1.1 1.1 0 0 0 -72.383685 591.798 L -69.815884 591.88636 L -69.907351 593.73121 L -73.780499 597.34081 A 1.1 1.1 0 0 0 -73.834243 598.8942 A 1.1 1.1 0 0 0 -72.280333 598.95053 L -70.06393 596.88502 L -70.263918 600.91992 A 1.1 1.1 0 0 0 -69.220571 602.0723 A 1.1 1.1 0 0 0 -68.06767 601.02844 L -67.755544 594.73425 L -66.749921 593.79684 L -66.916836 595.09599 C -67.203601 597.31808 -66.995384 600.97986 -66.995384 600.97986 A 1.1 1.1 0 0 0 -66.419708 601.88213 A 1.067098 1.067098 0 0 0 -65.190843 601.86353 L -64.10202 601.0703 A 1.067098 1.067098 0 0 0 -63.867926 599.57943 A 1.067098 1.067098 0 0 0 -64.564525 599.15414 A 1.067098 1.067098 0 0 0 -64.844094 599.15052 C -64.864262 597.92482 -64.861755 596.35992 -64.735057 595.37814 L -64.222427 591.39854 A 1.1 1.1 0 0 0 -64.22191 591.13499 A 1.10011 1.10011 0 0 0 -65.26164 589.84359 L -67.509048 589.76556 L -67.431533 588.20287 A 1.1 1.1 0 0 0 -68.475397 587.04997 z " /><path
       id="path8-4"
       style="fill:#ffffff;stroke-linecap:round;stroke-linejoin:round;paint-order:stroke fill markers"
       d="m -44.132243,597.61664 a 1.1,1.1 0 0 0 1.169181,-0.96627 l 2.655447,0.21348 a 1.1,1.1 0 0 0 1.183786,-1.00898 1.1,1.1 0 0 0 -1.008978,-1.18379 l -2.657513,-0.21357 0.07952,-1.05875 2.571998,0.2061 a 1.1,1.1 0 0 0 1.185771,-1.00732 1.1,1.1 0 0 0 -1.008978,-1.18379 l -2.583303,-0.20768 0.05683,-0.75669 c 0.989687,-0.0253 1.984525,-0.30496 2.782918,-0.95303 0.806432,-0.6546 1.34738,-1.70958 1.376013,-2.93541 0.02631,-1.1264 -0.24003,-2.0624 -0.733066,-2.75355 -0.493037,-0.69116 -1.175605,-1.09284 -1.797162,-1.30277 -1.243114,-0.41984 -2.391793,-0.18856 -2.391793,-0.18856 a 1.10011,1.10011 0 0 0 -0.905973,0.99991 l -0.327548,4.33853 c -0.434024,-0.27982 -0.831405,-0.61349 -1.006038,-1.0491 -0.424891,-1.05984 -0.392802,-2.71907 -0.392802,-2.71907 a 1.1,1.1 0 0 0 -1.042046,-1.15443 1.1,1.1 0 0 0 -1.15443,1.04205 c 0,0 -0.149983,1.91285 0.546451,3.65004 0.531664,1.32619 1.648192,2.0525 2.877495,2.5078 l -0.0826,1.09843 -2.464785,-0.19801 a 1.1,1.1 0 0 0 -1.183681,1.00692 1.1,1.1 0 0 0 1.008873,1.18585 l 2.474617,0.19802 -0.0795,1.05823 -2.386958,-0.19202 a 1.1,1.1 0 0 0 -1.183813,1.0095 1.1,1.1 0 0 0 1.00898,1.18378 l 2.399343,0.19266 a 1.1,1.1 0 0 0 1.013725,1.14161 z m 1.81485,-9.43892 0.27356,-3.62722 c 0.209224,0.0137 0.261974,-0.036 0.480826,0.038 0.297728,0.10054 0.528532,0.24364 0.708366,0.49573 0.179833,0.25211 0.343965,0.65713 0.326026,1.42516 -0.01562,0.66858 -0.225485,1.006 -0.562202,1.27932 -0.280755,0.22789 -0.745779,0.33389 -1.226574,0.38896 z" /><path
       id="path11-0"
       style="fill:#ffffff;stroke-linecap:round;stroke-linejoin:round;paint-order:stroke fill markers"
       d="m -42.485286,578.31242 a 1.1,1.1 0 0 0 1.153914,-1.04207 l 0.08165,-1.59575 2.598428,0.0941 a 1.1,1.1 0 0 0 1.13974,-1.05831 1.1,1.1 0 0 0 -1.058318,-1.13974 l -2.567462,-0.0925 0.09437,-1.8445 3.878915,-3.60368 a 1.1,1.1 0 0 0 0.0562,-1.55358 1.1,1.1 0 0 0 -1.553995,-0.0583 l -2.219755,2.06174 0.206421,-4.03427 a 1.1,1.1 0 0 0 -1.041528,-1.1544 1.1,1.1 0 0 0 -1.154431,1.04205 l -0.32203,6.2937 -1.007213,0.93574 0.168889,-1.29841 c 0.290237,-2.22164 0.08787,-5.88397 0.08787,-5.88397 a 1.1,1.1 0 0 0 -1.151045,-1.0467 1.1,1.1 0 0 0 -1.044731,1.15323 c 0,0 0.154293,3.74791 -0.07348,5.49144 l -0.518714,3.97898 a 1.1,1.1 0 0 0 -0.0011,0.26332 1.10011,1.10011 0 0 0 1.038037,1.29341 l 2.247221,0.0813 -0.07996,1.56273 a 1.1,1.1 0 0 0 1.042045,1.15443 z" /><path
       id="path14"
       style="fill:#ffffff;stroke-linecap:round;stroke-linejoin:round;paint-order:stroke fill markers"
       d="M -87.004498 370.29369 A 1.1 1.1 0 0 0 -87.556403 370.43166 A 1.1 1.1 0 0 0 -87.984284 371.9277 L -82.717938 381.4067 L -83.093626 383.01746 A 1.1 1.1 0 0 0 -83.106028 383.12081 A 1.1 1.1 0 0 0 -83.711159 383.19729 L -84.32921 383.46601 L -89.965041 373.2072 A 1.1 1.1 0 0 0 -90.621332 372.68165 A 1.1 1.1 0 0 0 -91.459007 372.77364 A 1.1 1.1 0 0 0 -91.892572 374.26554 L -86.355959 384.34709 L -87.304739 384.75999 A 1.1 1.1 0 0 0 -87.875246 386.20693 A 1.1 1.1 0 0 0 -86.427789 386.77744 L -82.83421 385.21474 A 1.1 1.1 0 0 0 -82.182571 384.35019 A 1.1 1.1 0 0 0 -80.951121 383.51769 L -79.857648 378.83012 A 1.1 1.1 0 0 0 -80.67982 377.50978 A 1.1 1.1 0 0 0 -81.965013 378.23119 L -86.06037 370.85954 A 1.1 1.1 0 0 0 -86.720795 370.33606 A 1.1 1.1 0 0 0 -87.004498 370.29369 z M -77.646413 384.82407 A 1.1 1.1 0 0 0 -78.726451 385.70877 L -79.351736 388.83416 A 1.1 1.1 0 0 0 -78.488222 390.12865 A 1.1 1.1 0 0 0 -77.193211 389.26566 L -76.568443 386.14078 A 1.1 1.1 0 0 0 -77.431439 384.84577 A 1.1 1.1 0 0 0 -77.646413 384.82407 z M -80.644163 388.88842 A 1.1 1.1 0 0 0 -81.062742 388.98247 L -83.874974 390.23252 A 1.1 1.1 0 0 0 -84.433596 391.6836 A 1.1 1.1 0 0 0 -82.982522 392.24222 L -80.169774 390.99216 A 1.1 1.1 0 0 0 -79.611151 389.54109 A 1.1 1.1 0 0 0 -80.644163 388.88842 z M -71.086607 397.32408 A 1.1 1.1 0 0 0 -71.636961 397.47291 A 1.1 1.1 0 0 0 -72.036937 398.97669 L -68.59942 404.91431 A 1.1 1.1 0 0 0 -68.591669 404.92413 L -68.591669 405.19233 A 1.1 1.1 0 0 0 -70.039126 404.79701 L -71.290212 405.46157 L -71.928933 404.20531 A 1.1 1.1 0 0 0 -71.572365 404.17172 A 1.1 1.1 0 0 0 -70.806521 402.81832 L -71.587868 400.00609 A 1.1 1.1 0 0 0 -72.941274 399.24024 A 1.1 1.1 0 0 0 -73.707119 400.59365 L -73.636839 400.84686 L -74.009943 400.11306 A 1.1 1.1 0 0 0 -75.490473 399.63091 A 1.1 1.1 0 0 0 -75.970547 401.11144 L -73.233246 406.49406 L -75.038821 407.45318 A 1.1 1.1 0 0 0 -75.49409 408.94146 A 1.1 1.1 0 0 0 -74.005809 409.39673 L -72.235891 408.45622 L -71.428705 410.0432 L -72.896316 410.91601 A 1.10011 1.10011 0 0 0 -73.113357 412.64046 L -66.394387 419.35943 A 1.10011 1.10011 0 0 0 -64.54127 418.3476 L -66.429527 409.63082 L -65.992344 409.37089 A 1.1 1.1 0 0 0 -65.607355 407.86349 A 1.1 1.1 0 0 0 -66.283283 407.35912 A 1.1 1.1 0 0 0 -67.115273 407.4785 L -69.53373 408.91665 L -70.292857 407.42372 L -69.006114 406.74004 A 1.1 1.1 0 0 0 -68.47333 406.09874 A 1.1 1.1 0 0 0 -67.490444 406.71265 A 1.1 1.1 0 0 0 -66.39077 405.61143 L -66.39077 401.39256 A 1.1 1.1 0 0 0 -67.490444 400.29289 A 1.1 1.1 0 0 0 -68.426821 400.81947 L -70.13266 397.87288 A 1.1 1.1 0 0 0 -71.086607 397.32408 z M -77.726512 400.45102 A 1.1 1.1 0 0 0 -78.34973 400.59365 A 1.1 1.1 0 0 0 -78.757973 402.09588 L -76.882636 405.37682 A 1.1 1.1 0 0 0 -75.382986 405.78506 A 1.1 1.1 0 0 0 -74.972675 404.28541 L -76.847496 401.00396 A 1.1 1.1 0 0 0 -77.726512 400.45102 z M -63.524795 410.60802 A 1.1 1.1 0 0 0 -63.740285 410.61732 A 1.1 1.1 0 0 0 -64.674079 411.86118 L -64.204857 415.14263 A 1.1 1.1 0 0 0 -62.961005 416.07642 A 1.1 1.1 0 0 0 -62.027212 414.83205 L -62.495917 411.5506 A 1.1 1.1 0 0 0 -63.524795 410.60802 z M -68.42372 410.81628 L -67.484243 415.15606 L -70.556407 412.0839 L -68.42372 410.81628 z " /><path
       style="fill:#ffffff;stroke-linecap:round;stroke-linejoin:round;paint-order:stroke fill markers"
       d="m -68.701172,345.22461 a 1.10011,1.10011 0 0 0 -0.07227,0.15625 1.1,1.1 0 0 0 -0.160157,-0.0234 1.1,1.1 0 0 0 -0.07617,0.53906 1.10011,1.10011 0 0 0 -0.310546,0.67774 l 3.304687,10.26172 a 1.10011,1.10011 0 0 0 1.560547,0.63672 l 0.40625,-0.21485 c 0.688658,1.42929 1.200019,2.256 1.634766,3.30664 1.817805,4.39301 2.269531,7.9961 2.269531,7.9961 a 1.1,1.1 0 0 0 1.226562,0.95507 1.1,1.1 0 0 0 0.955078,-1.22851 c 0,0 -0.485728,-3.8949 -2.417968,-8.56445 -0.388166,-0.93808 -1.110627,-2.3137 -1.679688,-3.51368 l 0.773438,-0.4082 a 1.10011,1.10011 0 0 0 0.365234,-1.63476 l -6.472656,-8.5918 a 1.1,1.1 0 0 0 -0.525391,-0.0742 1.10011,1.10011 0 0 0 -0.78125,-0.27539 z"
       id="path28" /><path
       id="path29"
       style="fill:#ffffff;stroke-linecap:round;stroke-linejoin:round;paint-order:stroke fill markers"
       d="M -113.04374 301.72423 A 1.1 1.1 0 0 0 -113.47265 301.73611 A 1.1 1.1 0 0 0 -114.1584 302.22446 A 1.1 1.1 0 0 0 -113.81061 303.74013 L -113.69744 303.81247 L -105.7186 312.54889 A 1.10011 1.10011 0 0 0 -104.12903 312.58403 L -103.75955 312.21506 L -94.588015 319.99805 A 1.1 1.1 0 0 0 -93.039272 319.87092 A 1.1 1.1 0 0 0 -93.165879 318.32218 L -102.19944 310.65598 L -101.8067 310.26376 A 1.10011 1.10011 0 0 0 -101.99997 308.55275 L -112.26962 302.11129 L -112.32233 302.06633 A 1.10011 1.10011 0 0 0 -112.3399 302.06633 L -112.64273 301.87719 A 1.1 1.1 0 0 0 -113.04374 301.72423 z " /><path
       style="fill:#ffffff;stroke-linecap:round;stroke-linejoin:round;paint-order:stroke fill markers"
       d="m -128.50391,314.4082 a 1.1,1.1 0 0 0 -0.80078,0.25586 1.1,1.1 0 0 0 -0.1289,1.55078 l 7.65625,9.04297 -0.45313,0.32422 a 1.10011,1.10011 0 0 0 -0.0898,1.7168 l 9.07031,8.03515 0.0488,0.0566 a 1.10011,1.10011 0 0 0 0.0293,0.0117 l 0.25586,0.22657 a 1.1,1.1 0 0 0 0.29297,-0.0176 1.10011,1.10011 0 0 0 0.67578,-0.041 1.1,1.1 0 0 0 0.58399,-0.0351 1.1,1.1 0 0 0 -0.0937,-1.55274 l -0.10742,-0.0957 -6.4336,-9.91992 a 1.10011,1.10011 0 0 0 -1.5625,-0.29493 l -0.42383,0.30274 -7.77148,-9.18164 a 1.1,1.1 0 0 0 -0.74805,-0.38477 z"
       id="path29-8" /><path
       d="m -3.6469837,380.57228 a 1.1,1.1 0 0 0 -0.4289792,0.009 l -25.4256741,5.60675 a 1.1,1.1 0 0 0 -0.837145,1.31265 1.1,1.1 0 0 0 1.311089,0.83705 l 25.425185,-5.60729 a 1.1,1.1 0 0 0 0.8371445,-1.31264 1.1,1.1 0 0 0 -0.8816181,-0.84566 z"
       style="fill:#ffffff;stroke-linecap:round;stroke-linejoin:round;paint-order:stroke fill markers"
       id="path31" /><path
       d="m -2.1978652,357.4255 a 1.1,1.1 0 0 0 -0.4289792,0.009 l -25.4256736,5.60675 a 1.1,1.1 0 0 0 -0.837145,1.31264 1.1,1.1 0 0 0 1.311089,0.83706 l 25.4251845,-5.6073 a 1.1,1.1 0 0 0 0.8371445,-1.31263 1.1,1.1 0 0 0 -0.8816181,-0.84566 z"
       style="fill:#ffffff;stroke-linecap:round;stroke-linejoin:round;paint-order:stroke fill markers"
       id="path32" /><path
       d="m -0.7487467,334.27872 a 1.1,1.1 0 0 0 -0.4289793,0.009 l -25.425674,5.60675 a 1.1,1.1 0 0 0 -0.837145,1.31264 1.1,1.1 0 0 0 1.311089,0.83706 l 25.4251849,-5.6073 a 1.1,1.1 0 0 0 0.83714465,-1.31263 1.1,1.1 0 0 0 -0.88161805,-0.84566 z"
       style="fill:#ffffff;stroke-linecap:round;stroke-linejoin:round;paint-order:stroke fill markers"
       id="path32-3" /><path
       d="m 0.7003719,311.13194 a 1.1,1.1 0 0 0 -0.42897931,0.009 l -25.42567359,5.60675 a 1.1,1.1 0 0 0 -0.837145,1.31264 1.1,1.1 0 0 0 1.311089,0.83706 l 25.4251845,-5.6073 A 1.1,1.1 0 0 0 1.5819921,311.97746 1.1,1.1 0 0 0 0.700374,311.1318 Z"
       style="fill:#ffffff;stroke-linecap:round;stroke-linejoin:round;paint-order:stroke fill markers"
       id="path32-3-4" /><path
       d="m 2.1494904,287.98516 a 1.1,1.1 0 0 0 -0.4289795,0.009 l -25.4256729,5.60675 a 1.1,1.1 0 0 0 -0.837145,1.31264 1.1,1.1 0 0 0 1.311089,0.83706 l 25.4251839,-5.6073 a 1.1,1.1 0 0 0 0.8371448,-1.31263 1.1,1.1 0 0 0 -0.8816182,-0.84566 z"
       style="fill:#ffffff;stroke-linecap:round;stroke-linejoin:round;paint-order:stroke fill markers"
       id="path32-3-4-0" /><path
       d="m 3.5986089,264.83837 a 1.1,1.1 0 0 0 -0.4289793,0.009 l -25.4256736,5.60675 a 1.1,1.1 0 0 0 -0.837145,1.31264 1.1,1.1 0 0 0 1.311089,0.83706 l 25.4251844,-5.6073 a 1.1,1.1 0 0 0 0.8371449,-1.31263 1.1,1.1 0 0 0 -0.8816182,-0.84567 z"
       style="fill:#ffffff;stroke-linecap:round;stroke-linejoin:round;paint-order:stroke fill markers"
       id="path32-3-4-0-0" /><path
       d="m 5.0477273,241.69159 a 1.1,1.1 0 0 0 -0.4289794,0.009 l -25.4256729,5.60674 a 1.1,1.1 0 0 0 -0.837145,1.31265 1.1,1.1 0 0 0 1.311089,0.83706 l 25.4251838,-5.6073 a 1.1,1.1 0 0 0 0.8371448,-1.31252 1.1,1.1 0 0 0 -0.8816182,-0.84567 z"
       style="fill:#ffffff;stroke-linecap:round;stroke-linejoin:round;paint-order:stroke fill markers"
       id="path32-3-4-0-0-4" /><path
       style="fill:#ffffff;stroke-linecap:round;stroke-linejoin:round;paint-order:stroke fill markers"
       d="m -153.47656,258.98242 a 1.7,1.7 0 0 0 -1.20703,0.49024 l -19.24024,18.97656 a 1.7,1.7 0 0 0 -0.0156,2.4043 1.7,1.7 0 0 0 2.40429,0.0156 l 19.24024,-18.97656 a 1.7,1.7 0 0 0 0.0156,-2.4043 1.7,1.7 0 0 0 -1.19726,-0.50586 z"
       id="path33" /><path
       style="fill:#ffffff;stroke-linecap:round;stroke-linejoin:round;paint-order:stroke fill markers"
       d="m -161.35742,241.92383 -26.35547,7.90625 a 1.7,1.7 0 0 0 -1.14063,2.11719 1.7,1.7 0 0 0 2.11719,1.13867 l 26.35547,-7.90625 a 1.7,1.7 0 0 0 1.14063,-2.11719 1.7,1.7 0 0 0 -2.11719,-1.13867 z"
       id="path34" /><path
       style="fill:#ffffff;stroke-linecap:round;stroke-linejoin:round;paint-order:stroke fill markers"
       d="m -235.7207,136.16211 a 1.7,1.7 0 0 0 -1.70117,1.69922 1.7,1.7 0 0 0 1.70117,1.70117 c 0,0 1.39084,-0.006 3.20703,0.83203 1.81619,0.83824 3.91805,2.4276 5.21289,5.95899 2.85259,7.77977 15.53515,45.29296 15.53516,45.29296 a 1.7,1.7 0 0 0 2.15429,1.06641 1.7,1.7 0 0 0 1.06641,-2.15625 c 0,0 -12.61862,-37.33898 -15.56445,-45.37305 -1.60437,-4.37555 -4.51179,-6.73846 -6.97852,-7.87695 -2.46673,-1.13849 -4.63281,-1.14453 -4.63281,-1.14453 z"
       id="path35" /><circle
       style="fill:#f9f9f9;fill-opacity:1;stroke:#ffffff;stroke-width:0;stroke-linecap:round;stroke-linejoin:round;stroke-dasharray:none;stroke-opacity:1;paint-order:stroke fill markers"
       id="path36"
       cx="-77.611649"
       cy="234.74327"
       r="2.2047288"
       transform="rotate(2.4480605)" /><circle
       style="fill:#f9f9f9;fill-opacity:1;stroke:#ffffff;stroke-width:0;stroke-linecap:round;stroke-linejoin:round;stroke-dasharray:none;stroke-opacity:1;paint-order:stroke fill markers"
       id="circle36"
       cx="-66.656845"
       cy="234.74327"
       r="2.2047288"
       transform="rotate(2.4480605)" /><circle
       style="fill:#f9f9f9;fill-opacity:1;stroke:#ffffff;stroke-width:0;stroke-linecap:round;stroke-linejoin:round;stroke-dasharray:none;stroke-opacity:1;paint-order:stroke fill markers"
       id="circle38"
       cx="-55.702038"
       cy="234.74327"
       r="2.2047288"
       transform="rotate(2.4480605)" /><circle
       style="fill:#f9f9f9;fill-opacity:1;stroke:#ffffff;stroke-width:0;stroke-linecap:round;stroke-linejoin:round;stroke-dasharray:none;stroke-opacity:1;paint-order:stroke fill markers"
       id="circle40"
       cx="-44.747234"
       cy="234.74327"
       r="2.2047288"
       transform="rotate(2.4480605)" /><circle
       style="fill:#f9f9f9;fill-opacity:1;stroke:#ffffff;stroke-width:0;stroke-linecap:round;stroke-linejoin:round;stroke-dasharray:none;stroke-opacity:1;paint-order:stroke fill markers"
       id="circle41"
       cx="-33.792431"
       cy="234.74327"
       r="2.2047288"
       transform="rotate(2.4480605)" /><circle
       style="fill:#f9f9f9;fill-opacity:1;stroke:#ffffff;stroke-width:0;stroke-linecap:round;stroke-linejoin:round;stroke-dasharray:none;stroke-opacity:1;paint-order:stroke fill markers"
       id="circle43"
       cx="-22.837626"
       cy="234.74327"
       r="2.2047288"
       transform="rotate(2.4480605)" /><circle
       style="fill:#f9f9f9;fill-opacity:1;stroke:#ffffff;stroke-width:0;stroke-linecap:round;stroke-linejoin:round;stroke-dasharray:none;stroke-opacity:1;paint-order:stroke fill markers"
       id="circle44"
       cx="-11.882824"
       cy="234.74327"
       r="2.2047288"
       transform="rotate(2.4480605)" /><circle
       style="fill:#f9f9f9;fill-opacity:1;stroke:#ffffff;stroke-width:0;stroke-linecap:round;stroke-linejoin:round;stroke-dasharray:none;stroke-opacity:1;paint-order:stroke fill markers"
       id="circle45"
       cx="-0.92802012"
       cy="234.74327"
       r="2.2047288"
       transform="rotate(2.4480605)" /><circle
       style="fill:#f9f9f9;fill-opacity:1;stroke:#ffffff;stroke-width:0;stroke-linecap:round;stroke-linejoin:round;stroke-dasharray:none;stroke-opacity:1;paint-order:stroke fill markers"
       id="circle46"
       cx="10.026783"
       cy="234.74327"
       r="2.2047288"
       transform="rotate(2.4480605)" /><path
       id="path48"
       style="fill:#ffffff;stroke-linecap:round;stroke-linejoin:round;paint-order:stroke fill markers"
       d="M 74.782009 -132.58415 A 1.5 1.5 0 0 0 73.217763 -131.15064 L 71.477301 -91.251268 L 51.465086 -92.124083 L 52.344102 -112.28099 A 1.5 1.5 0 0 0 50.911114 -113.84472 A 1.5 1.5 0 0 0 49.347385 -112.41173 L 48.467853 -92.254824 L 28.45357 -93.128156 L 28.615318 -96.833356 A 1.5 1.5 0 0 0 27.181813 -98.397601 A 1.5 1.5 0 0 0 25.618085 -96.964097 L 23.585134 -50.362291 A 1.5 1.5 0 0 0 25.018121 -48.798045 A 1.5 1.5 0 0 0 26.58185 -50.231549 L 28.322829 -90.130923 L 48.337111 -89.258108 L 46.596649 -49.358218 A 1.5 1.5 0 0 0 48.02912 -47.793972 A 1.5 1.5 0 0 0 49.593365 -49.227476 L 51.334344 -89.127366 L 71.346559 -88.254035 L 69.60558 -48.354661 A 1.5 1.5 0 0 0 71.039085 -46.790416 A 1.5 1.5 0 0 0 72.602814 -48.22392 L 74.343276 -88.123293 L 94.357558 -87.249962 L 92.617096 -47.350588 A 1.5 1.5 0 0 0 94.050083 -45.786343 A 1.5 1.5 0 0 0 95.613812 -47.219847 L 97.354791 -87.11922 L 117.36701 -86.246405 L 115.62603 -46.346515 A 1.5 1.5 0 0 0 117.05953 -44.782786 A 1.5 1.5 0 0 0 118.62326 -46.215774 L 120.36372 -86.115664 L 140.37852 -85.242332 L 138.63754 -45.342959 A 1.5 1.5 0 0 0 140.07105 -43.778713 A 1.5 1.5 0 0 0 141.63478 -45.212217 L 143.37524 -85.111591 L 163.38745 -84.238776 L 161.64699 -44.338886 A 1.5 1.5 0 0 0 163.07998 -42.77464 A 1.5 1.5 0 0 0 164.64422 -44.208144 L 166.3852 -84.108034 L 186.39897 -83.234703 L 184.65799 -43.334813 A 1.5 1.5 0 0 0 186.09149 -41.771084 A 1.5 1.5 0 0 0 187.65522 -43.204071 L 189.39568 -83.103961 L 209.40842 -82.23063 L 207.66744 -42.331256 A 1.5 1.5 0 0 0 209.10094 -40.767011 A 1.5 1.5 0 0 0 210.66467 -42.200515 L 212.40565 -82.099888 L 232.41942 -81.227073 L 230.67895 -41.327183 A 1.5 1.5 0 0 0 232.11194 -39.762938 A 1.5 1.5 0 0 0 233.67619 -41.196442 L 235.41716 -81.095815 L 255.42886 -80.223 L 253.68788 -40.32311 A 1.5 1.5 0 0 0 255.12139 -38.759381 A 1.5 1.5 0 0 0 256.68563 -40.192369 L 258.4261 -80.092259 L 278.43986 -79.218927 L 276.6994 -39.319554 A 1.5 1.5 0 0 0 278.1329 -37.755308 L 334.61628 -35.290859 A 1.5 1.5 0 0 0 335.37385 -35.459324 A 1.5 1.5 0 0 0 336.18001 -36.724363 L 337.92099 -76.624254 L 357.93475 -75.750922 L 356.19429 -35.851032 A 1.5 1.5 0 0 0 357.62728 -34.287303 A 1.5 1.5 0 0 0 359.19152 -35.72029 L 360.9325 -75.62018 L 380.94472 -74.746849 L 379.20374 -34.847475 A 1.5 1.5 0 0 0 380.63672 -33.28323 A 1.5 1.5 0 0 0 382.20097 -34.716734 L 383.94143 -74.616107 L 403.95571 -73.742776 L 402.21525 -33.843402 A 1.5 1.5 0 0 0 403.64824 -32.279157 A 1.5 1.5 0 0 0 405.21197 -33.712661 L 406.95295 -73.612034 L 426.96516 -72.739219 L 425.2247 -32.839329 A 1.5 1.5 0 0 0 426.65717 -31.2756 A 1.5 1.5 0 0 0 428.22142 -32.708588 L 429.9624 -72.608478 L 449.97668 -71.735146 L 448.2357 -31.835773 A 1.5 1.5 0 0 0 449.66869 -30.271527 A 1.5 1.5 0 0 0 451.23293 -31.705032 L 452.97339 -71.604405 L 472.98561 -70.73159 L 471.24515 -30.8317 A 1.5 1.5 0 0 0 472.67865 -29.267454 A 1.5 1.5 0 0 0 474.24186 -30.700958 L 475.98284 -70.600849 L 495.99713 -69.727517 L 494.25615 -29.827627 A 1.5 1.5 0 0 0 495.68965 -28.263898 A 1.5 1.5 0 0 0 497.25338 -29.696885 L 498.99384 -69.596775 L 519.00657 -68.723444 L 517.26559 -28.82407 A 1.5 1.5 0 0 0 518.6991 -27.259825 A 1.5 1.5 0 0 0 520.26283 -28.693329 L 522.00329 -68.592702 L 536.84321 -67.945197 A 1.5 1.5 0 0 0 538.40694 -69.378184 A 1.5 1.5 0 0 0 536.97395 -70.94243 L 522.13403 -71.589935 L 523.87501 -111.48931 A 1.5 1.5 0 0 0 522.44202 -113.05355 A 1.5 1.5 0 0 0 520.87778 -111.62005 L 519.13731 -71.720677 L 499.12458 -72.593492 L 500.86556 -112.49338 A 1.5 1.5 0 0 0 499.43257 -114.05763 A 1.5 1.5 0 0 0 498.10191 -113.36413 A 1.5 1.5 0 0 0 497.86885 -112.62412 L 496.12787 -72.724233 L 476.11358 -73.597565 L 477.85405 -113.49746 A 1.5 1.5 0 0 0 476.42158 -115.06118 A 1.5 1.5 0 0 0 474.85733 -113.6282 L 473.11635 -73.728306 L 453.10414 -74.601638 L 454.84511 -114.50101 A 1.5 1.5 0 0 0 453.41161 -116.06526 A 1.5 1.5 0 0 0 451.84788 -114.63175 L 450.10742 -74.732379 L 430.09314 -75.605194 L 431.8336 -115.50508 A 1.5 1.5 0 0 0 430.4001 -117.06933 A 1.5 1.5 0 0 0 428.83688 -115.63583 L 427.0959 -75.735936 L 407.08369 -76.609267 L 408.82415 -116.50864 A 1.5 1.5 0 0 0 407.39116 -118.07289 A 1.5 1.5 0 0 0 405.82744 -116.63938 L 404.08646 -76.740009 L 384.07217 -77.61334 L 385.81315 -117.51271 A 1.5 1.5 0 0 0 384.37965 -119.07696 A 1.5 1.5 0 0 0 382.81592 -117.64346 L 381.07546 -77.744082 L 361.06324 -78.616897 L 362.8037 -118.51679 A 1.5 1.5 0 0 0 361.3702 -120.08052 A 1.5 1.5 0 0 0 359.80647 -118.64753 L 358.06549 -78.747638 L 338.05173 -79.62097 L 339.79271 -119.52034 A 1.50015 1.50015 0 0 0 338.3592 -121.08459 L 281.87583 -123.54904 A 1.5 1.5 0 0 0 280.54516 -122.85606 A 1.5 1.5 0 0 0 280.31158 -122.11553 L 278.5706 -82.21616 L 258.55684 -83.088975 L 260.29782 -122.98887 A 1.5 1.5 0 0 0 258.86431 -124.55311 A 1.5 1.5 0 0 0 257.30007 -123.11961 L 255.5596 -83.219717 L 235.54791 -84.093048 L 237.28837 -123.99242 A 1.5 1.5 0 0 0 235.85538 -125.55667 A 1.5 1.5 0 0 0 234.29114 -124.12316 L 232.55016 -84.22379 L 212.53639 -85.097121 L 214.27737 -124.99649 A 1.5 1.5 0 0 0 212.84387 -126.56074 A 1.5 1.5 0 0 0 211.27962 -125.12724 L 209.53916 -85.227863 L 189.52643 -86.100678 L 191.26741 -126.00057 A 1.5 1.5 0 0 0 189.83442 -127.5643 A 1.5 1.5 0 0 0 188.27017 -126.13131 L 186.52971 -86.231419 L 166.51594 -87.104751 L 168.25641 -127.00412 A 1.5 1.5 0 0 0 166.82342 -128.56837 A 1.5 1.5 0 0 0 165.25917 -127.13538 L 163.51819 -87.235492 L 143.50598 -88.108824 L 145.24696 -128.0082 A 1.5 1.5 0 0 0 143.81397 -129.57244 A 1.5 1.5 0 0 0 142.24973 -128.13894 L 140.50926 -88.239565 L 120.49446 -89.11238 L 122.23544 -129.01227 A 1.5 1.5 0 0 0 120.80246 -130.57652 A 1.5 1.5 0 0 0 119.23873 -129.14301 L 117.49775 -89.243122 L 97.485532 -90.116453 L 99.225995 -130.01583 A 1.5 1.5 0 0 0 97.793007 -131.58007 A 1.5 1.5 0 0 0 96.229278 -130.14657 L 94.488299 -90.247195 L 74.474017 -91.120526 L 76.214996 -131.0199 A 1.5 1.5 0 0 0 74.782009 -132.58415 z M 283.2437 -120.48618 L 303.93288 -119.58339 L 303.53135 -110.3793 A 1.5 1.5 0 0 0 304.96486 -108.81557 A 1.5 1.5 0 0 0 306.52807 -110.24856 L 306.9296 -119.45265 L 311.13141 -119.2692 L 310.72988 -110.06511 A 1.5 1.5 0 0 0 312.16235 -108.50189 A 1.5 1.5 0 0 0 313.7266 -109.93437 L 314.12812 -119.13845 L 336.72984 -118.15247 L 335.05449 -79.751711 L 281.56835 -82.085419 L 283.2437 -120.48618 z M 281.43761 -79.088186 L 334.92324 -76.754995 L 333.24789 -38.353721 L 310.64668 -39.339708 L 311.04821 -48.543797 A 1.5 1.5 0 0 0 309.6147 -50.107526 A 1.5 1.5 0 0 0 308.05149 -48.674538 L 307.64997 -39.470449 L 303.44815 -39.6539 L 303.84968 -48.85799 A 1.5 1.5 0 0 0 302.41721 -50.421719 A 1.5 1.5 0 0 0 300.85296 -48.988731 L 300.45144 -39.784642 L 279.76226 -40.687429 L 281.43761 -79.088186 z M 23.308148 -9.6087058 A 1.5 1.5 0 0 0 21.744419 -8.1762351 L 18.132237 74.618711 A 1.5 1.5 0 0 0 19.565224 76.18244 A 1.5 1.5 0 0 0 21.12947 74.749453 L 22.869932 34.849562 L 42.884214 35.722894 L 41.143752 75.622784 A 1.5 1.5 0 0 0 42.576739 77.185996 A 1.5 1.5 0 0 0 44.140468 75.753526 L 45.881447 35.853635 L 65.893662 36.726967 L 64.1532 76.626341 A 1.5 1.5 0 0 0 65.586188 78.190069 A 1.5 1.5 0 0 0 66.344281 78.022121 A 1.5 1.5 0 0 0 67.149916 76.757082 L 68.890895 36.857709 L 88.905178 37.730524 L 87.164199 77.630414 A 1.5 1.5 0 0 0 88.597186 79.194142 A 1.5 1.5 0 0 0 90.161432 77.761155 L 91.901894 37.861782 L 111.91411 38.734597 L 110.17365 78.634487 A 1.5 1.5 0 0 0 111.60715 80.197699 A 1.5 1.5 0 0 0 113.17036 78.765228 L 114.91134 38.865338 L 134.92562 39.73867 L 133.18465 79.638043 A 1.5 1.5 0 0 0 134.61815 81.201772 A 1.5 1.5 0 0 0 136.18188 79.768784 L 137.92286 39.869411 L 157.93507 40.742226 L 156.19409 80.642116 A 1.5 1.5 0 0 0 157.6276 82.205845 A 1.5 1.5 0 0 0 159.19184 80.772857 L 160.93231 40.872967 L 180.94607 41.746299 L 179.20561 81.646189 A 1.5 1.5 0 0 0 180.63911 83.209401 A 1.5 1.5 0 0 0 182.20233 81.776931 L 183.9433 41.87704 L 203.95552 42.750372 L 202.21454 82.649746 A 1.5 1.5 0 0 0 203.64804 84.213474 A 1.5 1.5 0 0 0 205.21229 82.780487 L 206.95275 42.881114 L 226.96703 43.753928 L 225.22606 83.653819 A 1.5 1.5 0 0 0 226.65956 85.217547 A 1.5 1.5 0 0 0 228.22381 83.78456 L 229.96427 43.88467 L 249.97597 44.758002 L 248.2355 84.657892 A 1.5 1.5 0 0 0 249.66849 86.221104 A 1.5 1.5 0 0 0 250.42658 86.053155 A 1.5 1.5 0 0 0 251.23274 84.788633 L 252.97372 44.888743 L 272.98748 45.762075 L 271.2465 85.661448 A 1.5 1.5 0 0 0 272.68001 87.225177 A 1.5 1.5 0 0 0 274.24425 85.792189 L 275.98471 45.892816 L 295.99745 46.765631 L 294.25647 86.665521 A 1.5 1.5 0 0 0 295.68945 88.22925 A 1.5 1.5 0 0 0 297.25318 86.796262 L 298.99416 46.896372 L 319.00845 47.769704 L 317.26798 87.669594 A 1.5 1.5 0 0 0 318.70045 89.232806 A 1.5 1.5 0 0 0 320.2647 87.800336 L 322.00568 47.900445 L 342.01789 48.773777 L 340.27691 88.67315 A 1.5 1.5 0 0 0 341.7099 90.236879 A 1.5 1.5 0 0 0 343.27415 88.803892 L 345.01461 48.904518 L 365.02889 49.777333 L 363.28843 89.677224 A 1.5 1.5 0 0 0 364.72142 91.240952 A 1.5 1.5 0 0 0 366.28515 89.807965 L 368.02612 49.908075 L 388.04041 50.781406 L 386.29994 90.681297 A 1.5 1.5 0 0 0 387.73242 92.244509 A 1.5 1.5 0 0 0 389.29666 90.812038 L 391.03764 50.912148 L 411.04986 51.78548 L 409.30888 91.684853 A 1.5 1.5 0 0 0 410.74238 93.248582 A 1.5 1.5 0 0 0 412.30611 91.815594 L 414.04657 51.916221 L 434.06085 52.789036 L 432.32039 92.688926 A 1.5 1.5 0 0 0 433.7539 94.252655 A 1.5 1.5 0 0 0 435.31711 92.819667 L 437.05809 52.919777 L 457.0703 53.793109 L 455.32932 93.692999 A 1.5 1.5 0 0 0 456.76283 95.256211 A 1.5 1.5 0 0 0 458.32656 93.82374 L 460.06754 53.92385 L 479.9273 54.790464 A 1.5 1.5 0 0 0 480.0844 54.733103 L 479.59916 65.856455 A 1.5 1.5 0 0 0 481.03266 67.420701 A 1.5 1.5 0 0 0 482.59588 65.987197 L 484.95025 12.032867 A 1.5 1.5 0 0 0 483.51727 10.469138 A 1.5 1.5 0 0 0 481.95302 11.902126 L 480.21049 51.840773 A 1.5 1.5 0 0 0 480.05805 51.792714 L 460.19828 50.926617 L 461.93874 11.028794 A 1.5 1.5 0 0 0 460.50575 9.4650653 A 1.5 1.5 0 0 0 458.94151 10.898053 L 457.20104 50.795876 L 437.18883 49.922544 L 438.92929 10.024721 A 1.5 1.5 0 0 0 437.49682 8.461509 A 1.5 1.5 0 0 0 435.93257 9.8939797 L 434.1916 49.791803 L 414.17731 48.918471 L 415.91829 9.0211648 A 1.5 1.5 0 0 0 414.4853 7.4574359 A 1.5 1.5 0 0 0 412.92106 8.8904234 L 411.1806 48.78773 L 391.16838 47.914915 L 392.90884 8.0170917 A 1.5 1.5 0 0 0 391.47534 6.4533629 A 1.5 1.5 0 0 0 389.91213 7.8863503 L 388.17115 47.784173 L 368.15687 46.910842 L 369.89733 7.0130186 A 1.5 1.5 0 0 0 368.46434 5.4498065 A 1.5 1.5 0 0 0 366.90061 6.8822773 L 365.16015 46.7801 L 345.14535 45.906769 L 346.88633 6.0094623 A 1.5 1.5 0 0 0 345.45283 4.4457335 A 1.5 1.5 0 0 0 343.8891 5.8787209 L 342.14863 45.776027 L 322.13642 44.903212 L 323.87688 5.0053892 A 1.5 1.5 0 0 0 322.44338 3.4416604 A 1.5 1.5 0 0 0 320.88017 4.8746479 L 319.13919 44.772471 L 299.1249 43.899139 L 300.86537 4.0013162 A 1.5 1.5 0 0 0 299.43238 2.4381041 A 1.5 1.5 0 0 0 297.86865 3.8705748 L 296.12819 43.768398 L 276.11546 42.895066 L 277.85643 2.9977598 A 1.5 1.5 0 0 0 276.42293 1.434031 A 1.5 1.5 0 0 0 274.85869 2.8670185 L 273.11822 42.764325 L 253.10446 41.89151 L 254.84492 1.9936868 A 1.5 1.5 0 0 0 253.41142 0.42995792 A 1.5 1.5 0 0 0 252.08126 1.1224221 A 1.5 1.5 0 0 0 251.84769 1.8629454 L 250.10671 41.760252 L 230.09501 40.887437 L 231.83599 0.98961368 A 1.5 1.5 0 0 0 230.40248 -0.5735984 A 1.5 1.5 0 0 0 228.83824 0.8588723 L 227.09778 40.756695 L 207.08349 39.883364 L 208.82447 -0.013942637 A 1.5 1.5 0 0 0 207.39097 -1.5776715 A 1.5 1.5 0 0 0 205.82672 -0.14468401 L 204.08626 39.752622 L 184.07405 38.879807 L 185.81451 -1.0180157 A 1.5 1.5 0 0 0 184.38152 -2.5817446 A 1.5 1.5 0 0 0 182.81779 -1.1487571 L 181.07681 38.749066 L 161.06305 37.875734 L 162.80403 -2.0220888 A 1.5 1.5 0 0 0 161.37052 -3.5853009 A 1.5 1.5 0 0 0 159.80628 -2.1528302 L 158.06581 37.744993 L 138.0536 36.871661 L 139.79406 -3.0256451 A 1.5 1.5 0 0 0 138.36107 -4.589374 A 1.5 1.5 0 0 0 136.79683 -3.1563865 L 135.05637 36.74092 L 115.04208 35.868105 L 116.78255 -4.0297182 A 1.5 1.5 0 0 0 115.35008 -5.593447 A 1.5 1.5 0 0 0 113.78583 -4.1604596 L 112.04485 35.737364 L 92.032635 34.864032 L 93.773614 -5.0337913 A 1.5 1.5 0 0 0 92.34011 -6.5970033 A 1.5 1.5 0 0 0 90.776381 -5.1645326 L 89.035919 34.73329 L 69.021637 33.859959 L 70.762099 -6.0373476 A 1.5 1.5 0 0 0 69.329112 -7.6010764 A 1.5 1.5 0 0 0 67.998443 -6.9086122 A 1.5 1.5 0 0 0 67.765383 -6.168089 L 66.024404 33.729217 L 46.012189 32.856402 L 47.752651 -7.0414207 A 1.5 1.5 0 0 0 46.319663 -8.6051495 A 1.5 1.5 0 0 0 44.755934 -7.172162 L 43.015472 32.725661 L 23.000673 31.852329 L 24.741652 -8.0454937 A 1.5 1.5 0 0 0 23.308148 -9.6087058 z " /></g></svg>
