<?xml version="1.0" encoding="UTF-8" standalone="no"?>
<!-- Created with Inkscape (http://www.inkscape.org/) -->

<svg
   width="592.66669mm"
   height="370.41666mm"
   viewBox="0 0 592.66669 370.41666"
   version="1.1"
   id="svg1"
   xml:space="preserve"
   inkscape:version="1.4 (e7c3feb1, 2024-10-09)"
   sodipodi:docname="RoadMarkings4.svg"
   xmlns:inkscape="http://www.inkscape.org/namespaces/inkscape"
   xmlns:sodipodi="http://sodipodi.sourceforge.net/DTD/sodipodi-0.dtd"
   xmlns="http://www.w3.org/2000/svg"
   xmlns:svg="http://www.w3.org/2000/svg"><sodipodi:namedview
     id="namedview1"
     pagecolor="#ffffff"
     bordercolor="#000000"
     borderopacity="0.25"
     inkscape:showpageshadow="2"
     inkscape:pageopacity="0.0"
     inkscape:pagecheckerboard="0"
     inkscape:deskcolor="#d1d1d1"
     inkscape:document-units="mm"
     inkscape:zoom="0.39675702"
     inkscape:cx="1004.3931"
     inkscape:cy="1085.047"
     inkscape:window-width="1280"
     inkscape:window-height="744"
     inkscape:window-x="0"
     inkscape:window-y="25"
     inkscape:window-maximized="0"
     inkscape:current-layer="layer1" /><defs
     id="defs1" /><g
     inkscape:label="Layer 1"
     inkscape:groupmode="layer"
     id="layer1"
     transform="translate(187.85417,42.333328)"><path
       id="path1"
       style="fill:#ffffff;stroke-linecap:round;stroke-linejoin:round;paint-order:stroke fill markers"
       d="M 44.254143 100.98454 A 0.3999995 0.3999995 0 0 0 43.853651 101.38451 A 0.3999995 0.3999995 0 0 0 44.254143 101.78501 L 59.794796 101.78501 L 59.794796 109.0471 L 44.254143 109.0471 A 0.3999995 0.3999995 0 0 0 43.853651 109.44707 A 0.3999995 0.3999995 0 0 0 44.254143 109.84756 L 59.794796 109.84756 L 59.794796 117.1112 L 44.254143 117.1112 A 0.3999995 0.3999995 0 0 0 43.853651 117.5117 A 0.3999995 0.3999995 0 0 0 44.254143 117.91012 L 59.794796 117.91012 L 59.794796 125.17376 L 44.254143 125.17376 A 0.3999995 0.3999995 0 0 0 43.853651 125.57425 A 0.3999995 0.3999995 0 0 0 44.254143 125.97474 L 59.794796 125.97474 L 59.794796 133.23838 L 44.254143 133.23838 A 0.3999995 0.3999995 0 0 0 43.853651 133.63888 A 0.3999995 0.3999995 0 0 0 44.254143 134.0373 L 59.794796 134.0373 L 59.794796 141.30094 L 44.254143 141.30094 A 0.3999995 0.3999995 0 0 0 43.853651 141.70092 A 0.3999995 0.3999995 0 0 0 44.254143 142.10141 L 59.794796 142.10141 L 59.794796 149.36505 L 44.254143 149.36505 A 0.3999995 0.3999995 0 0 0 43.853651 149.76347 A 0.3999995 0.3999995 0 0 0 44.254143 150.16397 L 59.794796 150.16397 L 59.794796 157.42761 L 44.254143 157.42761 A 0.3999995 0.3999995 0 0 0 43.853651 157.8281 A 0.3999995 0.3999995 0 0 0 44.254143 158.22859 L 59.794796 158.22859 L 59.794796 165.49223 L 44.254143 165.49223 A 0.3999995 0.3999995 0 0 0 43.853651 165.89065 A 0.3999995 0.3999995 0 0 0 44.254143 166.29115 L 60.195289 166.29115 A 0.3999995 0.3999995 0 0 0 60.308977 166.27306 A 0.3999995 0.3999995 0 0 0 60.323963 166.26893 A 0.3999995 0.3999995 0 0 0 60.421115 166.21983 A 0.3999995 0.3999995 0 0 0 60.437135 166.20846 A 0.3999995 0.3999995 0 0 0 60.513099 166.1325 A 0.3999995 0.3999995 0 0 0 60.523951 166.11648 A 0.3999995 0.3999995 0 0 0 60.574077 166.0183 A 0.3999995 0.3999995 0 0 0 60.577694 166.00486 A 0.3999995 0.3999995 0 0 0 60.595781 165.89065 L 60.595781 101.38451 A 0.3999995 0.3999995 0 0 0 60.577694 101.27083 A 0.3999995 0.3999995 0 0 0 60.574077 101.25687 A 0.3999995 0.3999995 0 0 0 60.523951 101.15817 A 0.3999995 0.3999995 0 0 0 60.514132 101.1437 A 0.3999995 0.3999995 0 0 0 60.438168 101.06774 A 0.3999995 0.3999995 0 0 0 60.420081 101.05482 A 0.3999995 0.3999995 0 0 0 60.323963 101.00624 A 0.3999995 0.3999995 0 0 0 60.308977 101.00211 A 0.3999995 0.3999995 0 0 0 60.195289 100.98454 L 44.254143 100.98454 z M 37.652479 194.14268 A 0.3999995 0.3999995 0 0 0 37.254053 194.5411 L 37.254053 210.48432 A 0.3999995 0.3999995 0 0 0 37.652479 210.88481 A 0.3999995 0.3999995 0 0 0 38.052971 210.48432 L 38.052971 194.5411 A 0.3999995 0.3999995 0 0 0 37.652479 194.14268 z M 45.716586 194.14268 A 0.3999995 0.3999995 0 0 0 45.31661 194.5411 L 45.31661 210.48432 A 0.3999995 0.3999995 0 0 0 45.716586 210.88481 A 0.3999995 0.3999995 0 0 0 46.117078 210.48432 L 46.117078 194.5411 A 0.3999995 0.3999995 0 0 0 45.716586 194.14268 z M 53.779143 194.14268 A 0.3999995 0.3999995 0 0 0 53.378651 194.5411 L 53.378651 210.48432 A 0.3999995 0.3999995 0 0 0 53.779143 210.88481 A 0.3999995 0.3999995 0 0 0 54.179635 210.48432 L 54.179635 194.5411 A 0.3999995 0.3999995 0 0 0 53.779143 194.14268 z M 61.843767 194.14268 A 0.3999995 0.3999995 0 0 0 61.443275 194.5411 L 61.443275 210.48432 A 0.3999995 0.3999995 0 0 0 61.843767 210.88481 A 0.3999995 0.3999995 0 0 0 62.244259 210.48432 L 62.244259 194.5411 A 0.3999995 0.3999995 0 0 0 61.843767 194.14268 z M 69.906324 194.14268 A 0.3999995 0.3999995 0 0 0 69.505832 194.5411 L 69.505832 210.48432 A 0.3999995 0.3999995 0 0 0 69.906324 210.88481 A 0.3999995 0.3999995 0 0 0 70.306816 210.48432 L 70.306816 194.5411 A 0.3999995 0.3999995 0 0 0 69.906324 194.14268 z M 77.970948 194.14268 A 0.3999995 0.3999995 0 0 0 77.570456 194.5411 L 77.570456 210.48432 A 0.3999995 0.3999995 0 0 0 77.970948 210.88481 A 0.3999995 0.3999995 0 0 0 78.369373 210.48432 L 78.369373 194.5411 A 0.3999995 0.3999995 0 0 0 77.970948 194.14268 z M 86.032988 194.14268 A 0.3999995 0.3999995 0 0 0 85.633013 194.5411 L 85.633013 210.48432 A 0.3999995 0.3999995 0 0 0 86.032988 210.88481 A 0.3999995 0.3999995 0 0 0 86.433481 210.48432 L 86.433481 194.5411 A 0.3999995 0.3999995 0 0 0 86.032988 194.14268 z M 94.095545 194.14268 A 0.3999995 0.3999995 0 0 0 93.69712 194.5411 L 93.69712 210.48432 A 0.3999995 0.3999995 0 0 0 94.095545 210.88481 A 0.3999995 0.3999995 0 0 0 94.496038 210.48432 L 94.496038 194.5411 A 0.3999995 0.3999995 0 0 0 94.095545 194.14268 z M 102.16017 194.14268 A 0.3999995 0.3999995 0 0 0 101.75968 194.5411 L 101.75968 210.48432 A 0.3999995 0.3999995 0 0 0 102.16017 210.88481 A 0.3999995 0.3999995 0 0 0 102.56066 210.48432 L 102.56066 194.5411 A 0.3999995 0.3999995 0 0 0 102.16017 194.14268 z M 110.22273 194.14268 A 0.3999995 0.3999995 0 0 0 109.8243 194.5411 L 109.8243 210.48432 A 0.3999995 0.3999995 0 0 0 110.22273 210.88481 A 0.3999995 0.3999995 0 0 0 110.62322 210.48432 L 110.62322 194.5411 A 0.3999995 0.3999995 0 0 0 110.22273 194.14268 z M 37.652479 227.15823 A 0.3999995 0.3999995 0 0 0 37.254053 227.55873 L 37.254053 243.49987 L 37.254053 259.4436 A 0.3999995 0.3999995 0 0 0 37.652479 259.84358 A 0.3999995 0.3999995 0 0 0 38.052971 259.4436 L 38.052971 243.90036 L 45.31661 243.90036 L 45.31661 259.4436 A 0.3999995 0.3999995 0 0 0 45.716586 259.84358 A 0.3999995 0.3999995 0 0 0 46.117078 259.4436 L 46.117078 243.90036 L 53.378651 243.90036 L 53.378651 259.4436 A 0.3999995 0.3999995 0 0 0 53.779143 259.84358 A 0.3999995 0.3999995 0 0 0 54.179635 259.4436 L 54.179635 243.90036 L 61.443275 243.90036 L 61.443275 259.4436 A 0.3999995 0.3999995 0 0 0 61.843767 259.84358 A 0.3999995 0.3999995 0 0 0 62.244259 259.4436 L 62.244259 243.90036 L 69.505832 243.90036 L 69.505832 259.4436 A 0.3999995 0.3999995 0 0 0 69.906324 259.84358 A 0.3999995 0.3999995 0 0 0 70.306816 259.4436 L 70.306816 243.90036 L 77.570456 243.90036 L 77.570456 259.4436 A 0.3999995 0.3999995 0 0 0 77.970948 259.84358 A 0.3999995 0.3999995 0 0 0 78.369373 259.4436 L 78.369373 243.90036 L 85.633013 243.90036 L 85.633013 259.4436 A 0.3999995 0.3999995 0 0 0 86.032988 259.84358 A 0.3999995 0.3999995 0 0 0 86.433481 259.4436 L 86.433481 243.90036 L 93.69712 243.90036 L 93.69712 259.4436 A 0.3999995 0.3999995 0 0 0 94.095545 259.84358 A 0.3999995 0.3999995 0 0 0 94.496038 259.4436 L 94.496038 243.90036 L 101.75968 243.90036 L 101.75968 259.4436 A 0.3999995 0.3999995 0 0 0 102.16017 259.84358 A 0.3999995 0.3999995 0 0 0 102.56066 259.4436 L 102.56066 243.90036 L 109.8243 243.90036 L 109.8243 259.4436 A 0.3999995 0.3999995 0 0 0 110.22273 259.84358 A 0.3999995 0.3999995 0 0 0 110.62322 259.4436 L 110.62322 243.90036 L 116.41408 243.90036 A 0.3999995 0.3999995 0 0 0 116.8125 243.49987 A 0.3999995 0.3999995 0 0 0 116.41408 243.10145 L 110.62322 243.10145 L 110.62322 227.55873 A 0.3999995 0.3999995 0 0 0 110.22273 227.15823 A 0.3999995 0.3999995 0 0 0 109.8243 227.55873 L 109.8243 243.10145 L 102.56066 243.10145 L 102.56066 227.55873 A 0.3999995 0.3999995 0 0 0 102.16017 227.15823 A 0.3999995 0.3999995 0 0 0 101.75968 227.55873 L 101.75968 243.10145 L 94.496038 243.10145 L 94.496038 227.55873 A 0.3999995 0.3999995 0 0 0 94.095545 227.15823 A 0.3999995 0.3999995 0 0 0 93.69712 227.55873 L 93.69712 243.10145 L 86.433481 243.10145 L 86.433481 227.55873 A 0.3999995 0.3999995 0 0 0 86.032988 227.15823 A 0.3999995 0.3999995 0 0 0 85.633013 227.55873 L 85.633013 243.10145 L 78.369373 243.10145 L 78.369373 227.55873 A 0.3999995 0.3999995 0 0 0 77.970948 227.15823 A 0.3999995 0.3999995 0 0 0 77.570456 227.55873 L 77.570456 243.10145 L 70.306816 243.10145 L 70.306816 227.55873 A 0.3999995 0.3999995 0 0 0 69.906324 227.15823 A 0.3999995 0.3999995 0 0 0 69.505832 227.55873 L 69.505832 243.10145 L 62.244259 243.10145 L 62.244259 227.55873 A 0.3999995 0.3999995 0 0 0 61.843767 227.15823 A 0.3999995 0.3999995 0 0 0 61.443275 227.55873 L 61.443275 243.10145 L 54.179635 243.10145 L 54.179635 227.55873 A 0.3999995 0.3999995 0 0 0 53.779143 227.15823 A 0.3999995 0.3999995 0 0 0 53.378651 227.55873 L 53.378651 243.10145 L 46.117078 243.10145 L 46.117078 227.55873 A 0.3999995 0.3999995 0 0 0 45.716586 227.15823 A 0.3999995 0.3999995 0 0 0 45.31661 227.55873 L 45.31661 243.10145 L 38.052971 243.10145 L 38.052971 227.55873 A 0.3999995 0.3999995 0 0 0 37.652479 227.15823 z M 115.11907 251.34952 C 114.70233 251.34952 114.35736 251.69449 114.35736 252.11123 C 114.35736 252.47661 114.62246 252.78535 114.96869 252.85589 L 115.11183 253.43363 C 114.55089 253.65731 114.03903 254.21054 114.03903 254.99994 C 114.03903 255.92569 114.79483 256.6815 115.72058 256.6815 C 116.27316 256.6815 116.766 256.41233 117.07347 255.99833 A 0.30003001 0.30003001 0 0 0 117.33392 256.15801 L 117.83777 256.15801 A 0.30000001 0.30000001 0 0 0 118.13697 255.85726 A 0.30000001 0.30000001 0 0 0 117.83777 255.55857 L 117.5644 255.55857 L 117.20525 254.20878 A 0.30003001 0.30003001 0 0 0 116.91017 253.98657 L 115.87096 254.00414 L 115.81153 253.76488 L 116.7014 253.73232 A 0.30000001 0.30000001 0 0 0 116.9882 253.42175 A 0.30000001 0.30000001 0 0 0 116.67763 253.13287 L 115.66477 253.17112 L 115.55625 252.73135 C 115.7509 252.59319 115.87871 252.36583 115.87871 252.11123 C 115.87871 251.69449 115.53581 251.34952 115.11907 251.34952 z M 115.25808 254.02481 L 115.34593 254.38086 A 0.30003001 0.30003001 0 0 0 115.64255 254.6072 L 116.68538 254.5917 L 116.80372 255.03405 C 116.78593 255.61954 116.31069 256.08205 115.72058 256.08205 C 115.11909 256.08205 114.63848 255.60143 114.63848 254.99994 C 114.63848 254.51221 114.9374 254.18068 115.25808 254.02481 z M 45.716586 282.1094 A 0.3999995 0.3999995 0 0 0 45.31661 282.50989 L 45.31661 296.33592 A 0.3999995 0.3999995 0 0 0 45.716586 296.73641 A 0.3999995 0.3999995 0 0 0 46.117078 296.33592 L 46.117078 282.50989 A 0.3999995 0.3999995 0 0 0 45.716586 282.1094 z M 53.779143 282.1094 A 0.3999995 0.3999995 0 0 0 53.378651 282.50989 L 53.378651 296.33592 A 0.3999995 0.3999995 0 0 0 53.779143 296.73641 A 0.3999995 0.3999995 0 0 0 54.179635 296.33592 L 54.179635 282.50989 A 0.3999995 0.3999995 0 0 0 53.779143 282.1094 z M 61.843767 282.1094 A 0.3999995 0.3999995 0 0 0 61.443275 282.50989 L 61.443275 296.33592 A 0.3999995 0.3999995 0 0 0 61.843767 296.73641 A 0.3999995 0.3999995 0 0 0 62.244259 296.33592 L 62.244259 282.50989 A 0.3999995 0.3999995 0 0 0 61.843767 282.1094 z M 69.906324 282.1094 A 0.3999995 0.3999995 0 0 0 69.505832 282.50989 L 69.505832 296.33592 A 0.3999995 0.3999995 0 0 0 69.906324 296.73641 A 0.3999995 0.3999995 0 0 0 70.306816 296.33592 L 70.306816 282.50989 A 0.3999995 0.3999995 0 0 0 69.906324 282.1094 z M 77.970948 282.1094 A 0.3999995 0.3999995 0 0 0 77.570456 282.50989 L 77.570456 296.33592 A 0.3999995 0.3999995 0 0 0 77.970948 296.73641 A 0.3999995 0.3999995 0 0 0 78.369373 296.33592 L 78.369373 282.50989 A 0.3999995 0.3999995 0 0 0 77.970948 282.1094 z M 86.032988 282.1094 A 0.3999995 0.3999995 0 0 0 85.633013 282.50989 L 85.633013 296.33592 A 0.3999995 0.3999995 0 0 0 86.032988 296.73641 A 0.3999995 0.3999995 0 0 0 86.433481 296.33592 L 86.433481 282.50989 A 0.3999995 0.3999995 0 0 0 86.032988 282.1094 z M 94.095545 282.1094 A 0.3999995 0.3999995 0 0 0 93.69712 282.50989 L 93.69712 296.33592 A 0.3999995 0.3999995 0 0 0 94.095545 296.73641 A 0.3999995 0.3999995 0 0 0 94.496038 296.33592 L 94.496038 282.50989 A 0.3999995 0.3999995 0 0 0 94.095545 282.1094 z " /></g></svg>
