<?xml version="1.0" encoding="UTF-8" standalone="no"?>
<!-- Created with Inkscape (http://www.inkscape.org/) -->

<svg
   width="592.66669mm"
   height="370.41666mm"
   viewBox="0 0 592.66669 370.41666"
   version="1.1"
   id="svg1"
   xml:space="preserve"
   inkscape:version="1.4 (e7c3feb1, 2024-10-09)"
   sodipodi:docname="RoadMarkings6.svg"
   xmlns:inkscape="http://www.inkscape.org/namespaces/inkscape"
   xmlns:sodipodi="http://sodipodi.sourceforge.net/DTD/sodipodi-0.dtd"
   xmlns="http://www.w3.org/2000/svg"
   xmlns:svg="http://www.w3.org/2000/svg"><sodipodi:namedview
     id="namedview1"
     pagecolor="#ffffff"
     bordercolor="#000000"
     borderopacity="0.25"
     inkscape:showpageshadow="2"
     inkscape:pageopacity="0.0"
     inkscape:pagecheckerboard="0"
     inkscape:deskcolor="#d1d1d1"
     inkscape:document-units="mm"
     inkscape:zoom="0.77893678"
     inkscape:cx="915.99218"
     inkscape:cy="938.4587"
     inkscape:window-width="1504"
     inkscape:window-height="879"
     inkscape:window-x="0"
     inkscape:window-y="25"
     inkscape:window-maximized="0"
     inkscape:current-layer="layer1" /><defs
     id="defs1" /><g
     inkscape:label="Layer 1"
     inkscape:groupmode="layer"
     id="layer1"
     transform="translate(187.85417,42.333328)"><g
       id="text30"
       transform="rotate(90)" /><path
       id="path2"
       style="fill:#ffffff;stroke-linecap:round;stroke-linejoin:round;paint-order:stroke fill markers"
       d="M 44.80088 119.21702 A 0.15000001 0.15000001 0 0 0 44.650501 119.3674 A 0.15000001 0.15000001 0 0 0 44.80088 119.51777 L 50.617062 119.51777 C 50.717098 119.51777 50.794828 119.59551 50.794829 119.69554 C 50.794829 119.79558 50.717097 119.87279 50.617062 119.87279 L 44.80088 119.87279 A 0.15000001 0.15000001 0 0 0 44.650501 120.02369 A 0.15000001 0.15000001 0 0 0 44.80088 120.17407 L 50.617062 120.17407 C 50.879228 120.17407 51.09352 119.95771 51.093519 119.69554 C 51.093518 119.43338 50.879221 119.21702 50.617062 119.21702 L 44.80088 119.21702 z M 44.80088 122.87881 A 0.15000001 0.15000001 0 0 0 44.650501 123.02919 A 0.15000001 0.15000001 0 0 0 44.80088 123.17957 L 50.617062 123.17957 C 50.717098 123.17957 50.794828 123.2573 50.794829 123.35733 C 50.794829 123.45737 50.717097 123.5351 50.617062 123.5351 L 44.80088 123.5351 A 0.15000001 0.15000001 0 0 0 44.650501 123.68548 A 0.15000001 0.15000001 0 0 0 44.80088 123.83586 L 50.617062 123.83586 C 50.879228 123.83586 51.09352 123.6195 51.093519 123.35733 C 51.093518 123.09517 50.879221 122.87881 50.617062 122.87881 L 44.80088 122.87881 z M 44.80088 126.54112 A 0.15000001 0.15000001 0 0 0 44.650501 126.6915 A 0.15000001 0.15000001 0 0 0 44.80088 126.84188 L 50.617062 126.84188 C 50.717098 126.84188 50.794828 126.91961 50.794829 127.01964 C 50.794829 127.11968 50.717097 127.19741 50.617062 127.19741 L 44.80088 127.19741 A 0.15000001 0.15000001 0 0 0 44.650501 127.34779 A 0.15000001 0.15000001 0 0 0 44.80088 127.49817 L 50.617062 127.49817 C 50.879228 127.49817 51.09352 127.28181 51.093519 127.01964 C 51.093518 126.75748 50.879221 126.54112 50.617062 126.54112 L 44.80088 126.54112 z M 61.773487 126.54112 C 61.511329 126.54112 61.297031 126.75748 61.29703 127.01964 C 61.297029 127.28181 61.511322 127.49817 61.773487 127.49817 L 67.58967 127.49817 A 0.15000001 0.15000001 0 0 0 67.740048 127.34779 A 0.15000001 0.15000001 0 0 0 67.58967 127.19741 L 61.773487 127.19741 C 61.673455 127.19741 61.59572 127.11968 61.59572 127.01964 C 61.595721 126.91961 61.673453 126.84188 61.773487 126.84188 L 67.58967 126.84188 A 0.15000001 0.15000001 0 0 0 67.740048 126.6915 A 0.15000001 0.15000001 0 0 0 67.58967 126.54112 L 61.773487 126.54112 z M 44.80088 130.20291 A 0.15000001 0.15000001 0 0 0 44.650501 130.35329 A 0.15000001 0.15000001 0 0 0 44.80088 130.50367 L 50.617062 130.50367 C 50.717098 130.50367 50.794828 130.5814 50.794829 130.68143 C 50.794829 130.78147 50.717097 130.8592 50.617062 130.8592 L 44.80088 130.8592 A 0.15000001 0.15000001 0 0 0 44.650501 131.00958 A 0.15000001 0.15000001 0 0 0 44.80088 131.15996 L 50.617062 131.15996 C 50.879228 131.15996 51.09352 130.9436 51.093519 130.68143 C 51.093518 130.41927 50.879221 130.20292 50.617062 130.20291 L 44.80088 130.20291 z M 61.773487 130.20291 C 61.511329 130.20291 61.297031 130.41927 61.29703 130.68143 C 61.297029 130.9436 61.511322 131.15996 61.773487 131.15996 L 67.58967 131.15996 A 0.15000001 0.15000001 0 0 0 67.740048 131.00958 A 0.15000001 0.15000001 0 0 0 67.58967 130.8592 L 61.773487 130.8592 C 61.673455 130.8592 61.59572 130.78146 61.59572 130.68143 C 61.595721 130.5814 61.673453 130.50367 61.773487 130.50367 L 67.58967 130.50367 A 0.15000001 0.15000001 0 0 0 67.740048 130.35329 A 0.15000001 0.15000001 0 0 0 67.58967 130.20291 L 61.773487 130.20291 z M 44.80088 133.86522 A 0.15000001 0.15000001 0 0 0 44.650501 134.0156 A 0.15000001 0.15000001 0 0 0 44.80088 134.16598 L 50.617062 134.16598 C 50.717098 134.16598 50.794828 134.24371 50.794829 134.34374 C 50.794829 134.44377 50.717097 134.52151 50.617062 134.52151 L 44.80088 134.52151 A 0.15000001 0.15000001 0 0 0 44.650501 134.67189 A 0.15000001 0.15000001 0 0 0 44.80088 134.8202 L 50.617062 134.8202 C 50.879228 134.8202 51.09352 134.60591 51.093519 134.34374 C 51.093518 134.08158 50.879221 133.86522 50.617062 133.86522 L 44.80088 133.86522 z M 61.773487 133.86522 C 61.511329 133.86522 61.297031 134.08158 61.29703 134.34374 C 61.297029 134.60591 61.511322 134.8202 61.773487 134.8202 L 67.58967 134.8202 A 0.15000001 0.15000001 0 0 0 67.740048 134.67189 A 0.15000001 0.15000001 0 0 0 67.58967 134.52151 L 61.773487 134.52151 C 61.673455 134.52151 61.59572 134.44377 61.59572 134.34374 C 61.595721 134.2437 61.673453 134.16598 61.773487 134.16598 L 67.58967 134.16598 A 0.15000001 0.15000001 0 0 0 67.740048 134.0156 A 0.15000001 0.15000001 0 0 0 67.58967 133.86522 L 61.773487 133.86522 z M 44.80088 137.52753 A 0.15000001 0.15000001 0 0 0 44.650501 137.67791 A 0.15000001 0.15000001 0 0 0 44.80088 137.82828 L 50.617062 137.82828 C 50.717098 137.82828 50.794828 137.90601 50.794829 138.00605 C 50.794829 138.10608 50.717097 138.18382 50.617062 138.18382 L 44.80088 138.18382 A 0.15000001 0.15000001 0 0 0 44.650501 138.33213 A 0.15000001 0.15000001 0 0 0 44.80088 138.48251 L 50.617062 138.48251 C 50.879228 138.48251 51.09352 138.26821 51.093519 138.00605 C 51.093518 137.74388 50.879221 137.52753 50.617062 137.52753 L 44.80088 137.52753 z M 61.773487 137.52753 C 61.511329 137.52753 61.297031 137.74388 61.29703 138.00605 C 61.297029 138.26821 61.511322 138.48251 61.773487 138.48251 L 67.58967 138.48251 A 0.15000001 0.15000001 0 0 0 67.740048 138.33213 A 0.15000001 0.15000001 0 0 0 67.58967 138.18382 L 61.773487 138.18382 C 61.673455 138.18382 61.59572 138.10608 61.59572 138.00605 C 61.595721 137.90601 61.673453 137.82829 61.773487 137.82828 L 67.58967 137.82828 A 0.15000001 0.15000001 0 0 0 67.740048 137.67791 A 0.15000001 0.15000001 0 0 0 67.58967 137.52753 L 61.773487 137.52753 z M 44.80088 141.18932 A 0.15000001 0.15000001 0 0 0 44.650501 141.3397 A 0.15000001 0.15000001 0 0 0 44.80088 141.48853 L 50.617062 141.48853 C 50.717098 141.48853 50.794828 141.56574 50.794829 141.66578 C 50.794829 141.76581 50.717097 141.84561 50.617062 141.84561 L 44.80088 141.84561 A 0.15000001 0.15000001 0 0 0 44.650501 141.99392 A 0.15000001 0.15000001 0 0 0 44.80088 142.1443 L 50.617062 142.1443 C 50.879228 142.1443 51.09352 141.92794 51.093519 141.66578 C 51.093518 141.40361 50.879221 141.18932 50.617062 141.18932 L 44.80088 141.18932 z M 61.773487 141.18932 C 61.511329 141.18932 61.297031 141.40361 61.29703 141.66578 C 61.297029 141.92794 61.511322 142.1443 61.773487 142.1443 L 67.58967 142.1443 A 0.15000001 0.15000001 0 0 0 67.740048 141.99392 A 0.15000001 0.15000001 0 0 0 67.58967 141.84561 L 61.773487 141.84561 C 61.673455 141.84561 61.59572 141.76586 61.59572 141.66578 C 61.595721 141.56574 61.673453 141.48853 61.773487 141.48853 L 67.58967 141.48853 A 0.15000001 0.15000001 0 0 0 67.740048 141.3397 A 0.15000001 0.15000001 0 0 0 67.58967 141.18932 L 61.773487 141.18932 z M 44.80088 144.85163 A 0.15000001 0.15000001 0 0 0 44.650501 144.99994 A 0.15000001 0.15000001 0 0 0 44.80088 145.15032 L 50.617062 145.15032 C 50.717098 145.15032 50.794828 145.22806 50.794829 145.32809 C 50.794829 145.42813 50.717097 145.50585 50.617062 145.50585 L 44.80088 145.50585 A 0.15000001 0.15000001 0 0 0 44.650501 145.65623 A 0.15000001 0.15000001 0 0 0 44.80088 145.80661 L 50.617062 145.80661 C 50.879228 145.80661 51.09352 145.59026 51.093519 145.32809 C 51.093518 145.06593 50.879221 144.85163 50.617062 144.85163 L 44.80088 144.85163 z M 61.773487 144.85163 C 61.511329 144.85163 61.297031 145.06593 61.29703 145.32809 C 61.297029 145.59026 61.511322 145.80661 61.773487 145.80661 L 67.58967 145.80661 A 0.15000001 0.15000001 0 0 0 67.740048 145.65623 A 0.15000001 0.15000001 0 0 0 67.58967 145.50585 L 61.773487 145.50585 C 61.673455 145.50585 61.59572 145.42813 61.59572 145.32809 C 61.595721 145.22806 61.673453 145.15032 61.773487 145.15032 L 67.58967 145.15032 A 0.15000001 0.15000001 0 0 0 67.740048 144.99994 A 0.15000001 0.15000001 0 0 0 67.58967 144.85163 L 61.773487 144.85163 z M 44.80088 148.51342 A 0.15000001 0.15000001 0 0 0 44.650501 148.66225 A 0.15000001 0.15000001 0 0 0 44.80088 148.81263 L 50.617062 148.81263 C 50.717098 148.81263 50.794828 148.89036 50.794829 148.99039 C 50.794829 149.07793 50.73564 149.1483 50.653752 149.16454 C 50.642054 149.16686 50.629566 149.16816 50.617062 149.16816 L 44.80088 149.16816 A 0.15000001 0.15000001 0 0 0 44.650501 149.31854 A 0.15000001 0.15000001 0 0 0 44.80088 149.46892 L 50.617062 149.46892 C 50.879228 149.46892 51.09352 149.25256 51.093519 148.99039 C 51.093518 148.72823 50.879221 148.51342 50.617062 148.51342 L 44.80088 148.51342 z M 61.773487 148.51342 C 61.511329 148.51342 61.297031 148.72823 61.29703 148.99039 C 61.297029 149.25256 61.511322 149.46892 61.773487 149.46892 L 67.58967 149.46892 A 0.15000001 0.15000001 0 0 0 67.740048 149.31854 A 0.15000001 0.15000001 0 0 0 67.58967 149.16816 L 61.773487 149.16816 C 61.673455 149.16816 61.59572 149.09043 61.59572 148.99039 C 61.595721 148.89036 61.673453 148.81263 61.773487 148.81263 L 67.58967 148.81263 A 0.15000001 0.15000001 0 0 0 67.740048 148.66225 A 0.15000001 0.15000001 0 0 0 67.58967 148.51342 L 61.773487 148.51342 z M 44.80088 152.17366 A 0.15000001 0.15000001 0 0 0 44.650501 152.32404 A 0.15000001 0.15000001 0 0 0 44.80088 152.47442 L 50.617062 152.47442 C 50.717098 152.47442 50.794828 152.55216 50.794829 152.65219 C 50.794829 152.75223 50.717097 152.82995 50.617062 152.82995 L 44.80088 152.82995 A 0.15000001 0.15000001 0 0 0 44.650501 152.98033 A 0.15000001 0.15000001 0 0 0 44.80088 153.13071 L 50.617062 153.13071 C 50.879228 153.13071 51.09352 152.91436 51.093519 152.65219 C 51.093518 152.39003 50.879221 152.17366 50.617062 152.17366 L 44.80088 152.17366 z M 61.773487 152.17366 C 61.511329 152.17366 61.297031 152.39003 61.29703 152.65219 C 61.297029 152.91436 61.511322 153.13071 61.773487 153.13071 L 67.58967 153.13071 A 0.15000001 0.15000001 0 0 0 67.740048 152.98033 A 0.15000001 0.15000001 0 0 0 67.58967 152.82995 L 61.773487 152.82995 C 61.673455 152.82995 61.59572 152.75223 61.59572 152.65219 C 61.595721 152.55216 61.673453 152.47442 61.773487 152.47442 L 67.58967 152.47442 A 0.15000001 0.15000001 0 0 0 67.740048 152.32404 A 0.15000001 0.15000001 0 0 0 67.58967 152.17366 L 61.773487 152.17366 z M 69.292925 152.17366 A 0.15000001 0.15000001 0 0 0 69.144613 152.32404 A 0.15000001 0.15000001 0 0 0 69.292925 152.47442 L 75.109624 152.47442 C 75.209659 152.47442 75.286874 152.55216 75.286874 152.65219 C 75.286875 152.75223 75.209658 152.82995 75.109624 152.82995 L 69.292925 152.82995 A 0.15000001 0.15000001 0 0 0 69.144613 152.98033 A 0.15000001 0.15000001 0 0 0 69.292925 153.13071 L 75.109624 153.13071 C 75.371789 153.13071 75.588149 152.91436 75.588148 152.65219 C 75.588146 152.39003 75.371783 152.17366 75.109624 152.17366 L 69.292925 152.17366 z M 44.80088 155.83597 A 0.15000001 0.15000001 0 0 0 44.650501 155.98635 A 0.15000001 0.15000001 0 0 0 44.80088 156.13673 L 50.617062 156.13673 C 50.717098 156.13673 50.794828 156.21447 50.794829 156.3145 C 50.794829 156.41454 50.717097 156.49226 50.617062 156.49226 L 44.80088 156.49226 A 0.15000001 0.15000001 0 0 0 44.650501 156.64264 A 0.15000001 0.15000001 0 0 0 44.80088 156.79302 L 50.617062 156.79302 C 50.879228 156.79302 51.09352 156.57667 51.093519 156.3145 C 51.093518 156.05234 50.879221 155.83597 50.617062 155.83597 L 44.80088 155.83597 z M 61.773487 155.83597 C 61.511329 155.83597 61.297031 156.05234 61.29703 156.3145 C 61.297029 156.57667 61.511322 156.79302 61.773487 156.79302 L 67.58967 156.79302 A 0.15000001 0.15000001 0 0 0 67.740048 156.64264 A 0.15000001 0.15000001 0 0 0 67.58967 156.49226 L 61.773487 156.49226 C 61.673455 156.49226 61.59572 156.41454 61.59572 156.3145 C 61.595721 156.21447 61.673453 156.13673 61.773487 156.13673 L 67.58967 156.13673 A 0.15000001 0.15000001 0 0 0 67.740048 155.98635 A 0.15000001 0.15000001 0 0 0 67.58967 155.83597 L 61.773487 155.83597 z M 69.292925 155.83597 A 0.15000001 0.15000001 0 0 0 69.144613 155.98635 A 0.15000001 0.15000001 0 0 0 69.292925 156.13673 L 75.109624 156.13673 C 75.209659 156.13673 75.286874 156.21447 75.286874 156.3145 C 75.286875 156.41454 75.209658 156.49226 75.109624 156.49226 L 69.292925 156.49226 A 0.15000001 0.15000001 0 0 0 69.144613 156.64264 A 0.15000001 0.15000001 0 0 0 69.292925 156.79302 L 75.109624 156.79302 C 75.371789 156.79302 75.588149 156.57667 75.588148 156.3145 C 75.588146 156.05234 75.371783 155.83597 75.109624 155.83597 L 69.292925 155.83597 z M 44.80088 159.49828 A 0.15000001 0.15000001 0 0 0 44.650501 159.64866 A 0.15000001 0.15000001 0 0 0 44.80088 159.79904 L 50.617062 159.79904 C 50.717098 159.79904 50.794828 159.87677 50.794829 159.9768 C 50.794829 160.07684 50.717097 160.15405 50.617062 160.15405 L 44.80088 160.15405 A 0.15000001 0.15000001 0 0 0 44.650501 160.30443 A 0.15000001 0.15000001 0 0 0 44.80088 160.45533 L 50.617062 160.45533 C 50.879228 160.45533 51.09352 160.23897 51.093519 159.9768 C 51.093518 159.71464 50.879221 159.49828 50.617062 159.49828 L 44.80088 159.49828 z M 61.773487 159.49828 C 61.511329 159.49828 61.297031 159.71464 61.29703 159.9768 C 61.297029 160.23897 61.511322 160.45533 61.773487 160.45533 L 67.58967 160.45533 A 0.15000001 0.15000001 0 0 0 67.740048 160.30443 A 0.15000001 0.15000001 0 0 0 67.58967 160.15405 L 61.773487 160.15405 C 61.673455 160.15405 61.59572 160.07684 61.59572 159.9768 C 61.595721 159.87677 61.673453 159.79904 61.773487 159.79904 L 67.58967 159.79904 A 0.15000001 0.15000001 0 0 0 67.740048 159.64866 A 0.15000001 0.15000001 0 0 0 67.58967 159.49828 L 61.773487 159.49828 z M 69.292925 159.49828 A 0.15000001 0.15000001 0 0 0 69.144613 159.64866 A 0.15000001 0.15000001 0 0 0 69.292925 159.79904 L 75.109624 159.79904 C 75.209659 159.79904 75.286874 159.87677 75.286874 159.9768 C 75.286875 160.07684 75.209658 160.15405 75.109624 160.15405 L 69.292925 160.15405 A 0.15000001 0.15000001 0 0 0 69.144613 160.30443 A 0.15000001 0.15000001 0 0 0 69.292925 160.45533 L 75.109624 160.45533 C 75.371789 160.45533 75.588149 160.23897 75.588148 159.9768 C 75.588146 159.71464 75.371783 159.49828 75.109624 159.49828 L 69.292925 159.49828 z M 44.80088 163.16007 A 0.15000001 0.15000001 0 0 0 44.650501 163.31045 A 0.15000001 0.15000001 0 0 0 44.80088 163.46083 L 50.617062 163.46083 C 50.717098 163.46083 50.794828 163.53857 50.794829 163.6386 C 50.794829 163.73864 50.717097 163.81636 50.617062 163.81636 L 44.80088 163.81636 A 0.15000001 0.15000001 0 0 0 44.650501 163.96674 A 0.15000001 0.15000001 0 0 0 44.80088 164.11505 L 50.617062 164.11505 C 50.879228 164.11505 51.09352 163.90077 51.093519 163.6386 C 51.093518 163.37644 50.879221 163.16007 50.617062 163.16007 L 44.80088 163.16007 z M 61.773487 163.16007 C 61.511329 163.16007 61.297031 163.37644 61.29703 163.6386 C 61.297029 163.90077 61.511322 164.11505 61.773487 164.11505 L 67.58967 164.11505 A 0.15000001 0.15000001 0 0 0 67.740048 163.96674 A 0.15000001 0.15000001 0 0 0 67.58967 163.81636 L 61.773487 163.81636 C 61.673455 163.81636 61.59572 163.73864 61.59572 163.6386 C 61.595721 163.53857 61.673453 163.46083 61.773487 163.46083 L 67.58967 163.46083 A 0.15000001 0.15000001 0 0 0 67.740048 163.31045 A 0.15000001 0.15000001 0 0 0 67.58967 163.16007 L 61.773487 163.16007 z M 69.292925 163.16007 A 0.15000001 0.15000001 0 0 0 69.144613 163.31045 A 0.15000001 0.15000001 0 0 0 69.292925 163.46083 L 75.109624 163.46083 C 75.209659 163.46083 75.286874 163.53857 75.286874 163.6386 C 75.286875 163.73864 75.209658 163.81636 75.109624 163.81636 L 69.292925 163.81636 A 0.15000001 0.15000001 0 0 0 69.144613 163.96674 A 0.15000001 0.15000001 0 0 0 69.292925 164.11505 L 75.109624 164.11505 C 75.371789 164.11505 75.588149 163.90077 75.588148 163.6386 C 75.588146 163.37644 75.371783 163.16007 75.109624 163.16007 L 69.292925 163.16007 z M 44.80088 166.82238 A 0.15000001 0.15000001 0 0 0 44.650501 166.97276 A 0.15000001 0.15000001 0 0 0 44.80088 167.12314 L 50.617062 167.12314 A 0.15000001 0.15000001 0 0 0 50.767441 166.97276 A 0.15000001 0.15000001 0 0 0 50.617062 166.82238 L 44.80088 166.82238 z M 61.773487 166.82238 C 61.511329 166.82238 61.297031 167.03874 61.29703 167.3009 C 61.297029 167.56307 61.511322 167.77736 61.773487 167.77736 L 67.58967 167.77736 A 0.15000001 0.15000001 0 0 0 67.740048 167.62905 A 0.15000001 0.15000001 0 0 0 67.58967 167.47867 L 61.773487 167.47867 C 61.673455 167.47867 61.59572 167.40094 61.59572 167.3009 C 61.595721 167.20087 61.673453 167.12314 61.773487 167.12314 L 67.58967 167.12314 A 0.15000001 0.15000001 0 0 0 67.740048 166.97276 A 0.15000001 0.15000001 0 0 0 67.58967 166.82238 L 61.773487 166.82238 z M 69.292925 166.82238 A 0.15000001 0.15000001 0 0 0 69.144613 166.97276 A 0.15000001 0.15000001 0 0 0 69.292925 167.12314 L 75.109624 167.12314 C 75.209659 167.12314 75.286874 167.20087 75.286874 167.3009 C 75.286875 167.40094 75.209658 167.47867 75.109624 167.47867 L 69.292925 167.47867 A 0.15000001 0.15000001 0 0 0 69.144613 167.62905 A 0.15000001 0.15000001 0 0 0 69.292925 167.77736 L 75.109624 167.77736 C 75.371789 167.77736 75.588149 167.56307 75.588148 167.3009 C 75.588146 167.03874 75.371783 166.82238 75.109624 166.82238 L 69.292925 166.82238 z M 44.80088 167.47867 A 0.15000001 0.15000001 0 0 0 44.650501 167.62905 A 0.15000001 0.15000001 0 0 0 44.80088 167.77736 L 50.617062 167.77736 A 0.15000001 0.15000001 0 0 0 50.767441 167.62905 A 0.15000001 0.15000001 0 0 0 50.617062 167.47867 L 44.80088 167.47867 z M 45.359502 176.22853 A 0.15001501 0.15001501 0 0 0 45.209123 176.3789 L 45.209123 181.22667 A 0.15001501 0.15001501 0 0 0 45.359502 181.37705 L 50.632565 181.37705 A 0.15001501 0.15001501 0 0 0 50.781393 181.22667 L 50.781393 176.3789 A 0.15001501 0.15001501 0 0 0 50.632565 176.22853 L 45.445285 176.22853 L 45.359502 176.22853 z M 45.79255 176.52721 L 46.740813 176.52721 L 47.759872 177.58813 A 0.15000001 0.15000001 0 0 0 47.972779 177.59175 A 0.15000001 0.15000001 0 0 0 47.976396 177.38091 L 47.155775 176.52721 L 48.104037 176.52721 L 49.123096 177.58813 A 0.15000001 0.15000001 0 0 0 49.336003 177.59175 A 0.15000001 0.15000001 0 0 0 49.339621 177.38091 L 48.519516 176.52721 L 49.467261 176.52721 L 50.482187 177.584 L 50.482187 180.02158 L 49.468812 181.07629 L 48.520032 181.07629 L 49.339621 180.22466 A 0.15000001 0.15000001 0 0 0 49.336003 180.01176 A 0.15000001 0.15000001 0 0 0 49.228516 179.97042 L 49.228516 179.97093 A 0.15000001 0.15000001 0 0 0 49.123096 180.01744 L 48.105587 181.07629 L 47.156291 181.07629 L 47.976396 180.22466 A 0.15000001 0.15000001 0 0 0 47.972779 180.01176 A 0.15000001 0.15000001 0 0 0 47.865292 179.97042 L 47.865292 179.97093 A 0.15000001 0.15000001 0 0 0 47.759872 180.01744 L 46.742363 181.07629 L 45.793067 181.07629 L 46.613172 180.22466 A 0.15000001 0.15000001 0 0 0 46.609555 180.01176 A 0.15000001 0.15000001 0 0 0 46.502068 179.97042 L 46.502068 179.97093 A 0.15000001 0.15000001 0 0 0 46.396648 180.01744 L 45.50988 180.94038 L 45.50988 176.66519 L 46.396648 177.58813 A 0.15000001 0.15000001 0 0 0 46.609555 177.59175 A 0.15000001 0.15000001 0 0 0 46.613172 177.38091 L 45.79255 176.52721 z M 49.88274 176.52721 L 50.482187 176.52721 L 50.482187 177.15095 L 49.88274 176.52721 z M 46.654513 178.07802 C 46.599593 178.07824 46.555008 178.12286 46.554778 178.17776 L 46.554778 178.39067 C 46.555003 178.44557 46.599593 178.4902 46.654513 178.4904 L 47.206934 178.4904 L 47.206934 178.80253 C 47.206934 179.04348 47.254966 179.23137 47.381084 179.34771 C 47.493637 179.45074 47.639303 179.50378 47.797079 179.50378 C 47.889789 179.50378 47.978333 179.48468 48.058562 179.44538 L 48.060629 179.44538 C 48.139529 179.40698 48.204908 179.35163 48.251832 179.28312 C 48.298832 179.21582 48.328646 179.13655 48.343816 179.04696 L 48.343816 179.04489 C 48.355836 178.97799 48.361386 178.8919 48.361386 178.78289 L 48.361386 178.17776 C 48.361164 178.12206 48.315265 178.07716 48.259583 178.07802 L 46.654513 178.07802 z M 47.597608 178.4904 L 47.970712 178.4904 L 47.970712 178.80098 C 47.970712 178.89308 47.964793 178.95726 47.960893 178.97254 C 47.951393 179.00714 47.935139 179.02897 47.904049 179.05057 C 47.903373 179.05123 47.903199 179.05164 47.902499 179.05264 C 47.873179 179.07384 47.838963 179.08571 47.788811 179.08571 C 47.716791 179.08571 47.679458 179.06665 47.648251 179.03145 C 47.623431 179.00275 47.597608 178.93052 47.597608 178.80666 L 47.597608 178.4904 z M 50.482187 180.45411 L 50.482187 181.07629 L 49.883257 181.07629 L 50.482187 180.45411 z M 46.193559 275.2013 C 45.931394 275.2013 45.715036 275.41766 45.715036 275.67982 L 45.715036 281.49393 A 0.15000001 0.15000001 0 0 0 45.865414 281.64431 A 0.15000001 0.15000001 0 0 0 46.013726 281.49393 L 46.013726 275.67982 C 46.013726 275.57978 46.093522 275.50205 46.193559 275.50205 C 46.293594 275.50205 46.371326 275.57978 46.371326 275.67982 L 46.371326 281.49393 A 0.15000001 0.15000001 0 0 0 46.519638 281.64431 A 0.15000001 0.15000001 0 0 0 46.670016 281.49393 L 46.670016 275.67982 C 46.670016 275.41765 46.455725 275.2013 46.193559 275.2013 z M 49.853284 275.2013 C 49.591118 275.2013 49.376828 275.41766 49.376828 275.67982 L 49.376828 281.49393 A 0.15000001 0.15000001 0 0 0 49.527206 281.64431 A 0.15000001 0.15000001 0 0 0 49.676034 281.49393 L 49.676034 275.67982 C 49.676034 275.57978 49.753249 275.50205 49.853284 275.50205 C 49.953318 275.50205 50.031051 275.57978 50.031051 275.67982 L 50.031051 281.49393 A 0.15000001 0.15000001 0 0 0 50.18143 281.64431 A 0.15000001 0.15000001 0 0 0 50.331808 281.49393 L 50.331808 275.67982 C 50.331808 275.41765 50.115449 275.2013 49.853284 275.2013 z M 53.515593 275.2013 C 53.253427 275.2013 53.039137 275.41766 53.039136 275.67982 L 53.039136 281.49393 A 0.15000001 0.15000001 0 0 0 53.187448 281.64431 A 0.15000001 0.15000001 0 0 0 53.337826 281.49393 L 53.337826 275.67982 C 53.337826 275.57978 53.415559 275.50205 53.515593 275.50205 C 53.615627 275.50205 53.69336 275.57978 53.69336 275.67982 L 53.69336 281.49393 A 0.15000001 0.15000001 0 0 0 53.843739 281.64431 A 0.15000001 0.15000001 0 0 0 53.994117 281.49393 L 53.994117 275.67982 C 53.994117 275.41765 53.777759 275.2013 53.515593 275.2013 z M 57.177902 275.2013 C 56.915737 275.2013 56.699378 275.41766 56.699378 275.67982 L 56.699378 281.49393 A 0.15000001 0.15000001 0 0 0 56.849757 281.64431 A 0.15000001 0.15000001 0 0 0 57.000135 281.49393 L 57.000135 275.67982 C 57.000135 275.57978 57.077868 275.50205 57.177902 275.50205 C 57.277937 275.50205 57.355669 275.57978 57.355669 275.67982 L 57.355669 281.49393 A 0.15000001 0.15000001 0 0 0 57.506047 281.64431 A 0.15000001 0.15000001 0 0 0 57.656426 281.49393 L 57.656426 275.67982 C 57.656426 275.41765 57.440068 275.2013 57.177902 275.2013 z M 60.839694 275.2013 C 60.577528 275.2013 60.36117 275.41766 60.36117 275.67982 L 60.36117 281.49393 A 0.15000001 0.15000001 0 0 0 60.511549 281.64431 A 0.15000001 0.15000001 0 0 0 60.661927 281.49393 L 60.661927 275.67982 C 60.661927 275.57978 60.739659 275.50205 60.839694 275.50205 C 60.939728 275.50205 61.017461 275.57978 61.017461 275.67982 L 61.017461 281.49393 A 0.15000001 0.15000001 0 0 0 61.167839 281.64431 A 0.15000001 0.15000001 0 0 0 61.318218 281.49393 L 61.318218 275.67982 C 61.318218 275.41765 61.101859 275.2013 60.839694 275.2013 z M 64.502003 275.2013 C 64.239837 275.2013 64.02348 275.41766 64.023479 275.67982 L 64.023479 281.49393 A 0.15000001 0.15000001 0 0 0 64.173857 281.64431 A 0.15000001 0.15000001 0 0 0 64.324236 281.49393 L 64.324236 275.67982 C 64.324236 275.57978 64.401969 275.50205 64.502003 275.50205 C 64.602037 275.50205 64.67977 275.57978 64.67977 275.67982 L 64.67977 281.49393 A 0.15000001 0.15000001 0 0 0 64.830148 281.64431 A 0.15000001 0.15000001 0 0 0 64.980526 281.49393 L 64.980526 275.67982 C 64.980526 275.41765 64.764169 275.2013 64.502003 275.2013 z M 68.164311 275.2013 C 67.902146 275.2013 67.685788 275.41766 67.685788 275.67982 L 67.685788 281.49393 A 0.15000001 0.15000001 0 0 0 67.836166 281.64431 A 0.15000001 0.15000001 0 0 0 67.986545 281.49393 L 67.986545 275.67982 C 67.986545 275.57978 68.064277 275.50205 68.164311 275.50205 C 68.264346 275.50205 68.341562 275.57978 68.341562 275.67982 L 68.341562 281.49393 A 0.15000001 0.15000001 0 0 0 68.49194 281.64431 A 0.15000001 0.15000001 0 0 0 68.642835 281.49393 L 68.642835 275.67982 C 68.642835 275.41765 68.426477 275.2013 68.164311 275.2013 z M 71.826103 275.2013 C 71.563937 275.2013 71.34758 275.41766 71.34758 275.67982 L 71.34758 281.49393 A 0.15000001 0.15000001 0 0 0 71.497958 281.64431 A 0.15000001 0.15000001 0 0 0 71.648337 281.49393 L 71.648337 275.67982 C 71.648337 275.57978 71.726068 275.50205 71.826103 275.50205 C 71.926137 275.50205 72.00387 275.57978 72.00387 275.67982 L 72.00387 281.49393 A 0.15000001 0.15000001 0 0 0 72.154249 281.64431 A 0.15000001 0.15000001 0 0 0 72.30256 281.49393 L 72.30256 275.67982 C 72.30256 275.41765 72.088269 275.2013 71.826103 275.2013 z M 75.488412 275.2013 C 75.226247 275.2013 75.009888 275.41766 75.009888 275.67982 L 75.009888 281.49393 A 0.15000001 0.15000001 0 0 0 75.160267 281.64431 A 0.15000001 0.15000001 0 0 0 75.310645 281.49393 L 75.310645 275.67982 C 75.310645 275.66731 75.311943 275.65483 75.314263 275.64313 C 75.330503 275.56124 75.400882 275.50205 75.488412 275.50205 C 75.588447 275.50205 75.666179 275.57978 75.666179 275.67982 L 75.666179 281.49393 A 0.15000001 0.15000001 0 0 0 75.740076 281.62364 A 0.15000001 0.15000001 0 0 0 75.81449 281.64431 A 0.15000001 0.15000001 0 0 0 75.964869 281.49393 L 75.964869 275.67982 C 75.964869 275.41765 75.750578 275.2013 75.488412 275.2013 z M 79.148654 275.2013 C 78.886489 275.2013 78.67168 275.41766 78.67168 275.67982 L 78.67168 281.49393 A 0.15000001 0.15000001 0 0 0 78.822059 281.64431 A 0.15000001 0.15000001 0 0 0 78.970887 281.49393 L 78.970887 275.67982 C 78.970887 275.57978 79.04862 275.50205 79.148654 275.50205 C 79.248689 275.50205 79.327971 275.57978 79.327971 275.67982 L 79.327971 281.49393 A 0.15000001 0.15000001 0 0 0 79.476799 281.64431 A 0.15000001 0.15000001 0 0 0 79.627178 281.49393 L 79.627178 275.67982 C 79.627178 275.41765 79.41082 275.2013 79.148654 275.2013 z M 82.810446 275.2013 C 82.54828 275.2013 82.333989 275.41766 82.333989 275.67982 L 82.333989 281.49393 A 0.15000001 0.15000001 0 0 0 82.482301 281.64431 A 0.15000001 0.15000001 0 0 0 82.632679 281.49393 L 82.632679 275.67982 C 82.632679 275.57978 82.710411 275.50205 82.810446 275.50205 C 82.91048 275.50205 82.988213 275.57978 82.988213 275.67982 L 82.988213 281.49393 A 0.15000001 0.15000001 0 0 0 83.138591 281.64431 A 0.15000001 0.15000001 0 0 0 83.28897 281.49393 L 83.28897 275.67982 C 83.28897 275.41765 83.072612 275.2013 82.810446 275.2013 z M 86.472755 275.2013 C 86.21059 275.2013 85.996298 275.41766 85.996298 275.67982 L 85.996298 281.49393 A 0.15000001 0.15000001 0 0 0 86.144609 281.64431 A 0.15000001 0.15000001 0 0 0 86.294988 281.49393 L 86.294988 275.67982 C 86.294988 275.57978 86.372721 275.50205 86.472755 275.50205 C 86.57279 275.50205 86.650522 275.57978 86.650522 275.67982 L 86.650522 281.49393 A 0.15000001 0.15000001 0 0 0 86.8009 281.64431 A 0.15000001 0.15000001 0 0 0 86.951278 281.49393 L 86.951278 275.67982 C 86.951278 275.41765 86.734921 275.2013 86.472755 275.2013 z " /></g></svg>
