<?xml version="1.0" encoding="UTF-8" standalone="no"?>
<!-- Created with Inkscape (http://www.inkscape.org/) -->

<svg
   width="592.66669mm"
   height="370.41666mm"
   viewBox="0 0 592.66669 370.41666"
   version="1.1"
   id="svg1"
   xml:space="preserve"
   sodipodi:docname="RoadMarkings2.svg"
   inkscape:version="1.4 (e7c3feb1, 2024-10-09)"
   xmlns:inkscape="http://www.inkscape.org/namespaces/inkscape"
   xmlns:sodipodi="http://sodipodi.sourceforge.net/DTD/sodipodi-0.dtd"
   xmlns="http://www.w3.org/2000/svg"
   xmlns:svg="http://www.w3.org/2000/svg"><sodipodi:namedview
     id="namedview1"
     pagecolor="#ffffff"
     bordercolor="#000000"
     borderopacity="0.25"
     inkscape:showpageshadow="2"
     inkscape:pageopacity="0.0"
     inkscape:pagecheckerboard="0"
     inkscape:deskcolor="#d1d1d1"
     inkscape:document-units="mm"
     inkscape:zoom="0.1865057"
     inkscape:cx="1402.1019"
     inkscape:cy="1171.546"
     inkscape:window-width="1672"
     inkscape:window-height="870"
     inkscape:window-x="0"
     inkscape:window-y="25"
     inkscape:window-maximized="0"
     inkscape:current-layer="layer1" /><defs
     id="defs1" /><g
     inkscape:label="Layer 1"
     inkscape:groupmode="layer"
     id="layer1"
     transform="translate(187.85417,36.777077)"><path
       id="path2"
       style="fill:#ffffff;stroke-linecap:round;stroke-linejoin:round;paint-order:stroke fill markers"
       d="M -60.85572 151.65638 A 0.5 0.5 0 0 0 -61.355431 152.15609 L -61.355431 157.22452 L -79.322293 157.22452 A 0.5 0.5 0 0 0 -79.822521 157.72475 A 0.5 0.5 0 0 0 -79.322293 158.22446 L -61.355431 158.22446 L -61.355431 165.05091 L -79.322293 165.05091 A 0.5 0.5 0 0 0 -79.822521 165.55062 A 0.5 0.5 0 0 0 -79.322293 166.05085 L -61.355431 166.05085 L -61.355431 172.87886 L -79.322293 172.87886 A 0.5 0.5 0 0 0 -79.822521 173.37909 A 0.5 0.5 0 0 0 -79.322293 173.8788 L -61.355431 173.8788 L -61.355431 180.70681 L -79.322293 180.70681 A 0.5 0.5 0 0 0 -79.822521 181.20703 A 0.5 0.5 0 0 0 -79.322293 181.70726 L -61.355431 181.70726 L -61.355431 188.53527 L -79.322293 188.53527 A 0.5 0.5 0 0 0 -79.822521 189.03498 A 0.5 0.5 0 0 0 -79.322293 189.53521 L -61.355431 189.53521 L -61.355431 243.82802 A 0.5 0.5 0 0 0 -61.340962 243.86316 A 0.5 0.5 0 0 0 -61.228824 244.13394 A 0.5 0.5 0 0 0 -61.161645 244.20112 A 0.5 0.5 0 0 0 -60.849519 244.33031 L -42.378812 244.33031 A 0.5 0.5 0 0 0 -41.879101 243.83008 A 0.5 0.5 0 0 0 -42.378812 243.32986 L -60.355492 243.32986 L -60.355492 236.50185 L -42.378812 236.50185 A 0.5 0.5 0 0 0 -41.879101 236.00214 A 0.5 0.5 0 0 0 -42.378812 235.50191 L -60.355492 235.50191 L -60.355492 228.6739 L -42.378812 228.6739 A 0.5 0.5 0 0 0 -41.879101 228.17368 A 0.5 0.5 0 0 0 -42.378812 227.67396 L -60.355492 227.67396 L -60.355492 220.84596 L -42.378812 220.84596 A 0.5 0.5 0 0 0 -41.879101 220.34573 A 0.5 0.5 0 0 0 -42.378812 219.8455 L -60.355492 219.8455 L -60.355492 213.01749 L -42.378812 213.01749 A 0.5 0.5 0 0 0 -41.879101 212.51778 A 0.5 0.5 0 0 0 -41.886336 212.43097 A 0.5 0.5 0 0 0 -41.945763 212.26767 A 0.5 0.5 0 0 0 -41.99589 212.19636 A 0.5 0.5 0 0 0 -42.128698 212.08474 A 0.5 0.5 0 0 0 -42.207763 212.04753 A 0.5 0.5 0 0 0 -42.378812 212.01756 L -60.355492 212.01756 L -60.355492 205.18955 L -42.378812 205.18955 A 0.5 0.5 0 0 0 -41.879101 204.68932 A 0.5 0.5 0 0 0 -42.378812 204.18961 L -60.355492 204.18961 L -60.355492 197.36315 L -42.378812 197.36315 A 0.5 0.5 0 0 0 -41.879101 196.86344 A 0.5 0.5 0 0 0 -42.378812 196.36321 L -60.355492 196.36321 L -60.355492 189.53521 L -42.378812 189.53521 A 0.5 0.5 0 0 0 -41.879101 189.03498 A 0.5 0.5 0 0 0 -42.378812 188.53527 L -60.355492 188.53527 L -60.355492 181.70726 L -42.378812 181.70726 A 0.5 0.5 0 0 0 -41.879101 181.20703 A 0.5 0.5 0 0 0 -42.378812 180.70681 L -60.355492 180.70681 L -60.355492 173.8788 L -42.378812 173.8788 A 0.5 0.5 0 0 0 -41.879101 173.37909 A 0.5 0.5 0 0 0 -42.378812 172.87886 L -60.355492 172.87886 L -60.355492 166.05085 L -42.378812 166.05085 A 0.5 0.5 0 0 0 -41.879101 165.55062 A 0.5 0.5 0 0 0 -42.378812 165.05091 L -60.355492 165.05091 L -60.355492 158.22446 L -42.378812 158.22446 A 0.5 0.5 0 0 0 -41.879101 157.72475 A 0.5 0.5 0 0 0 -42.378812 157.22452 L -60.355492 157.22452 L -60.355492 152.15609 A 0.5 0.5 0 0 0 -60.85572 151.65638 z M -8.0176018 151.65638 A 0.5 0.5 0 0 0 -8.5178297 152.15609 L -8.5178297 157.22452 L -26.484175 157.22452 A 0.5 0.5 0 0 0 -26.984403 157.72475 A 0.5 0.5 0 0 0 -26.484175 158.22446 L -8.5178297 158.22446 L -8.5178297 165.05091 L -26.484175 165.05091 A 0.5 0.5 0 0 0 -26.984403 165.55062 A 0.5 0.5 0 0 0 -26.484175 166.05085 L -8.5178297 166.05085 L -8.5178297 172.87886 L -26.484175 172.87886 A 0.5 0.5 0 0 0 -26.984403 173.37909 A 0.5 0.5 0 0 0 -26.484175 173.8788 L -8.5178297 173.8788 L -8.5178297 180.70681 L -26.484175 180.70681 A 0.5 0.5 0 0 0 -26.984403 181.20703 A 0.5 0.5 0 0 0 -26.484175 181.70726 L -8.5178297 181.70726 L -8.5178297 188.53527 L -26.484175 188.53527 A 0.5 0.5 0 0 0 -26.984403 189.03498 A 0.5 0.5 0 0 0 -26.484175 189.53521 L -8.5178297 189.53521 L -8.5178297 196.36321 L -26.484175 196.36321 A 0.5 0.5 0 0 0 -26.984403 196.86344 A 0.5 0.5 0 0 0 -26.484175 197.36315 L -8.5178297 197.36315 L -8.5178297 204.18961 L -26.484175 204.18961 A 0.5 0.5 0 0 0 -26.984403 204.68932 A 0.5 0.5 0 0 0 -26.484175 205.18955 L -8.5178297 205.18955 L -8.5178297 212.01756 L -26.484175 212.01756 A 0.5 0.5 0 0 0 -26.984403 212.51778 A 0.5 0.5 0 0 0 -26.484175 213.01749 L -8.5178297 213.01749 L -8.5178297 219.8455 L -26.484175 219.8455 A 0.5 0.5 0 0 0 -26.984403 220.34573 A 0.5 0.5 0 0 0 -26.484175 220.84596 L -8.5178297 220.84596 L -8.5178297 227.67396 L -26.484175 227.67396 A 0.5 0.5 0 0 0 -26.984403 228.17368 A 0.5 0.5 0 0 0 -26.484175 228.6739 L -8.5178297 228.6739 L -8.5178297 235.50191 L -26.484175 235.50191 A 0.5 0.5 0 0 0 -26.984403 236.00214 A 0.5 0.5 0 0 0 -26.484175 236.50185 L -8.5178297 236.50185 L -8.5178297 243.32986 L -26.484175 243.32986 A 0.5 0.5 0 0 0 -26.984403 243.83008 A 0.5 0.5 0 0 0 -26.484175 244.33031 L -8.0119174 244.33031 L 10.45879 244.33031 A 0.5 0.5 0 0 0 10.959018 243.83008 A 0.5 0.5 0 0 0 10.45879 243.32986 L -7.5173739 243.32986 L -7.5173739 236.50185 L 10.45879 236.50185 A 0.5 0.5 0 0 0 10.959018 236.00214 A 0.5 0.5 0 0 0 10.45879 235.50191 L -7.5173739 235.50191 L -7.5173739 228.6739 L 10.45879 228.6739 A 0.5 0.5 0 0 0 10.959018 228.17368 A 0.5 0.5 0 0 0 10.45879 227.67396 L -7.5173739 227.67396 L -7.5173739 220.84596 L 10.45879 220.84596 A 0.5 0.5 0 0 0 10.959018 220.34573 A 0.5 0.5 0 0 0 10.45879 219.8455 L -7.5173739 219.8455 L -7.5173739 213.01749 L 10.45879 213.01749 A 0.5 0.5 0 0 0 10.959018 212.51778 A 0.5 0.5 0 0 0 10.45879 212.01756 L -7.5173739 212.01756 L -7.5173739 205.18955 L 10.45879 205.18955 A 0.5 0.5 0 0 0 10.959018 204.68932 A 0.5 0.5 0 0 0 10.45879 204.18961 L -7.5173739 204.18961 L -7.5173739 197.36315 L 10.45879 197.36315 A 0.5 0.5 0 0 0 10.959018 196.86344 A 0.5 0.5 0 0 0 10.45879 196.36321 L -7.5173739 196.36321 L -7.5173739 189.53521 L 10.45879 189.53521 A 0.5 0.5 0 0 0 10.959018 189.03498 A 0.5 0.5 0 0 0 10.45879 188.53527 L -7.5173739 188.53527 L -7.5173739 181.70726 L 10.45879 181.70726 A 0.5 0.5 0 0 0 10.959018 181.20703 A 0.5 0.5 0 0 0 10.45879 180.70681 L -7.5173739 180.70681 L -7.5173739 173.8788 L 10.45879 173.8788 A 0.5 0.5 0 0 0 10.959018 173.37909 A 0.5 0.5 0 0 0 10.45879 172.87886 L -7.5173739 172.87886 L -7.5173739 166.05085 L 10.45879 166.05085 A 0.5 0.5 0 0 0 10.959018 165.55062 A 0.5 0.5 0 0 0 10.45879 165.05091 L -7.5173739 165.05091 L -7.5173739 158.22446 L 10.45879 158.22446 A 0.5 0.5 0 0 0 10.959018 157.72475 A 0.5 0.5 0 0 0 10.45879 157.22452 L -7.5173739 157.22452 L -7.5173739 152.15609 A 0.5 0.5 0 0 0 -8.0176018 151.65638 z M 44.640683 156.23646 A 0.5 0.5 0 0 0 44.140455 156.73618 L 44.140455 157.22452 L 26.17566 157.22452 A 0.5 0.5 0 0 0 25.675949 157.72475 A 0.5 0.5 0 0 0 26.17566 158.22446 L 44.140455 158.22446 L 44.140455 165.05091 L 26.17566 165.05091 A 0.5 0.5 0 0 0 25.675949 165.55062 A 0.5 0.5 0 0 0 26.17566 166.05085 L 44.140455 166.05085 L 44.140455 170.51776 A 0.5 0.5 0 0 0 44.640683 171.01747 A 0.5 0.5 0 0 0 45.140394 170.51776 L 45.140394 166.05085 L 63.119141 166.05085 A 0.5 0.5 0 0 0 63.619369 165.55062 A 0.5 0.5 0 0 0 63.119141 165.05091 L 45.140394 165.05091 L 45.140394 158.22446 L 63.119141 158.22446 A 0.5 0.5 0 0 0 63.619369 157.72475 A 0.5 0.5 0 0 0 63.119141 157.22452 L 45.140394 157.22452 L 45.140394 156.73618 A 0.5 0.5 0 0 0 44.640683 156.23646 z M 44.640683 201.70294 A 0.5 0.5 0 0 0 44.140455 202.20317 L 44.140455 212.01756 L 26.17566 212.01756 A 0.5 0.5 0 0 0 25.675949 212.51778 A 0.5 0.5 0 0 0 26.17566 213.01749 L 44.140455 213.01749 L 44.140455 219.8455 L 26.17566 219.8455 A 0.5 0.5 0 0 0 25.675949 220.34573 A 0.5 0.5 0 0 0 26.17566 220.84596 L 44.140455 220.84596 L 44.140455 227.67396 L 26.17566 227.67396 A 0.5 0.5 0 0 0 25.675949 228.17368 A 0.5 0.5 0 0 0 26.17566 228.6739 L 44.140455 228.6739 L 44.140455 235.50191 L 26.17566 235.50191 A 0.5 0.5 0 0 0 25.675949 236.00214 A 0.5 0.5 0 0 0 26.17566 236.50185 L 44.140455 236.50185 L 44.140455 243.32986 L 26.17566 243.32986 A 0.5 0.5 0 0 0 25.675949 243.83008 A 0.5 0.5 0 0 0 26.17566 244.33031 L 44.646367 244.33031 L 63.119141 244.33031 A 0.5 0.5 0 0 0 63.619369 243.83008 A 0.5 0.5 0 0 0 63.119141 243.32986 L 45.140394 243.32986 L 45.140394 236.50185 L 63.119141 236.50185 A 0.5 0.5 0 0 0 63.619369 236.00214 A 0.5 0.5 0 0 0 63.119141 235.50191 L 45.140394 235.50191 L 45.140394 228.6739 L 63.119141 228.6739 A 0.5 0.5 0 0 0 63.619369 228.17368 A 0.5 0.5 0 0 0 63.119141 227.67396 L 45.140394 227.67396 L 45.140394 220.84596 L 63.119141 220.84596 A 0.5 0.5 0 0 0 63.619369 220.34573 A 0.5 0.5 0 0 0 63.119141 219.8455 L 45.140394 219.8455 L 45.140394 213.01749 L 63.119141 213.01749 A 0.5 0.5 0 0 0 63.619369 212.51778 A 0.5 0.5 0 0 0 63.119141 212.01756 L 45.140394 212.01756 L 45.140394 202.20317 A 0.5 0.5 0 0 0 44.640683 201.70294 z M 59.150391 247.0764 A 0.50005 0.50005 0 0 0 58.650163 247.57611 L 58.650163 257.7481 A 0.50005 0.50005 0 0 0 59.150391 258.24781 L 60.566326 258.24781 A 0.50005 0.50005 0 0 0 61.066553 257.7481 L 61.066553 247.57611 A 0.50005 0.50005 0 0 0 60.566326 247.0764 L 59.150391 247.0764 z M -37.379117 259.795 A 0.5 0.5 0 0 0 -37.878828 260.29471 L -37.878828 278.76749 A 0.5 0.5 0 0 0 -37.379117 279.26771 A 0.5 0.5 0 0 0 -36.878889 278.76749 L -36.878889 260.29471 A 0.5 0.5 0 0 0 -37.379117 259.795 z M -29.550654 259.795 A 0.5 0.5 0 0 0 -30.050882 260.29471 L -30.050882 278.76749 A 0.5 0.5 0 0 0 -29.550654 279.26771 A 0.5 0.5 0 0 0 -29.050943 278.76749 L -29.050943 260.29471 A 0.5 0.5 0 0 0 -29.550654 259.795 z M -21.722708 259.795 A 0.5 0.5 0 0 0 -22.22242 260.29471 L -22.22242 278.76749 A 0.5 0.5 0 0 0 -21.722708 279.26771 A 0.5 0.5 0 0 0 -21.222481 278.76749 L -21.222481 260.29471 A 0.5 0.5 0 0 0 -21.722708 259.795 z M -13.894762 259.795 A 0.5 0.5 0 0 0 -14.394474 260.29471 L -14.394474 278.76749 A 0.5 0.5 0 0 0 -13.894762 279.26771 A 0.5 0.5 0 0 0 -13.394535 278.76749 L -13.394535 260.29471 A 0.5 0.5 0 0 0 -13.894762 259.795 z M -6.0662997 259.795 A 0.5 0.5 0 0 0 -6.5665276 260.29471 L -6.5665276 278.76749 A 0.5 0.5 0 0 0 -6.0662997 279.26771 A 0.5 0.5 0 0 0 -5.5665886 278.76749 L -5.5665886 260.29471 A 0.5 0.5 0 0 0 -6.0662997 259.795 z M 1.7595792 259.795 A 0.5 0.5 0 0 0 1.2598681 260.29471 L 1.2598681 278.76749 A 0.5 0.5 0 0 0 1.7595792 279.26771 A 0.5 0.5 0 0 0 2.2598071 278.76749 L 2.2598071 260.29471 A 0.5 0.5 0 0 0 1.7595792 259.795 z M 9.5880419 259.795 A 0.5 0.5 0 0 0 9.087814 260.29471 L 9.087814 278.76749 A 0.5 0.5 0 0 0 9.5880419 279.26771 A 0.5 0.5 0 0 0 10.087753 278.76749 L 10.087753 260.29471 A 0.5 0.5 0 0 0 9.5880419 259.795 z M 17.415988 259.795 A 0.5 0.5 0 0 0 16.91576 260.29471 L 16.91576 278.76749 A 0.5 0.5 0 0 0 17.415988 279.26771 A 0.5 0.5 0 0 0 17.916216 278.76749 L 17.916216 260.29471 A 0.5 0.5 0 0 0 17.415988 259.795 z M 25.243934 259.795 A 0.5 0.5 0 0 0 24.744223 260.29471 L 24.744223 278.76749 A 0.5 0.5 0 0 0 25.243934 279.26771 A 0.5 0.5 0 0 0 25.744162 278.76749 L 25.744162 260.29471 A 0.5 0.5 0 0 0 25.243934 259.795 z M 33.072397 259.795 A 0.5 0.5 0 0 0 32.572169 260.29471 L 32.572169 278.76749 A 0.5 0.5 0 0 0 33.072397 279.26771 A 0.5 0.5 0 0 0 33.572108 278.76749 L 33.572108 260.29471 A 0.5 0.5 0 0 0 33.072397 259.795 z M 40.898275 259.795 A 0.5 0.5 0 0 0 40.398564 260.29471 L 40.398564 278.76749 A 0.5 0.5 0 0 0 40.898275 279.26771 A 0.5 0.5 0 0 0 41.398503 278.76749 L 41.398503 260.29471 A 0.5 0.5 0 0 0 40.898275 259.795 z M 48.726738 259.795 A 0.5 0.5 0 0 0 48.22651 260.29471 L 48.22651 278.76749 A 0.5 0.5 0 0 0 48.726738 279.26771 A 0.5 0.5 0 0 0 49.226449 278.76749 L 49.226449 260.29471 A 0.5 0.5 0 0 0 48.726738 259.795 z " /></g></svg>
