<?xml version="1.0" encoding="UTF-8" standalone="no"?>
<!-- Created with Inkscape (http://www.inkscape.org/) -->

<svg
   width="210mm"
   height="297mm"
   viewBox="0 0 210 297"
   version="1.1"
   id="svg1"
   inkscape:version="1.4 (e7c3feb1, 2024-10-09)"
   sodipodi:docname="StopSign.svg"
   xmlns:inkscape="http://www.inkscape.org/namespaces/inkscape"
   xmlns:sodipodi="http://sodipodi.sourceforge.net/DTD/sodipodi-0.dtd"
   xmlns="http://www.w3.org/2000/svg"
   xmlns:svg="http://www.w3.org/2000/svg">
  <sodipodi:namedview
     id="namedview1"
     pagecolor="#ffffff"
     bordercolor="#000000"
     borderopacity="0.25"
     inkscape:showpageshadow="2"
     inkscape:pageopacity="0.0"
     inkscape:pagecheckerboard="0"
     inkscape:deskcolor="#d1d1d1"
     inkscape:document-units="mm"
     inkscape:zoom="1.3021779"
     inkscape:cx="385.12402"
     inkscape:cy="518.74631"
     inkscape:window-width="1680"
     inkscape:window-height="1022"
     inkscape:window-x="0"
     inkscape:window-y="28"
     inkscape:window-maximized="0"
     inkscape:current-layer="layer1" />
  <defs
     id="defs1" />
  <g
     inkscape:label="Layer 1"
     inkscape:groupmode="layer"
     id="layer1">
    <path
       d="m 77.539446,94.386917 c -3.006603,0.006 -4.960966,3.40441 -3.453125,6.005863 l 23.720703,40.88672 c 0.715705,1.23348 2.040715,1.9946 3.466796,1.99219 1.42619,-0.003 2.74995,-0.77086 3.46094,-2.00782 l 23.54883,-40.98242 c 1.49827,-2.607243 -0.46949,-5.999943 -3.47656,-5.994143 z"
       style="fill:#c94646;stroke-linecap:round;stroke-linejoin:round;paint-order:stroke fill markers;fill-opacity:1"
       id="path1" />
    <path
       id="path11-4"
       style="fill:#ffffff;stroke-width:0.756629;stroke-linecap:round;stroke-linejoin:round;paint-order:stroke fill markers"
       d="m 111.60748,102.36483 a 0.83229177,0.83229177 0 0 0 -0.82293,0.84075 l 0.0128,1.20881 -1.96687,0.0502 a 0.83229177,0.83229177 0 0 0 -0.81127,0.85219 0.83229177,0.83229177 0 0 0 0.85221,0.81168 l 1.94338,-0.0499 0.0147,1.39751 -2.76126,2.90216 a 0.83229177,0.83229177 0 0 0 0.03,1.17566 0.83229177,0.83229177 0 0 0 1.17617,-0.0281 l 1.58013,-1.6607 0.0323,3.0565 a 0.83229177,0.83229177 0 0 0 0.84036,0.82296 0.83229177,0.83229177 0 0 0 0.82332,-0.84078 l -0.0502,-4.76794 0.71692,-0.75369 -0.067,0.98879 c -0.11563,1.69129 0.20799,4.44744 0.20799,4.44744 a 0.83229177,0.83229177 0 0 0 0.47578,0.6553 0.80739716,0.80739716 0 0 0 0.92727,-0.0699 l 0.78631,-0.64857 a 0.80739716,0.80739716 0 0 0 0.10907,-1.13663 0.80739716,0.80739716 0 0 0 -0.54544,-0.28956 0.80739716,0.80739716 0 0 0 -0.21132,0.01 c -0.0709,-0.92481 -0.14012,-2.10684 -0.089,-2.8541 l 0.20637,-3.02894 a 0.83229177,0.83229177 0 0 0 -0.0116,-0.19907 0.832375,0.832375 0 0 0 -0.84394,-0.92812 l -1.70093,0.0432 -0.0125,-1.18377 a 0.83229177,0.83229177 0 0 0 -0.84077,-0.82332 z" />
    <path
       id="path6-5-0"
       style="fill:#ffffff;stroke-width:0.758155;stroke-linecap:round;stroke-linejoin:round;paint-order:stroke fill markers"
       d="m 90.951799,112.37533 -0.521065,0.003 c 0.105101,-1.44707 0.255553,-3.01875 0.15474,-4.58659 0.0069,-0.57267 -0.368637,-0.94353 -0.829028,-0.94078 l -5e-6,-3e-5 c -0.460389,0.003 -0.831244,0.37853 -0.817877,0.88145 -0.02352,1.56444 0.0251,3.11526 -0.238931,4.623 -0.0057,0.0201 -0.01068,0.0404 -0.01489,0.0608 -0.922398,0.23812 -0.789633,1.58725 0.161493,1.641 l 2.949711,-0.0184 3.111122,-0.0194 c 0.461612,-0.002 0.833668,-0.37889 0.830056,-0.84049 -0.003,-0.46101 -0.37949,-0.8321 -0.840483,-0.82848 l -2.277417,0.0142 -0.02721,-4.3566 1.36997,0.0408 c 0.460166,0.0137 0.844421,-0.348 0.858466,-0.80814 0.01352,-0.46002 -0.348151,-0.84402 -0.808149,-0.85808 l -1.430714,-0.0431 -0.01497,-2.79693 c -0.003,-0.46039 -0.378525,-0.83125 -0.838917,-0.82838 -0.460393,0.003 -0.831248,0.37838 -0.828502,0.83877 l 0.01981,3.57089 z"
       sodipodi:nodetypes="cccssccccccccccscccccccc" />
    <path
       id="path8-4-4"
       style="fill:#ffffff;stroke-width:0.758155;stroke-linecap:round;stroke-linejoin:round;paint-order:stroke fill markers"
       d="m 101.372,102.4457 a 0.8339705,0.8339705 0 0 0 -0.82508,0.80105 l -2.019741,-5e-4 a 0.8339705,0.8339705 0 0 0 -0.833519,0.8342 0.8339705,0.8339705 0 0 0 0.834199,0.83353 l 2.021311,4.7e-4 0.004,0.80495 -1.956231,-3e-5 a 0.8339705,0.8339705 0 0 0 -0.835122,0.83306 0.8339705,0.8339705 0 0 0 0.834202,0.83354 l 1.964861,4.7e-4 0.003,0.5753 c -0.746401,0.079 -1.481301,0.35065 -2.045421,0.88876 -0.569812,0.54354 -0.914738,1.37358 -0.862143,2.30172 0.04832,0.85284 0.30629,1.54408 0.720753,2.03655 0.41445,0.49248 0.95462,0.7547 1.43706,0.87572 0.964891,0.242 1.818981,-0.002 1.818981,-0.002 a 0.8340539,0.8340539 0 0 0 0.62412,-0.81051 l -0.0152,-3.2986 c 0.34495,0.18518 0.66547,0.41328 0.82382,0.73191 0.38529,0.77522 0.46152,2.0311 0.46152,2.0311 a 0.8339705,0.8339705 0 0 0 0.85741,0.80934 0.8339705,0.8339705 0 0 0 0.80934,-0.85742 c 0,0 -0.002,-1.45468 -0.63401,-2.72537 -0.4821,-0.97004 -1.36988,-1.45132 -2.32648,-1.72098 l -0.004,-0.83511 1.87471,3.6e-4 a 0.8339705,0.8339705 0 0 0 0.83357,-0.83265 0.8339705,0.8339705 0 0 0 -0.83425,-0.83508 l -1.88214,1.6e-4 -0.004,-0.80455 1.81553,5.5e-4 a 0.8339705,0.8339705 0 0 0 0.83351,-0.83459 0.8339705,0.8339705 0 0 0 -0.8342,-0.83353 l -1.82493,-3e-4 a 0.8339705,0.8339705 0 0 0 -0.83516,-0.80126 z m -0.79995,7.2432 0.0129,2.75778 c -0.15895,0.002 -0.19581,0.0431 -0.36569,6e-5 -0.231091,-0.058 -0.414181,-0.15212 -0.565351,-0.33174 -0.15118,-0.17964 -0.29974,-0.47579 -0.3327,-1.0573 -0.0287,-0.50622 0.10949,-0.77393 0.34741,-1.00086 0.19837,-0.18923 0.543391,-0.2975 0.903401,-0.36824 z" />
    <path
       style="fill:#ffffff;stroke-linecap:round;stroke-linejoin:round;paint-order:stroke fill markers"
       d="m 124.80703,94.287317 -47.267584,0.0996 c -3.006603,0.006 -4.960966,3.40441 -3.453125,6.005863 l 23.720703,40.88672 c 0.715705,1.23348 2.040715,1.9946 3.466796,1.99219 1.42619,-0.003 2.74995,-0.77086 3.46094,-2.00782 l 23.54883,-40.98242 c 1.49827,-2.607243 -0.46949,-5.999943 -3.47656,-5.994143 z m 0.006,3 c 0.8421,-0.002 1.28872,0.76791 0.86914,1.49805 L 102.1333,139.76974 c -0.17921,0.31178 -0.50507,0.50115 -0.86524,0.50196 -0.35958,6e-4 -0.68477,-0.18703 -0.86523,-0.49805 L 76.682024,98.888877 v -0.002 c -0.420262,-0.728 0.02168,-1.49825 0.863282,-1.5 z"
       id="path104"
       sodipodi:nodetypes="cccccccscccccccccc" />
  </g>
</svg>
